<svg width="180" height="52" viewBox="0 0 180 52" fill="none" xmlns="http://www.w3.org/2000/svg">
<path d="M173.333 52H6.66667C3.00167 52 0 49.0734 0 45.5V6.5C0 2.92663 3.00167 2.74817e-06 6.66667 2.74817e-06H173.333C176.998 2.74817e-06 180 2.92663 180 6.5V45.5C180 49.0734 176.998 52 173.333 52Z" fill="black"/>
<path d="M173.333 1.04162C176.42 1.04162 178.932 3.4905 178.932 6.5V45.5C178.932 48.5095 176.42 50.9584 173.333 50.9584H6.66667C3.58 50.9584 1.06833 48.5095 1.06833 45.5V6.5C1.06833 3.4905 3.58 1.04162 6.66667 1.04162H173.333ZM173.333 2.74817e-06H6.66667C3.00167 2.74817e-06 0 2.92663 0 6.5V45.5C0 49.0734 3.00167 52 6.66667 52H173.333C176.998 52 180 49.0734 180 45.5V6.5C180 2.92663 176.998 2.74817e-06 173.333 2.74817e-06Z" fill="#A6A6A6"/>
<path d="M13.9152 9.80044C13.5235 10.2002 13.2969 10.8226 13.2969 11.6286V40.3781C13.2969 41.1841 13.5235 41.8064 13.9152 42.2062L14.0119 42.2939L30.5352 26.1902V25.8099L14.0119 9.7062L13.9152 9.80044Z" fill="url(#paint0_linear_1_1260)"/>
<path d="M36.0329 31.561L30.5312 26.1904V25.8102L36.0396 20.4395L36.1629 20.5094L42.6862 24.1283C44.5479 25.1553 44.5479 26.8453 42.6862 27.8788L36.1629 31.4912L36.0329 31.561Z" fill="url(#paint1_linear_1_1260)"/>
<path d="M36.1657 31.4912L30.5341 26.0003L13.9141 42.2065C14.5324 42.8402 15.5407 42.9166 16.6874 42.2828L36.1657 31.4912Z" fill="url(#paint2_linear_1_1260)"/>
<path d="M36.1657 20.5091L16.6874 9.71751C15.5407 9.09025 14.5324 9.16663 13.9141 9.80038L30.5341 26L36.1657 20.5091Z" fill="url(#paint3_linear_1_1260)"/>
<path d="M63.2195 13.3172C63.2195 14.4027 62.8861 15.2721 62.2295 15.9204C61.4745 16.6891 60.4911 17.0758 59.2861 17.0758C58.1345 17.0758 57.1511 16.6826 56.3445 15.9074C55.5361 15.1209 55.1328 14.1557 55.1328 13.0003C55.1328 11.8449 55.5361 10.8797 56.3445 10.0997C57.1511 9.31806 58.1345 8.9248 59.2861 8.9248C59.8595 8.9248 60.4061 9.04018 60.9278 9.25468C61.4478 9.4708 61.8711 9.7633 62.1778 10.1241L61.4811 10.8098C60.9461 10.1939 60.2178 9.89006 59.2861 9.89006C58.4461 9.89006 57.7178 10.1761 57.0995 10.7529C56.4878 11.3314 56.1811 12.0806 56.1811 13.0003C56.1811 13.9201 56.4878 14.6757 57.0995 15.2542C57.7178 15.8246 58.4461 16.1171 59.2861 16.1171C60.1778 16.1171 60.9278 15.8246 61.5195 15.2477C61.9095 14.8658 62.1311 14.3393 62.1895 13.6666H59.2861V12.7273H63.1595C63.2061 12.9304 63.2195 13.1271 63.2195 13.3172Z" fill="white" stroke="white" stroke-width="0.16" stroke-miterlimit="10"/>
<path d="M69.3636 10.0606H65.7253V12.5306H69.0053V13.4699H65.7253V15.9399H69.3636V16.897H64.6953V9.10352H69.3636V10.0606Z" fill="white" stroke="white" stroke-width="0.16" stroke-miterlimit="10"/>
<path d="M73.6992 16.897H72.6692V10.0606H70.4375V9.10352H75.9325V10.0606H73.6992V16.897Z" fill="white" stroke="white" stroke-width="0.16" stroke-miterlimit="10"/>
<path d="M79.9141 16.897V9.10352H80.9424V16.897H79.9141Z" fill="white" stroke="white" stroke-width="0.16" stroke-miterlimit="10"/>
<path d="M85.496 16.897H84.4744V10.0606H82.2344V9.10352H87.736V10.0606H85.496V16.897Z" fill="white" stroke="white" stroke-width="0.16" stroke-miterlimit="10"/>
<path d="M98.1388 15.8944C97.3504 16.6826 96.3737 17.0758 95.2087 17.0758C94.0371 17.0758 93.0604 16.6826 92.2721 15.8944C91.4854 15.1079 91.0938 14.1427 91.0938 13.0003C91.0938 11.8579 91.4854 10.8927 92.2721 10.1062C93.0604 9.31805 94.0371 8.9248 95.2087 8.9248C96.3671 8.9248 97.3438 9.31805 98.1321 10.1127C98.9254 10.9057 99.3171 11.8644 99.3171 13.0003C99.3171 14.1427 98.9254 15.1079 98.1388 15.8944ZM93.0338 15.2412C93.6271 15.8246 94.3487 16.1171 95.2087 16.1171C96.0621 16.1171 96.7904 15.8246 97.3771 15.2412C97.9688 14.6578 98.2687 13.9087 98.2687 13.0003C98.2687 12.0919 97.9688 11.3428 97.3771 10.7594C96.7904 10.1761 96.0621 9.88355 95.2087 9.88355C94.3487 9.88355 93.6271 10.1761 93.0338 10.7594C92.4421 11.3428 92.1421 12.0919 92.1421 13.0003C92.1421 13.9087 92.4421 14.6578 93.0338 15.2412Z" fill="white" stroke="white" stroke-width="0.16" stroke-miterlimit="10"/>
<path d="M100.766 16.897V9.10352H102.016L105.902 15.1648H105.947L105.902 13.6665V9.10352H106.931V16.897H105.857L101.787 10.5368H101.742L101.787 12.0415V16.897H100.766Z" fill="white" stroke="white" stroke-width="0.16" stroke-miterlimit="10"/>
<path d="M90.8454 28.2783C87.7137 28.2783 85.1554 30.602 85.1554 33.8082C85.1554 36.9883 87.7137 39.3364 90.8454 39.3364C93.9837 39.3364 96.5421 36.9883 96.5421 33.8082C96.5421 30.602 93.9837 28.2783 90.8454 28.2783ZM90.8454 37.1589C89.1271 37.1589 87.6487 35.776 87.6487 33.8082C87.6487 31.8143 89.1271 30.4558 90.8454 30.4558C92.5637 30.4558 94.0487 31.8143 94.0487 33.8082C94.0487 35.776 92.5637 37.1589 90.8454 37.1589ZM78.4304 28.2783C75.2921 28.2783 72.7404 30.602 72.7404 33.8082C72.7404 36.9883 75.2921 39.3364 78.4304 39.3364C81.5671 39.3364 84.1204 36.9883 84.1204 33.8082C84.1204 30.602 81.5671 28.2783 78.4304 28.2783ZM78.4304 37.1589C76.7104 37.1589 75.2271 35.776 75.2271 33.8082C75.2271 31.8143 76.7104 30.4558 78.4304 30.4558C80.1487 30.4558 81.6271 31.8143 81.6271 33.8082C81.6271 35.776 80.1487 37.1589 78.4304 37.1589ZM63.6571 29.9732V32.3229H69.4121C69.2437 33.6359 68.7937 34.6012 68.1037 35.2739C67.2637 36.0864 65.9554 36.9883 63.6571 36.9883C60.1154 36.9883 57.3421 34.2014 57.3421 30.7483C57.3421 27.2952 60.1154 24.5083 63.6571 24.5083C65.5721 24.5083 66.9654 25.2379 67.9937 26.1837L69.6921 24.5278C68.2537 23.1888 66.3404 22.1602 63.6571 22.1602C58.8004 22.1602 54.7188 26.013 54.7188 30.7483C54.7188 35.4835 58.8004 39.3364 63.6571 39.3364C66.2821 39.3364 68.2537 38.4979 69.8037 36.9249C71.3921 35.3763 71.8871 33.1988 71.8871 31.4405C71.8871 30.8945 71.8404 30.3924 71.7571 29.9732H63.6571ZM124.067 31.7948C123.599 30.5582 122.154 28.2783 119.21 28.2783C116.294 28.2783 113.865 30.5192 113.865 33.8082C113.865 36.9054 116.269 39.3364 119.49 39.3364C122.095 39.3364 123.599 37.7878 124.217 36.8859L122.284 35.6298C121.639 36.5495 120.76 37.1589 119.49 37.1589C118.229 37.1589 117.324 36.595 116.744 35.4835L124.329 32.4237L124.067 31.7948ZM116.334 33.6359C116.269 31.5039 118.032 30.4119 119.295 30.4119C120.285 30.4119 121.125 30.8945 121.405 31.5852L116.334 33.6359ZM110.169 39H112.662V22.75H110.169V39ZM106.085 29.51H106.002C105.442 28.8633 104.374 28.2783 103.02 28.2783C100.18 28.2783 97.5837 30.7093 97.5837 33.826C97.5837 36.9249 100.18 39.3364 103.02 39.3364C104.374 39.3364 105.442 38.7465 106.002 38.0803H106.085V38.8733C106.085 40.9874 104.927 42.1233 103.059 42.1233C101.535 42.1233 100.59 41.0508 100.2 40.1489L98.0321 41.0313C98.6571 42.497 100.312 44.3008 103.059 44.3008C105.982 44.3008 108.449 42.6238 108.449 38.5434V28.6147H106.085V29.51ZM103.234 37.1589C101.515 37.1589 100.077 35.7565 100.077 33.826C100.077 31.8777 101.515 30.4558 103.234 30.4558C104.927 30.4558 106.262 31.8777 106.262 33.826C106.262 35.7565 104.927 37.1589 103.234 37.1589ZM135.74 22.75H129.777V39H132.264V32.8429H135.74C138.502 32.8429 141.21 30.8945 141.21 27.7957C141.21 24.6984 138.495 22.75 135.74 22.75ZM135.805 30.5825H132.264V25.0104H135.805C137.662 25.0104 138.722 26.5135 138.722 27.7957C138.722 29.0534 137.662 30.5825 135.805 30.5825ZM151.177 28.2474C149.38 28.2474 147.512 29.0209 146.744 30.7353L148.95 31.6372C149.425 30.7353 150.299 30.4428 151.222 30.4428C152.512 30.4428 153.82 31.1984 153.84 32.5325V32.7032C153.39 32.4497 152.427 32.0743 151.242 32.0743C148.865 32.0743 146.444 33.3499 146.444 35.7305C146.444 37.908 148.39 39.3104 150.579 39.3104C152.252 39.3104 153.175 38.5743 153.755 37.7179H153.84V38.974H156.242V32.7405C156.242 29.8594 154.035 28.2474 151.177 28.2474ZM150.877 37.1524C150.064 37.1524 148.93 36.7592 148.93 35.776C148.93 34.5183 150.344 34.0357 151.567 34.0357C152.662 34.0357 153.175 34.2713 153.84 34.5817C153.645 36.0864 152.317 37.1524 150.877 37.1524ZM164.992 28.6033L162.134 35.6477H162.049L159.094 28.6033H156.412L160.852 38.4475L158.319 43.9254H160.917L167.759 28.6033H164.992ZM142.577 39H145.07V22.75H142.577V39Z" fill="white"/>
<defs>
<linearGradient id="paint0_linear_1_1260" x1="29.0681" y1="40.6775" x2="7.258" y2="18.3081" gradientUnits="userSpaceOnUse">
<stop stop-color="#00A0FF"/>
<stop offset="0.0066" stop-color="#00A1FF"/>
<stop offset="0.2601" stop-color="#00BEFF"/>
<stop offset="0.5122" stop-color="#00D2FF"/>
<stop offset="0.7604" stop-color="#00DFFF"/>
<stop offset="1" stop-color="#00E3FF"/>
</linearGradient>
<linearGradient id="paint1_linear_1_1260" x1="45.1104" y1="25.9985" x2="12.8479" y2="25.9985" gradientUnits="userSpaceOnUse">
<stop stop-color="#FFE000"/>
<stop offset="0.4087" stop-color="#FFBD00"/>
<stop offset="0.7754" stop-color="#FFA500"/>
<stop offset="1" stop-color="#FF9C00"/>
</linearGradient>
<linearGradient id="paint2_linear_1_1260" x1="33.1034" y1="23.0154" x2="3.52709" y2="-7.31927" gradientUnits="userSpaceOnUse">
<stop stop-color="#FF3A44"/>
<stop offset="1" stop-color="#C31162"/>
</linearGradient>
<linearGradient id="paint3_linear_1_1260" x1="9.73046" y1="51.7709" x2="22.9376" y2="38.2253" gradientUnits="userSpaceOnUse">
<stop stop-color="#32A071"/>
<stop offset="0.0685" stop-color="#2DA771"/>
<stop offset="0.4762" stop-color="#15CF74"/>
<stop offset="0.8009" stop-color="#06E775"/>
<stop offset="1" stop-color="#00F076"/>
</linearGradient>
</defs>
</svg>
