<svg width="490" height="461" viewBox="0 0 490 461" fill="none" xmlns="http://www.w3.org/2000/svg">
<g clip-path="url(#clip0_1_840)">
<path d="M206.349 79.3367H10.397C11.9503 65.8352 21.27 54.4843 34.0547 48.9881C34.0547 48.7491 34.0547 48.5101 34.0547 48.2712C34.0547 21.6264 57.5928 0 86.5077 0C102.279 0 116.378 6.45209 125.937 16.4887C129.88 14.9354 134.181 14.099 138.722 14.099C155.927 14.099 170.026 26.6447 170.863 42.297C190.697 44.9256 205.991 60.4584 206.349 79.3367Z" fill="#FBEEFD"/>
<path d="M490.007 126.174H314.726C316.159 114.106 324.404 103.95 335.874 98.932C335.874 98.693 335.874 98.5735 335.874 98.3346C335.874 74.4379 356.903 55.2012 382.711 55.2012C396.81 55.2012 409.476 60.9364 418.078 70.0171C421.543 68.5833 425.486 67.8664 429.549 67.8664C444.962 67.8664 457.508 79.0978 458.225 93.0773C476.028 95.228 489.768 109.208 490.007 126.174Z" fill="#FBEEFD"/>
<path d="M371.95 427.63C371.95 427.63 497.766 314.838 484.265 249.003C480.202 229.049 449.973 249.003 449.973 249.003C449.973 249.003 501.709 149.234 462.638 138.122C427.749 128.086 420.461 204.913 420.461 204.913C420.461 204.913 424.045 181.734 399.671 183.168C375.177 184.721 333.596 361.914 333.596 361.914L342.199 428.227L371.95 427.63Z" fill="#FBEEFD"/>
<path d="M468.143 267.284C467.545 266.925 466.828 267.164 466.47 267.642C466.112 268.239 434.568 320.454 398.006 337.54C434.21 249.361 458.345 156.642 458.704 155.447C458.823 154.85 458.465 154.133 457.867 154.014C457.27 153.894 456.553 154.253 456.433 154.85C456.075 156.164 427.399 266.686 385.461 361.078C367.658 304.204 404.219 198.342 404.697 197.266C404.936 196.669 404.578 195.952 403.98 195.713C403.383 195.474 402.666 195.833 402.427 196.43C402.069 197.505 364.073 307.191 384.027 364.304C374.707 385.213 364.67 405.167 354.156 422.97C353.798 423.567 354.036 424.284 354.634 424.643C354.873 424.762 354.992 424.762 355.231 424.762C355.59 424.762 356.068 424.523 356.307 424.165C366.821 406.242 376.977 386.05 386.416 365.021C386.416 364.901 386.536 364.782 386.536 364.782C390.12 356.896 393.466 348.891 396.811 340.766C435.046 324.516 468.262 269.434 468.621 268.956C468.979 268.359 468.74 267.642 468.143 267.284Z" fill="#F5BEFD"/>
<path d="M121.163 427.63C121.163 427.63 -4.65259 314.838 8.849 249.003C12.9114 229.049 43.1406 249.003 43.1406 249.003C43.1406 249.003 -8.59553 149.234 30.4754 138.122C65.3645 128.086 72.6529 204.913 72.6529 204.913C72.6529 204.913 69.0685 181.734 93.443 183.168C117.937 184.721 159.517 361.914 159.517 361.914L150.914 428.227L121.163 427.63Z" fill="#FBEEFD"/>
<path d="M24.9814 267.284C25.5788 266.925 26.2957 267.164 26.6542 267.642C27.0126 268.239 58.5561 320.454 95.1179 337.54C58.9146 249.361 34.779 156.642 34.4206 155.447C34.3011 154.85 34.6595 154.133 35.2569 154.014C35.8544 153.894 36.5713 154.253 36.6907 154.85C37.0492 156.164 65.7251 266.686 107.664 361.078C125.467 304.204 88.9048 198.342 88.5464 197.266C88.3074 196.669 88.6659 195.952 89.2633 195.713C89.8607 195.474 90.5776 195.833 90.8166 196.43C91.175 197.505 129.171 307.191 109.217 364.304C118.537 385.213 128.573 405.167 139.088 422.97C139.446 423.567 139.207 424.284 138.61 424.643C138.371 424.762 138.251 424.762 138.012 424.762C137.654 424.762 137.176 424.523 136.937 424.165C126.423 406.242 116.266 386.05 106.827 365.021C106.827 364.901 106.708 364.782 106.708 364.782C103.123 356.896 99.7778 348.891 96.4323 340.766C58.1977 324.516 24.9814 269.434 24.623 268.956C24.2645 268.359 24.384 267.642 24.9814 267.284Z" fill="#F5BEFD"/>
<path d="M230.602 460.368C357.96 460.368 461.205 452.13 461.205 441.968C461.205 431.806 357.96 423.567 230.602 423.567C103.244 423.567 0 431.806 0 441.968C0 452.13 103.244 460.368 230.602 460.368Z" fill="#E6DDFE"/>
<path d="M102.638 446.389C132.003 446.389 155.808 443.821 155.808 440.653C155.808 437.486 132.003 434.918 102.638 434.918C73.2727 434.918 49.4677 437.486 49.4677 440.653C49.4677 443.821 73.2727 446.389 102.638 446.389Z" fill="#D2C1FE"/>
<path d="M420.34 443.163C420.34 446.986 396.563 450.093 367.17 450.093C337.778 450.093 314.001 446.986 314.001 443.163C314.001 439.339 337.778 436.233 367.17 436.233C396.563 436.233 420.34 439.339 420.34 443.163Z" fill="#D2C1FE"/>
<path d="M241.364 437.666C299.368 437.666 346.389 434.029 346.389 429.542C346.389 425.054 299.368 421.417 241.364 421.417C183.36 421.417 136.338 425.054 136.338 429.542C136.338 434.029 183.36 437.666 241.364 437.666Z" fill="#D2C1FE"/>
<path d="M331.931 70.0171H147.091V404.689H331.931V70.0171Z" fill="white"/>
<path d="M317.943 75.2744C324.395 75.2744 329.652 80.5317 329.652 86.8643V389.276H151.861V86.8643C151.861 80.4122 157.118 75.2744 163.57 75.2744M319.735 56.874H161.778C149.949 56.874 140.271 65.9547 140.271 77.1861V411.022C140.271 422.253 149.949 431.334 161.778 431.334H319.615C331.444 431.334 341.122 422.253 341.122 411.022V77.0667C341.242 65.9547 331.564 56.874 319.735 56.874Z" fill="#4C0B84"/>
<path d="M191.781 106.101V137.286C191.781 138.839 190.944 140.034 189.869 140.034H184.851C183.775 140.034 182.939 141.229 182.939 142.782C182.939 144.336 183.775 145.531 184.851 145.531H191.9H195.126H288.92C289.996 145.531 290.832 144.336 290.832 142.782V106.101C290.832 104.548 289.996 103.353 288.92 103.353H193.812C192.737 103.353 191.781 104.548 191.781 106.101Z" fill="#FBEEFD"/>
<path d="M177.985 137.304C179.319 131.652 175.82 125.989 170.169 124.655C164.517 123.32 158.854 126.82 157.52 132.471C156.185 138.123 159.685 143.786 165.336 145.12C170.987 146.455 176.651 142.955 177.985 137.304Z" fill="#D6CEFE"/>
<path d="M191.777 247.569V278.754C191.777 280.307 190.941 281.502 189.865 281.502H184.847C183.772 281.502 182.935 282.697 182.935 284.25C182.935 285.804 183.772 286.998 184.847 286.998H191.896H195.122H288.917C289.992 286.998 290.828 285.804 290.828 284.25V247.688C290.828 246.135 289.992 244.94 288.917 244.94H193.808C192.733 244.821 191.777 246.016 191.777 247.569Z" fill="#FBEEFD"/>
<path d="M167.759 286.879C173.566 286.879 178.273 282.171 178.273 276.364C178.273 270.557 173.566 265.85 167.759 265.85C161.952 265.85 157.244 270.557 157.244 276.364C157.244 282.171 161.952 286.879 167.759 286.879Z" fill="#D6CEFE"/>
<path d="M290.358 318.303V349.488C290.358 351.041 291.195 352.236 292.27 352.236H297.288C298.364 352.236 299.2 353.431 299.2 354.984C299.2 356.538 298.364 357.732 297.288 357.732H290.358H287.132H193.338C192.263 357.732 191.426 356.538 191.426 354.984V318.422C191.426 316.869 192.263 315.674 193.338 315.674H288.447C289.522 315.674 290.358 316.869 290.358 318.303Z" fill="#FBEEFD"/>
<path d="M324.271 353.037C326.21 347.563 323.345 341.554 317.871 339.614C312.398 337.674 306.388 340.539 304.449 346.013C302.509 351.487 305.374 357.496 310.848 359.436C316.321 361.375 322.331 358.51 324.271 353.037Z" fill="#D6CEFE"/>
<path d="M290.358 176.835V208.02C290.358 209.573 291.195 210.768 292.27 210.768H297.288C298.364 210.768 299.2 211.963 299.2 213.516C299.2 215.07 298.364 216.264 297.288 216.264H290.358H287.132H193.338C192.263 216.264 191.426 215.07 191.426 213.516V176.835C191.426 175.282 192.263 174.087 193.338 174.087H288.447C289.522 174.087 290.358 175.282 290.358 176.835Z" fill="#FBEEFD"/>
<path d="M314.374 218.057C320.181 218.057 324.888 213.349 324.888 207.542C324.888 201.735 320.181 197.028 314.374 197.028C308.567 197.028 303.859 201.735 303.859 207.542C303.859 213.349 308.567 218.057 314.374 218.057Z" fill="#D6CEFE"/>
<path d="M254.783 410.072C254.814 402.351 248.58 396.068 240.859 396.037C233.138 396.006 226.855 402.24 226.824 409.96C226.793 417.681 233.027 423.965 240.747 423.996C248.468 424.027 254.752 417.793 254.783 410.072Z" fill="#F77BAD"/>
<path d="M82.557 167.157C82.557 167.396 82.318 167.635 82.0791 167.635C81.8401 167.635 81.6011 167.396 81.6011 167.157C81.6011 166.918 81.8401 166.679 82.0791 166.679C82.4375 166.679 82.557 166.918 82.557 167.157Z" fill="#2D1350"/>
<path d="M124.849 424.643C124.849 424.643 132.018 430.498 136.917 431.453C141.816 432.409 149.702 432.17 150.299 434.679C150.897 437.189 142.174 440.056 129.151 439.817C116.127 439.578 115.53 438.144 115.53 438.144L116.963 424.643H124.849Z" fill="#2D1350"/>
<path d="M60.8143 287.715C60.8143 302.053 85.3084 323.56 85.3084 323.56C85.3084 323.56 108.847 351.28 110.28 354.148C111.714 357.015 105.859 381.987 107.532 388.917C109.205 395.847 116.852 420.461 116.852 420.461C116.852 420.461 117.449 421.775 120.556 421.775C123.662 421.775 124.618 419.983 124.618 419.983C124.618 419.983 127.486 353.789 127.964 350.205C128.322 346.501 115.299 311.253 115.299 311.253C115.299 311.253 101.439 270.749 100.483 261.668H64.1599C64.1599 261.668 60.9338 265.969 60.8143 287.715Z" fill="#2D1350"/>
<path d="M116.847 420.341V425.121C116.847 425.121 119.237 425.957 121.507 425.838C123.777 425.718 124.852 425.001 124.852 425.001L124.613 419.864C124.613 419.864 119.715 422.851 116.847 420.341Z" fill="#F2ACB4"/>
<path d="M63.5714 423.209C63.5714 423.209 67.7533 431.453 71.8157 434.441C75.8782 437.308 83.1666 440.415 82.6887 442.924C82.2108 445.433 73.0106 444.477 61.1817 438.981C49.3529 433.365 49.4724 431.812 49.4724 431.812L56.4024 420.103L63.5714 423.209Z" fill="#2D1350"/>
<path d="M61.307 272.063C55.4523 285.206 68.9539 314.718 68.9539 314.718C68.9539 314.718 79.11 349.607 79.2295 352.834C79.349 356.06 63.8162 376.372 62.5018 383.421C61.1875 390.471 58.081 416.04 58.081 416.04C58.081 416.04 58.081 417.474 60.9486 418.788C63.8162 420.102 65.3694 418.788 65.3694 418.788C65.3694 418.788 95.1207 359.644 96.913 356.418C98.7052 353.192 101.334 315.674 101.334 315.674L105.516 279.351C102.051 276.603 70.1488 252.229 61.307 272.063Z" fill="#411B73"/>
<path d="M58.0749 416.04L56.1632 420.341C56.1632 420.341 57.9554 422.134 60.1061 422.97C62.2568 423.806 63.4516 423.567 63.4516 423.567L65.3634 418.788C65.2439 418.788 59.6282 419.386 58.0749 416.04Z" fill="#F2ACB4"/>
<path d="M196.32 162.975C194.528 162.258 191.421 166.559 189.27 170.263C189.27 170.263 189.629 166.679 188.434 166.798C187.239 166.918 186.642 173.489 186.283 175.521C186.283 175.521 186.283 175.521 186.403 175.401C186.403 175.521 186.283 175.521 186.283 175.521C186.283 175.521 186.283 175.521 186.164 175.521C186.761 177.074 187.837 178.866 189.509 180.3C190.107 179.942 190.465 179.703 190.943 179.344C197.395 174.804 199.427 164.17 196.32 162.975Z" fill="#F5B6B7"/>
<path d="M189.623 180.419C181.139 185.796 154.614 208.259 146.25 210.888C142.546 211.963 134.302 213.038 126.058 213.755C119.606 214.353 112.915 214.831 108.374 215.069C104.67 215.308 102.281 215.428 102.281 215.428L96.9039 187.827C96.9039 187.827 111.122 191.531 124.385 193.682C133.107 195.116 141.352 195.952 145.056 194.518C154.017 191.173 184.485 175.999 186.277 175.401C186.875 177.074 187.83 178.986 189.623 180.419Z" fill="#ED68B7"/>
<path d="M105.386 279.232C105.386 279.232 93.9158 283.414 81.2506 277.32C76.8297 275.169 73.1257 273.377 70.1387 271.943C64.7619 269.195 62.0138 267.761 62.0138 267.761C62.0138 267.761 63.6866 261.07 64.8814 252.348C65.1204 250.675 65.3593 248.883 65.4788 247.21C66.0762 241.236 66.3152 234.904 65.7178 229.049C65.7178 228.691 65.7178 228.452 65.5983 228.213C63.3281 208.737 73.9621 191.173 75.9933 189.261C76.8297 188.425 78.2635 187.708 80.0558 187.23C86.0299 185.438 95.5886 185.438 96.6639 188.066C96.6639 188.066 105.267 197.864 107.298 207.423C107.776 209.812 108.015 212.441 108.015 215.308C108.015 223.911 105.984 233.589 104.669 240.519C103.952 244.462 103.474 248.405 103.355 252.348C102.997 266.328 105.386 279.232 105.386 279.232Z" fill="#ED51AE"/>
<path d="M82.4423 293.211C81.0085 296.318 72.4057 292.375 68.2238 285.565C67.7459 284.848 67.1485 283.772 66.5511 282.458C67.7459 279.829 70.494 279.232 71.9278 279.232C72.2862 280.427 72.5252 281.144 72.5252 281.144C73.0031 281.383 76.4681 282.936 77.9019 283.294C79.2163 283.653 78.8578 284.967 77.0656 285.087C80.0526 287.954 83.1592 291.419 82.4423 293.211Z" fill="#F5B6B7"/>
<path d="M64.1644 234.665C63.9254 235.979 64.5228 240.997 65.5982 247.091C65.8372 248.525 66.0761 249.959 66.3151 251.512C67.5099 258.442 68.9437 265.969 70.1385 271.824C70.8554 274.931 71.4529 277.559 71.9308 279.112C70.3775 279.232 67.7489 279.71 66.5541 282.339C63.4475 276.484 59.1461 265.611 55.8006 255.574C52.5745 246.016 50.3044 237.413 50.7823 234.784C51.9771 228.691 57.2344 212.799 60.8189 206.228C64.5228 199.656 74.6789 185.796 80.1751 186.991C87.5831 188.664 83.4012 204.077 75.9932 212.441C71.0944 218.057 67.6294 224.15 65.8372 228.93C65.0008 231.319 64.4034 233.231 64.1644 234.665Z" fill="#ED68B7"/>
<path d="M104.179 118.766C81.8359 117.691 84.2256 134.538 84.2256 134.538C84.2256 134.538 81.836 127.727 72.5163 133.582C63.1966 139.317 64.2719 181.734 61.1654 192.368C58.0588 202.882 22.5724 232.753 36.6714 249.122C42.526 256.052 49.5755 257.008 55.7886 255.813C52.5626 246.255 50.2924 237.652 50.7704 235.023C51.9652 228.93 57.2224 213.038 60.8069 206.467C64.5109 199.895 74.667 186.035 80.1632 187.23C86.1373 185.438 95.696 185.438 96.7713 188.066C96.7713 188.066 110.99 191.77 124.252 193.921C125.925 177.91 145.042 120.797 104.179 118.766Z" fill="#2D1350"/>
<path d="M108.239 215.07C108.239 223.672 106.207 233.35 104.893 240.28C104.176 244.223 103.698 248.166 103.579 252.109C106.327 251.512 109.075 250.675 111.823 249.361C124.01 243.626 126.28 227.137 125.922 213.636C119.47 214.353 112.898 214.831 108.239 215.07Z" fill="#2D1350"/>
<path d="M101.439 179.822C101.439 179.822 99.7664 181.495 99.169 182.331C98.4521 183.287 97.8547 184.482 97.3768 185.915C96.4209 189.022 95.8235 191.89 95.704 192.368C95.704 192.368 92.5974 196.43 89.8493 193.443C87.1012 190.456 86.2648 188.903 86.2648 188.903C86.2648 188.903 86.2648 188.903 86.2648 188.783C86.3843 188.066 87.1012 183.645 87.4597 180.061C87.8181 176.954 87.1012 170.861 87.1012 170.861C89.1324 172.892 91.0442 175.162 93.5533 176.835C96.3014 178.508 101.439 179.822 101.439 179.822Z" fill="#F5B6B7"/>
<path d="M101.433 179.822L99.1628 182.331C89.2458 180.061 87.334 171.339 87.2145 170.741C87.4535 171.1 91.1575 176.715 97.6096 178.986C98.8044 179.463 100.119 179.702 101.433 179.822Z" fill="#F57376"/>
<path d="M117.568 171.219C116.971 173.848 115.537 176.118 112.669 177.91C110.758 179.105 108.607 179.702 106.337 179.822C102.513 180.18 98.5705 179.344 95.225 177.671C93.5522 176.835 91.8794 175.759 90.5651 174.445C89.2508 173.25 86.5027 170.024 86.5027 170.024C83.7546 168.829 77.5415 168.232 78.7363 163.692C80.0506 159.032 84.4715 162.855 84.4715 162.855C84.4715 162.855 84.352 162.019 84.352 160.585C84.352 159.988 84.352 159.151 84.352 158.434C84.591 150.907 87.3391 136.211 104.306 135.852C111.833 135.733 115.537 140.87 116.254 142.185C116.373 142.424 116.373 142.424 116.373 142.424C116.373 142.424 116.254 144.335 116.254 146.845C116.254 149.951 116.134 153.177 116.493 156.284C116.612 157.718 116.851 159.271 117.21 160.824C117.329 161.78 117.568 162.736 117.688 163.692C117.927 166.32 118.046 168.949 117.568 171.219Z" fill="#F5B6B7"/>
<path d="M100.958 156.045C102.033 155.806 102.272 158.554 101.436 158.554C100.48 158.673 100.002 156.284 100.958 156.045Z" fill="#2D1350"/>
<path d="M112.425 155.806C113.501 155.567 113.74 158.315 112.903 158.315C111.947 158.315 111.35 156.045 112.425 155.806Z" fill="#2D1350"/>
<path d="M97.0185 154.253C97.0185 154.253 99.886 153.058 101.559 152.699C103.351 152.341 104.546 152.46 104.546 152.46C104.546 152.46 104.904 152.699 104.904 153.058C104.904 153.416 104.665 153.894 104.665 153.894C104.665 153.894 103.232 153.775 101.32 154.133C99.4081 154.491 97.8548 155.208 97.8548 155.208C97.8548 155.208 97.3769 155.208 97.0185 154.85C96.899 154.491 97.0185 154.253 97.0185 154.253Z" fill="#2D1350"/>
<path d="M117.209 153.177C117.209 153.177 114.82 152.46 113.386 152.341C111.952 152.341 110.996 152.46 110.996 152.46C110.996 152.46 110.757 152.699 110.877 153.058C110.877 153.416 111.235 153.894 111.235 153.894C111.235 153.894 112.43 153.536 113.864 153.536C115.417 153.536 116.731 154.133 116.731 154.133C116.731 154.133 117.09 154.014 117.209 153.655C117.329 153.416 117.209 153.177 117.209 153.177Z" fill="#2D1350"/>
<path d="M110.28 164.05C110.042 164.05 109.922 163.931 109.803 163.692C109.803 163.453 109.922 163.214 110.161 163.094C110.519 162.975 110.878 162.855 110.997 162.616C111.236 162.258 111.117 161.9 111.117 161.541C110.997 160.944 109.803 160.227 109.205 159.988H109.086L108.966 159.868C108.966 159.749 107.771 158.315 107.413 154.253C107.413 154.014 107.532 153.775 107.891 153.775C108.13 153.775 108.369 153.894 108.369 154.253C108.608 157.479 109.444 158.912 109.683 159.271C110.161 159.51 111.714 160.346 111.953 161.302C112.073 162.019 112.073 162.616 111.834 163.094C111.595 163.572 111.117 163.931 110.28 164.05C110.4 164.05 110.4 164.05 110.28 164.05Z" fill="#F5898B"/>
<path d="M106.69 166.44C106.69 166.44 112.306 166.559 113.978 166.081C113.978 166.201 110.752 173.609 106.69 166.44Z" fill="white"/>
<path d="M115.783 175.282C113.394 178.508 109.57 180.419 102.521 179.941C102.282 179.941 101.684 179.822 101.445 179.822C100.131 179.702 98.8167 179.344 97.6218 178.986C97.9803 178.627 105.986 171.578 114.23 174.684C114.827 174.923 115.305 175.043 115.783 175.282Z" fill="#F5898B"/>
<path d="M116.605 141.946C115.649 140.393 111.945 135.374 104.537 135.374H104.179C96.8905 135.494 84.4643 138.839 83.7474 158.434C83.7474 159.271 83.7474 159.988 83.7474 160.705L83.8669 162.377L84.7032 160.944C85.4201 159.629 87.2124 156.164 87.8098 152.46C88.2877 149.354 88.5267 147.442 88.5267 146.606C89.4826 146.725 91.9917 147.084 95.2177 147.084C97.4879 147.084 99.8776 146.964 102.028 146.606C108.241 145.769 114.096 143.619 116.366 142.663L116.844 142.424L116.605 141.946Z" fill="#2D1350"/>
<path d="M342.191 427.869C342.191 427.869 334.545 434.082 329.287 435.157C324.03 436.232 315.666 435.993 314.949 438.622C314.352 441.251 323.672 444.357 337.532 444.118C351.511 443.879 352.109 442.326 352.109 442.326L350.555 427.869H342.191Z" fill="#2D1350"/>
<path d="M410.539 281.621C410.539 296.915 384.372 319.856 384.372 319.856C384.372 319.856 359.161 349.368 357.608 352.475C356.055 355.581 362.268 382.107 360.476 389.515C358.684 396.923 350.559 423.209 350.559 423.209C350.559 423.209 349.961 424.643 346.616 424.643C343.27 424.643 342.314 422.731 342.314 422.731C342.314 422.731 339.208 352.116 338.849 348.173C338.491 344.23 352.351 306.474 352.351 306.474C352.351 306.474 367.047 263.46 368.123 253.662H406.835C406.955 253.782 410.539 258.442 410.539 281.621Z" fill="#6E3FAB"/>
<path d="M350.677 423.328V428.347C350.677 428.347 348.168 429.303 345.659 429.183C343.15 429.064 342.194 428.227 342.194 428.227L342.433 422.731C342.433 422.731 347.69 425.957 350.677 423.328Z" fill="#F2ACB4"/>
<path d="M407.664 426.315C407.664 426.315 403.243 435.157 398.822 438.264C394.52 441.37 386.635 444.596 387.232 447.225C387.71 449.854 397.507 448.898 410.173 443.043C422.718 437.069 422.718 435.396 422.718 435.396L415.43 422.85L407.664 426.315Z" fill="#2D1350"/>
<path d="M410.053 264.894C416.385 278.873 401.928 310.536 401.928 310.536C401.928 310.536 391.055 347.815 390.935 351.28C390.816 354.745 407.304 376.491 408.738 383.899C410.172 391.426 413.518 418.668 413.518 418.668C413.518 418.668 413.518 420.222 410.53 421.656C407.543 422.97 405.871 421.656 405.871 421.656C405.871 421.656 374.088 358.449 372.176 355.103C370.265 351.758 367.517 311.612 367.517 311.612L363.096 272.78C366.561 269.793 400.613 243.745 410.053 264.894Z" fill="#7B50B5"/>
<path d="M413.525 418.668L415.556 423.328C415.556 423.328 413.645 425.24 411.375 426.076C409.104 426.913 407.79 426.674 407.79 426.674L405.759 421.536C405.759 421.536 411.853 422.253 413.525 418.668Z" fill="#F2ACB4"/>
<path d="M265.963 148.398C267.874 147.681 271.1 152.221 273.61 156.284C273.61 156.284 273.251 152.46 274.446 152.58C275.76 152.699 276.358 159.749 276.716 161.899C276.716 161.899 276.716 161.78 276.597 161.78C276.597 161.899 276.716 161.899 276.716 161.899C276.716 161.899 276.716 161.899 276.836 161.899C276.238 163.572 275.043 165.484 273.251 167.037C272.654 166.679 272.176 166.32 271.817 166.081C264.648 161.063 262.498 149.712 265.963 148.398Z" fill="#F5B6B7"/>
<path d="M273.011 167.037C282.092 172.772 310.409 196.788 319.37 199.537C323.313 200.731 332.036 201.807 340.997 202.643C347.927 203.241 354.976 203.838 359.875 204.077C363.818 204.316 366.327 204.435 366.327 204.435L372.063 175.043C372.063 175.043 356.888 178.985 342.789 181.375C333.469 182.928 324.628 183.765 320.685 182.331C311.126 178.747 278.627 162.497 276.596 161.899C275.998 163.453 274.923 165.484 273.011 167.037Z" fill="#A57FF9"/>
<path d="M362.988 272.541C362.988 272.541 375.175 276.962 388.796 270.51C393.575 268.239 397.518 266.328 400.625 264.774C406.36 261.907 409.228 260.353 409.228 260.353C409.228 260.353 407.435 253.304 406.121 243.865C405.882 242.073 405.643 240.28 405.404 238.369C404.807 232.036 404.448 225.225 405.165 219.012C405.165 218.654 405.165 218.415 405.285 218.056C407.794 197.266 396.323 178.508 394.292 176.357C393.456 175.521 391.902 174.804 389.991 174.206C383.658 172.294 373.502 172.294 372.188 175.043C372.188 175.043 361.673 183.167 361.673 202.763C361.673 211.963 362.271 223.672 363.585 230.961C364.421 235.143 364.78 239.444 365.019 243.626C365.497 258.8 362.988 272.541 362.988 272.541Z" fill="#B698F9"/>
<path d="M387.476 287.476C389.029 290.822 398.11 286.52 402.65 279.351C403.128 278.634 403.726 277.439 404.443 276.125C403.128 273.258 400.261 272.78 398.708 272.66C398.349 273.974 398.11 274.691 398.11 274.691C397.632 274.93 393.809 276.603 392.375 276.962C390.941 277.32 391.3 278.754 393.331 278.873C389.985 281.86 386.64 285.684 387.476 287.476Z" fill="#F5B6B7"/>
<path d="M406.956 224.986C407.195 226.42 406.478 231.677 405.522 238.249C405.283 239.802 405.044 241.356 404.686 243.028C403.491 250.436 401.938 258.561 400.623 264.774C399.907 268.12 399.309 270.868 398.831 272.66C400.385 272.78 403.372 273.257 404.566 276.125C407.792 269.912 412.452 258.203 416.037 247.449C419.382 237.293 421.891 227.973 421.294 225.225C420.099 218.773 414.484 201.807 410.541 194.757C406.598 187.708 395.725 172.892 389.87 174.206C381.984 175.998 386.405 192.487 394.291 201.448C399.548 207.422 403.133 213.994 405.164 219.012C406.12 221.402 406.717 223.433 406.956 224.986Z" fill="#A57FF9"/>
<path d="M367.165 166.44C367.165 166.44 368.957 168.232 369.554 169.188C370.271 170.144 370.988 171.458 371.466 173.011C372.541 176.237 373.139 179.463 373.258 179.822C373.258 179.822 376.484 184.243 379.471 181.017C382.458 177.791 383.295 176.118 383.295 176.118C383.295 176.118 383.295 176.118 383.295 175.998C383.175 175.281 382.339 170.502 381.981 166.679C381.622 163.333 382.339 156.881 382.339 156.881C380.188 159.032 378.157 161.541 375.409 163.214C372.661 165.006 367.165 166.44 367.165 166.44Z" fill="#F5B6B7"/>
<path d="M367.165 166.44L369.554 169.188C380.069 166.798 382.219 157.359 382.339 156.762C382.1 157.24 378.157 163.214 371.227 165.603C369.913 165.962 368.598 166.32 367.165 166.44Z" fill="#F57376"/>
<path d="M349.971 157.24C350.568 159.988 352.121 162.497 355.228 164.409C357.259 165.603 359.649 166.32 362.038 166.559C366.101 166.918 370.283 166.081 373.987 164.289C375.779 163.333 377.452 162.138 379.005 160.824C380.439 159.51 383.426 156.164 383.426 156.164C386.413 154.85 392.984 154.253 391.79 149.354C390.475 144.455 385.696 148.398 385.696 148.398C385.696 148.398 385.815 147.442 385.815 146.008C385.815 145.291 385.815 144.574 385.815 143.619C385.457 135.494 382.589 119.841 364.547 119.483C356.423 119.244 352.599 124.86 351.763 126.294C351.643 126.532 351.643 126.652 351.643 126.652C351.643 126.652 351.763 128.683 351.763 131.431C351.882 134.777 351.882 138.242 351.524 141.587C351.404 143.141 351.046 144.694 350.807 146.367C350.687 147.323 350.448 148.398 350.329 149.354C349.612 151.982 349.373 154.73 349.971 157.24Z" fill="#F5B6B7"/>
<path d="M367.65 141.109C366.575 140.87 366.217 143.857 367.172 143.857C368.128 143.857 368.726 141.348 367.65 141.109Z" fill="#2D1350"/>
<path d="M355.464 140.751C354.388 140.512 354.03 143.499 354.986 143.499C356.061 143.499 356.539 140.99 355.464 140.751Z" fill="#2D1350"/>
<path d="M371.952 139.078C371.952 139.078 368.965 137.764 367.054 137.405C365.142 137.047 363.828 137.047 363.828 137.047C363.828 137.047 363.469 137.286 363.469 137.764C363.469 138.122 363.708 138.72 363.708 138.72C363.708 138.72 365.261 138.6 367.293 138.959C369.324 139.317 370.997 140.153 370.997 140.153C370.997 140.153 371.475 140.153 371.833 139.795C372.072 139.317 371.952 139.078 371.952 139.078Z" fill="#2D1350"/>
<path d="M350.324 138.003C350.324 138.003 352.953 137.166 354.506 137.166C356.06 137.047 357.135 137.405 357.135 137.405C357.135 137.405 357.374 137.764 357.254 138.122C357.135 138.481 356.896 138.959 356.896 138.959C356.896 138.959 355.701 138.6 354.028 138.6C352.356 138.6 350.922 139.198 350.922 139.198C350.922 139.198 350.563 139.078 350.324 138.72C350.205 138.122 350.324 138.003 350.324 138.003Z" fill="#2D1350"/>
<path d="M357.735 149.593C357.974 149.593 358.213 149.473 358.213 149.234C358.332 148.995 358.093 148.756 357.854 148.637C357.376 148.517 357.138 148.398 356.899 148.039C356.66 147.681 356.779 147.203 356.779 146.964C356.899 146.367 358.213 145.65 358.81 145.291H358.93L359.049 145.172C359.049 145.052 360.364 143.499 360.722 139.198C360.722 138.959 360.602 138.72 360.244 138.72C360.005 138.72 359.766 138.839 359.766 139.198C359.408 142.663 358.571 144.216 358.332 144.574C357.854 144.813 356.182 145.65 355.943 146.725C355.704 147.442 355.823 148.039 356.182 148.637C356.421 149.115 356.899 149.473 357.735 149.593Z" fill="#F5898B"/>
<path d="M361.557 152.221C361.557 152.221 355.582 152.341 353.79 151.863C353.79 151.863 357.255 159.868 361.557 152.221Z" fill="white"/>
<path d="M351.878 161.541C354.387 165.006 358.569 167.037 365.976 166.559C366.215 166.559 366.932 166.44 367.171 166.44C368.605 166.32 369.919 165.962 371.234 165.603C370.756 165.245 362.273 157.718 353.55 160.944C352.953 161.183 352.355 161.422 351.878 161.541Z" fill="#F5898B"/>
<path d="M394.286 138.72C394.286 138.72 396.317 139.795 395.361 144.694C394.883 146.725 393.21 147.8 391.179 148.159C390.821 147.561 390.104 147.203 389.148 147.084C387.356 146.845 386.161 147.92 385.563 148.517H385.444C385.444 148.517 383.532 148.637 381.859 145.172C380.545 142.543 383.054 139.078 384.249 137.764C383.413 138.481 381.62 139.437 379.35 137.166C376.124 133.94 377.677 127.608 377.797 127.249C377.438 127.488 371.584 131.79 366.685 130.714C361.547 129.639 361.547 123.784 361.547 123.784C361.547 123.784 358.56 130.356 353.781 130.356C349.121 130.356 343.505 126.174 343.147 120.797C342.788 115.421 347.568 107.535 353.781 107.296C359.994 107.057 361.547 113.15 361.547 113.15C361.547 113.15 366.207 106.937 373.496 108.729C380.784 110.402 379.589 119.602 379.589 119.602C379.589 119.602 386.28 114.584 391.776 118.288C397.034 121.873 391.418 128.683 390.94 129.281C391.298 128.922 395.719 125.218 398.826 129.281C402.171 133.462 394.286 138.72 394.286 138.72Z" fill="#2D1350"/>
<path d="M130.843 34.8891C130.843 34.8891 132.038 23.4187 139.326 27.0032C149.482 31.902 134.189 47.6738 134.189 47.6738C134.189 47.6738 116.147 42.058 121.643 33.3358C125.227 27.8396 130.843 34.8891 130.843 34.8891Z" fill="white" stroke="#F59FD2" stroke-width="1.19483" stroke-miterlimit="10" stroke-linejoin="round"/>
<path d="M366.813 79.4562C366.813 79.4562 373.265 73.96 375.416 79.5757C378.283 87.3421 362.153 88.059 362.153 88.059C362.153 88.059 355.343 75.8718 362.751 73.96C367.41 72.7652 366.813 79.4562 366.813 79.4562Z" fill="white" stroke="#F59FD2" stroke-width="1.19483" stroke-miterlimit="10" stroke-linejoin="round"/>
<path d="M41.7024 119.961C41.7024 122.231 39.7906 124.143 37.5205 124.143C35.2503 124.143 33.3386 122.231 33.3386 119.961C33.3386 117.691 35.2503 115.779 37.5205 115.779C39.7906 115.779 41.7024 117.691 41.7024 119.961Z" stroke="#F5BEFD" stroke-width="1.19483" stroke-miterlimit="10"/>
<path d="M356.306 53.4088C356.306 57.1128 353.319 60.0999 349.615 60.0999C345.911 60.0999 342.924 57.1128 342.924 53.4088C342.924 49.7049 345.911 46.7178 349.615 46.7178C353.319 46.7178 356.306 49.7049 356.306 53.4088Z" fill="white" stroke="#F59FD2" stroke-width="1.19483" stroke-miterlimit="10" stroke-linejoin="round"/>
<path d="M250.667 113.628C255.446 112.553 260.106 115.54 261.181 120.32L266.558 143.977C267.753 148.995 264.766 154.014 259.867 155.089L219.721 164.289L214.105 179.583L209.565 166.321L208.848 166.44C205.502 167.157 202.037 164.887 201.32 161.302L195.346 134.658C194.271 130.117 197.138 125.577 201.798 124.501L250.667 113.628Z" fill="#F59FD2"/>
<path d="M229.639 136.33C229.639 136.33 231.551 124.621 239.915 129.281C251.624 135.733 232.865 151.744 232.865 151.744C232.865 151.744 211.956 144.097 218.886 134.18C223.307 127.728 229.639 136.33 229.639 136.33Z" fill="white"/>
<path d="M105.613 54.7234C109.915 53.6481 114.216 56.2767 115.291 60.5781L120.549 81.9656C121.624 86.5059 119.115 91.1658 114.694 92.1216L78.3712 101.202L73.5918 115.182L69.2905 103.234L68.693 103.353C65.5865 104.07 62.4799 102.158 61.763 98.9322L55.9084 74.7966C54.9525 70.6147 57.4616 66.5523 61.5241 65.4769L105.613 54.7234Z" fill="#F59FD2"/>
<path d="M71.5624 85.6694C73.2781 85.6694 74.6689 84.2786 74.6689 82.5629C74.6689 80.8472 73.2781 79.4563 71.5624 79.4563C69.8467 79.4563 68.4558 80.8472 68.4558 82.5629C68.4558 84.2786 69.8467 85.6694 71.5624 85.6694Z" fill="white"/>
<path d="M92.8245 78.8009C93.0994 77.1074 91.9493 75.5116 90.2557 75.2368C88.5621 74.9619 86.9664 76.112 86.6915 77.8056C86.4167 79.4992 87.5668 81.0949 89.2603 81.3697C90.9539 81.6446 92.5496 80.4945 92.8245 78.8009Z" fill="white"/>
<path d="M106.567 77.1863C108.282 77.1863 109.673 75.7954 109.673 74.0797C109.673 72.364 108.282 70.9731 106.567 70.9731C104.851 70.9731 103.46 72.364 103.46 74.0797C103.46 75.7954 104.851 77.1863 106.567 77.1863Z" fill="white"/>
<path d="M401.574 77.9032C397.87 76.9473 394.166 79.2175 393.33 82.9215L388.79 101.322C387.834 105.265 390.104 109.208 393.808 110.044L424.874 117.811L429.055 129.878L432.759 119.603L433.237 119.722C435.866 120.32 438.495 118.647 439.211 115.899L444.23 95.2282C445.066 91.6438 442.915 88.0593 439.331 87.2229L401.574 77.9032Z" fill="#F59FD2"/>
<path d="M428.214 101.8C428.214 103.234 429.408 104.428 430.842 104.428C432.276 104.428 433.471 103.234 433.471 101.8C433.471 100.366 432.276 99.1711 430.842 99.1711C429.408 99.1711 428.214 100.366 428.214 101.8Z" fill="white"/>
<path d="M412.681 98.0959C412.681 99.5297 413.876 100.725 415.31 100.725C416.744 100.725 417.939 99.5297 417.939 98.0959C417.939 96.6621 416.744 95.4673 415.31 95.4673C413.876 95.4673 412.681 96.6621 412.681 98.0959Z" fill="white"/>
<path d="M398.111 94.5114C398.111 95.9452 399.306 97.1401 400.74 97.1401C402.173 97.1401 403.368 95.9452 403.368 94.5114C403.368 93.0776 402.173 91.8828 400.74 91.8828C399.306 91.8828 398.111 93.0776 398.111 94.5114Z" fill="white"/>
<path d="M293.005 54.5007L240.6 41.9504L233.56 71.3484L285.965 83.8986L293.005 54.5007Z" fill="#F564BA"/>
<path d="M240.514 41.9387L272.177 28.915L292.967 54.4844L240.514 41.9387Z" fill="#F59FD2"/>
<path d="M287.67 50.7385L249.092 41.4998L243.304 65.6688L281.882 74.9076L287.67 50.7385Z" fill="white"/>
<path d="M234.782 66.0743L265.37 54.126L287.116 78.62L285.921 83.8773L233.468 71.3315L234.782 66.0743Z" fill="#FFBFE5"/>
<path d="M275.641 65.7158L292.966 54.4844L287.112 78.62L275.641 65.7158Z" fill="#F59FD2"/>
<path d="M250.916 59.7417L240.64 41.9387L234.785 66.0743L250.916 59.7417Z" fill="#F59FD2"/>
<path d="M435.159 398.357C435.159 402.419 431.933 405.645 427.871 405.645C423.808 405.645 420.582 402.419 420.582 398.357C420.582 394.294 423.808 391.068 427.871 391.068C431.933 391.068 435.159 394.414 435.159 398.357Z" stroke="#F5BEFD" stroke-width="1.19483" stroke-miterlimit="10"/>
<path d="M50.0625 369.442C50.0625 372.07 47.9118 374.34 45.1637 374.34C42.535 374.34 40.2649 372.19 40.2649 369.442C40.2649 366.813 42.4156 364.543 45.1637 364.543C47.9118 364.543 50.0625 366.813 50.0625 369.442Z" stroke="#F5BEFD" stroke-width="1.19483" stroke-miterlimit="10"/>
</g>
<defs>
<clipPath id="clip0_1_840">
<rect width="490" height="460.368" fill="white"/>
</clipPath>
</defs>
</svg>
