<svg width="41" height="40" viewBox="0 0 41 40" fill="none" xmlns="http://www.w3.org/2000/svg">
<path d="M20.3157 0C9.22948 0 0.242188 8.98729 0.242188 20.0735C0.242188 29.4871 6.72351 37.3864 15.4667 39.556V26.2079H11.3276V20.0735H15.4667V17.4302C15.4667 10.598 18.5588 7.4312 25.2666 7.4312C26.5384 7.4312 28.7329 7.68091 29.6305 7.92982V13.4902C29.1568 13.4404 28.3338 13.4155 27.3117 13.4155C24.0204 13.4155 22.7486 14.6625 22.7486 17.9039V20.0735H29.3054L28.1788 26.2079H22.7486V40C32.6881 38.7996 40.3899 30.3366 40.3899 20.0735C40.3891 8.98729 31.4018 0 20.3157 0Z" fill="white"/>
</svg>
