<svg width="614" height="470" viewBox="0 0 614 470" fill="none" xmlns="http://www.w3.org/2000/svg">
<path d="M69.3134 365.964L68.3319 365.351L117.773 288.919L60.7255 236.042L61.2163 235.552L132.618 158.261L132.986 158.507L458.465 346.703L457.852 347.807L132.863 159.733L62.4431 235.92L119.368 288.674L69.3134 365.964Z" fill="#B698F9"/>
<path d="M234.819 397.617L234.206 397.494L68.7062 366.21L68.9516 364.983L233.961 396.145L349.528 79.1309L350.633 79.4989L234.819 397.617Z" fill="#B698F9"/>
<path d="M537.961 397.985L456.131 347.194L457.849 346.703L543.85 264.015L482.508 124.524L483.612 124.033L545.322 264.26L544.954 264.628L458.83 347.44L538.574 396.881L537.961 397.985Z" fill="#B698F9"/>
<path d="M483.25 125.014L349.77 79.8669L349.648 79.7442L279.105 7.48368L222.548 59.1334L221.689 58.2746L279.105 5.76611L350.384 78.7627L482.882 123.542L537.108 48.7053L538.212 49.4414L483.25 125.014Z" fill="#B698F9"/>
<path d="M285.729 6.6249C285.729 10.3054 282.785 13.2498 279.105 13.2498C275.424 13.2498 272.48 10.3054 272.48 6.6249C272.48 2.9444 275.424 0 279.105 0C282.785 0 285.729 2.9444 285.729 6.6249Z" fill="#D2C1FE"/>
<path d="M544.221 49.0731C544.221 52.7536 541.277 55.698 537.596 55.698C533.916 55.698 530.971 52.7536 530.971 49.0731C530.971 45.3926 533.916 42.4482 537.596 42.4482C541.277 42.4482 544.221 45.5153 544.221 49.0731Z" fill="#D2C1FE"/>
<path d="M356.636 79.3764C356.636 83.0569 353.692 86.0013 350.011 86.0013C346.331 86.0013 343.386 83.0569 343.386 79.3764C343.386 75.6959 346.331 72.7515 350.011 72.7515C353.692 72.7515 356.636 75.6959 356.636 79.3764Z" fill="#D2C1FE"/>
<path d="M544.828 397.371C544.828 401.052 541.883 403.996 538.203 403.996C534.522 403.996 531.578 401.052 531.578 397.371C531.578 393.691 534.522 390.747 538.203 390.747C541.883 390.869 544.828 393.814 544.828 397.371Z" fill="#D2C1FE"/>
<path d="M68.207 235.92C68.207 239.601 65.2626 242.545 61.5821 242.545C57.9016 242.545 54.9572 239.601 54.9572 235.92C54.9572 232.24 57.9016 229.295 61.5821 229.295C65.2626 229.418 68.207 232.363 68.207 235.92Z" fill="#D2C1FE"/>
<path d="M76.6982 108.509L75.8849 109.427L132.375 159.443L133.188 158.525L76.6982 108.509Z" fill="#B698F9"/>
<path d="M306.716 470C438.096 470 544.599 463.793 544.599 456.137C544.599 448.48 438.096 442.273 306.716 442.273C175.337 442.273 68.8333 448.48 68.8333 456.137C68.8333 463.793 175.337 470 306.716 470Z" fill="#FBEEFD"/>
<path d="M295.661 312.475C298.974 312.72 302.286 312.843 305.476 312.843C333.203 312.475 358.598 300.574 376.633 281.436C391.6 265.61 401.415 244.754 403.377 221.321C403.377 220.708 403.5 220.094 403.5 219.481C404.359 206.967 402.764 194.821 399.206 183.535C388.41 148.938 359.211 121.947 322.284 115.077C318.971 114.464 315.536 113.973 312.224 113.728C303.881 112.992 295.784 113.36 287.932 114.709C264.623 118.512 243.889 130.413 228.799 147.588C215.304 163.046 206.348 182.921 204.508 205.004C203.526 216.782 204.63 228.314 207.575 239.233C218.248 278.491 252.6 308.917 295.661 312.475Z" fill="#ED51AE"/>
<g opacity="0.7">
<path d="M295.661 312.475C298.974 312.72 302.286 312.843 305.476 312.843C333.203 312.475 358.598 300.574 376.633 281.436C391.6 265.61 401.415 244.754 403.377 221.321C403.377 220.708 403.5 220.094 403.5 219.481C404.359 206.967 402.764 194.821 399.206 183.535C388.41 148.938 359.211 121.947 322.284 115.077C318.971 114.464 315.536 113.973 312.224 113.728C303.881 112.992 295.784 113.36 287.932 114.709C264.623 118.512 243.889 130.413 228.799 147.588C215.304 163.046 206.348 182.921 204.508 205.004C203.526 216.782 204.63 228.314 207.575 239.233C218.248 278.491 252.6 308.917 295.661 312.475Z" fill="white"/>
</g>
<path d="M229.163 237.392C228.795 239.233 226.464 239.969 224.624 240.092C221.802 240.46 218.98 240.828 216.036 241.196C214.686 237.638 210.515 237.638 207.571 238.987C218.244 278.491 252.595 308.917 295.657 312.475C298.97 312.72 302.282 312.843 305.472 312.843C305.472 312.72 305.595 312.72 305.595 312.597C307.067 310.021 304.981 307.69 303.754 305.482C303.509 304.991 301.055 298.857 301.914 298.857C299.338 298.857 296.639 298.612 294.185 297.875C293.94 297.875 293.817 297.753 293.694 297.63C293.449 297.262 294.062 296.771 294.43 296.771C295.657 296.526 296.884 296.403 297.988 296.035C299.092 295.667 300.319 294.931 300.687 293.827C301.178 292.723 300.81 291.373 301.055 290.269C301.423 288.797 302.528 287.693 303.877 287.079C305.104 286.466 306.576 286.22 308.048 285.975C304.981 284.38 307.19 280.945 304.859 278.614C304.122 277.878 303.018 277.019 303.509 276.038C304 275.179 305.595 275.179 305.717 274.198C305.84 273.461 305.104 272.971 304.49 272.725C303.754 272.603 303.018 272.603 302.405 272.235C301.546 271.744 301.301 270.517 301.791 269.658C302.282 268.922 303.264 268.677 304 268.309C304.736 267.941 305.472 266.959 304.981 266.223C304.859 266.1 304.736 265.855 304.49 265.855C303.264 265.119 301.546 265.732 300.319 266.591C299.092 267.45 297.866 268.431 296.271 268.431C295.903 267.818 296.148 267.082 296.761 266.714C297.007 266.591 297.252 266.591 297.375 266.346C297.743 265.978 297.498 265.364 297.252 264.996C296.148 262.911 295.903 260.457 296.516 258.126C299.583 258.126 302.65 258.249 305.595 258.249C305.717 257.513 305.717 257.145 306.453 256.899C304.368 254.445 302.16 252.237 300.319 249.538C300.074 249.17 299.829 248.925 299.46 248.802C299.092 248.679 298.602 248.802 298.234 248.802C296.884 248.679 296.761 246.839 296.884 245.49C296.639 245.122 296.025 245.244 295.78 245.612C295.535 245.98 295.535 246.471 295.167 246.839C294.676 247.33 293.94 247.33 293.326 247.084C291.241 246.226 290.014 243.527 290.995 241.441C291.118 241.196 291.241 240.95 291.486 240.828C291.977 240.582 292.59 240.95 293.204 240.95C295.535 241.318 295.167 238.742 294.676 237.638C293.94 236.043 291.609 234.939 290.014 234.448C288.051 233.957 275.292 231.504 277.377 227.332C277.623 226.964 277.991 226.719 278.359 226.474C279.586 225.983 280.935 226.106 282.285 225.738C283.512 225.37 284.861 224.02 284.248 222.793C284.002 222.302 283.512 221.934 283.266 221.444C282.53 220.094 283.634 218.499 283.144 217.027C282.898 216.414 282.407 215.923 282.039 215.309C281.671 214.696 281.671 213.837 282.285 213.469C282.898 213.101 283.88 213.715 284.493 213.347C285.229 212.978 285.229 211.752 284.493 211.384C283.88 210.893 282.898 211.138 282.162 211.506C281.794 211.752 281.426 211.997 281.058 212.12C280.322 212.242 279.708 211.506 279.34 210.77C278.727 209.789 278.114 208.685 277.5 207.703C276.764 207.703 276.273 208.317 276.028 209.053C275.783 209.666 275.783 210.402 275.537 211.016C274.188 214.083 269.526 213.715 270.139 217.886C271.366 217.763 272.593 219.113 272.225 220.34C271.734 221.812 269.526 222.67 269.771 224.143C269.894 224.633 270.262 225.124 270.384 225.615C270.63 227.087 268.299 227.701 267.317 227.946C264.005 229.05 263.882 226.964 260.938 226.842C259.588 226.842 258.484 227.701 257.135 227.823C255.908 227.946 254.804 227.455 253.577 227.578C250.264 227.823 251.982 232.24 252.227 234.203C250.51 232.976 248.056 234.448 246.707 235.92C244.498 238.374 244.744 237.883 241.922 238.006C241.186 238.006 240.327 238.374 240.082 239.11C239.591 240.337 240.695 241.564 240.695 242.913C240.695 243.527 240.45 244.14 240.572 244.753C240.695 246.348 242.658 247.084 243.885 248.311C244.866 249.293 245.357 250.888 245.112 252.237C244.253 252.237 243.394 252.237 242.535 252.115C242.045 251.133 241.554 250.152 241.063 249.293C240.572 248.434 240.204 247.575 239.346 246.962C238.855 246.594 238.364 246.471 238.119 245.98C237.505 245.122 237.996 243.895 238.119 242.913C238.487 240.337 237.26 236.043 236.524 233.589C235.91 230.89 234.07 229.909 233.457 227.332C233.334 226.842 232.721 226.719 232.353 226.964C231.985 227.21 231.739 227.578 231.617 228.069C231.371 229.05 231.494 230.154 231.862 231.136C231.249 229.909 228.181 233.221 227.936 233.835C227.568 234.816 228.304 236.288 228.304 237.392C228.181 240.092 227.568 241.564 224.869 239.601C223.765 238.865 222.538 238.006 221.434 238.619C221.679 239.355 221.188 240.092 220.575 240.46C219.962 240.828 219.103 240.828 218.367 240.582C217.876 240.46 217.385 240.337 217.017 239.969C216.895 239.723 216.772 239.478 216.527 239.355C215.79 238.865 214.932 239.723 214.564 240.582" fill="#ED51AE"/>
<path d="M349.635 158.998C350.126 159.857 349.635 160.961 349.022 161.819C348.408 162.678 347.672 163.537 347.918 164.519C349.144 164.641 350.249 164.764 351.475 164.887C351.721 164.887 351.966 164.887 352.089 165.132C352.212 165.255 352.212 165.5 352.212 165.745C352.089 166.481 351.966 167.218 351.966 168.076C351.23 168.69 350.494 166.85 349.513 166.972C349.144 167.095 348.899 167.463 348.654 167.831C346.691 170.898 343.378 168.567 341.538 166.972C339.452 165.132 336.385 165.009 333.686 165.009C332.705 165.009 331.601 165.009 330.865 165.745C330.129 166.481 330.129 167.463 329.761 168.444C329.147 170.039 327.675 171.021 326.816 172.493C323.749 177.646 329.27 181.572 333.809 180.099C336.14 179.363 335.772 178.995 338.226 179.609C339.207 179.854 340.434 179.609 341.17 180.835C341.783 182.062 340.925 183.657 339.453 183.657C338.103 183.657 336.753 183.903 335.527 183.166C336.017 184.761 335.527 186.602 335.404 188.319C333.809 187.951 332.337 189.914 332.95 191.386C333.686 191.386 334.791 191.632 334.668 192.49C334.668 192.736 334.545 192.981 334.422 193.104C333.932 193.84 333.196 194.576 332.705 195.435C331.969 196.662 331.969 200.587 330.129 200.956C329.761 201.078 329.515 200.955 329.147 201.078C328.534 201.324 328.043 202.06 328.288 202.796C328.411 203.532 329.024 204.023 329.761 204.145C330.251 204.268 330.742 204.268 331.11 204.391C333.441 205.249 331.355 207.58 331.969 208.685C332.214 209.298 336.14 211.752 336.631 211.874C335.281 212.856 334.054 214.328 333.932 216.046C333.932 218.008 335.281 218.867 337.122 219.481C339.084 220.094 341.415 220.339 342.765 220.83C343.501 221.076 344.483 221.444 345.096 220.83C345.832 220.217 345.709 218.745 346.568 218.377C346.814 218.254 347.182 218.254 347.55 218.254C349.39 218.131 350.862 216.168 350.494 214.328C350.862 213.715 351.721 213.837 352.457 213.837C353.193 213.837 354.052 213.592 354.175 212.978C354.297 212.12 353.316 211.752 352.457 211.629C351.598 211.629 350.862 211.629 350.003 211.874C349.39 211.997 348.776 212.242 348.163 211.997C347.795 211.752 347.427 211.384 347.182 211.016C346.568 210.034 346.077 208.93 346.2 207.826C346.323 206.722 347.182 205.617 348.286 205.617C348.531 205.617 348.899 205.74 349.144 205.617C349.881 205.495 350.249 204.513 350.249 203.777C350.249 203.041 349.881 202.182 350.126 201.446C350.371 200.71 351.353 200.097 351.844 200.71C352.334 199.729 352.58 198.256 351.598 197.766C351.23 197.643 350.985 197.643 350.617 197.643C348.531 197.398 345.587 194.576 347.918 192.858C349.513 191.754 351.966 194.085 353.316 192C353.929 191.018 353.561 189.546 354.297 188.687C354.665 188.442 355.156 188.933 355.279 189.423C355.524 190.895 355.033 192.613 353.806 193.595C355.033 194.331 356.874 193.472 357.732 194.576C358.591 195.68 357.364 197.643 358.468 198.502C358.714 198.747 359.205 198.87 359.573 198.87C361.536 199.115 365.093 198.87 365.216 201.569C365.216 201.937 365.216 202.305 365.216 202.55C365.461 203.532 366.811 203.655 367.792 203.532C368.283 202.55 367.67 201.446 367.179 200.342C366.688 199.361 366.811 197.766 367.792 197.52C368.528 197.398 369.51 198.011 370.123 197.52C370.369 197.275 370.614 196.907 370.859 196.784C371.596 196.416 372.332 197.643 373.19 197.888C374.417 198.256 375.276 196.662 375.276 195.435C375.276 194.208 374.908 192.736 375.767 191.877C376.012 191.632 376.38 191.386 376.626 191.141C377.484 190.282 377.607 189.055 377.73 187.828C377.975 185.865 385.459 190.895 385.95 190.895C389.63 191.509 391.838 187.951 394.292 185.865C395.641 184.884 397.114 184.148 398.586 183.412C388.28 150.165 360.309 123.91 326.325 115.936C324.853 115.568 323.258 115.2 321.663 115.077C322.154 117.408 323.504 121.089 322.031 123.297C320.069 126.119 315.897 123.665 314.302 126.977C314.302 127.836 315.652 127.714 316.265 128.204C316.633 128.45 316.756 129.063 316.879 129.431C317.001 129.922 317.492 130.29 317.86 130.167C318.351 130.903 317.615 131.885 316.879 132.498C316.02 133.234 315.284 134.093 315.038 135.197C314.425 137.406 315.897 139.614 316.756 141.699C317.492 143.417 317.983 145.257 318.351 147.098C318.351 146.239 319.578 145.871 320.437 146.239C321.173 146.607 321.663 147.466 322.277 148.079C323.381 149.06 324.731 148.447 325.835 149.306C327.307 150.41 328.166 152.373 330.006 152.618C332.214 152.986 333.686 150.655 334.668 148.692C336.999 149.919 338.471 152.986 341.17 153.109C342.152 153.232 343.256 152.741 344.114 152.373C346.077 151.637 348.04 150.778 350.003 150.042C350.862 149.674 351.721 149.428 352.58 149.674C353.561 150.042 354.052 151.023 354.42 152.005C354.788 152.986 355.279 154.09 355.647 155.072C355.769 155.44 356.015 155.931 355.892 156.421C355.769 156.912 355.401 157.28 354.911 157.526C352.702 158.998 349.881 159.489 347.304 159.12C347.55 162.678 348.286 166.236 349.39 169.549C347.427 169.058 345.096 169.671 343.256 168.935" fill="#ED51AE"/>
<path d="M326.815 239.969C326.079 240.828 324.974 241.564 323.748 241.564C323.011 241.564 322.398 241.319 321.662 241.196C320.926 241.073 320.067 241.196 319.699 241.809C319.208 242.545 319.699 243.527 320.19 244.386C320.558 244.999 321.048 245.735 321.785 245.858C322.275 245.98 322.889 245.858 323.379 245.98C324.484 246.103 325.097 247.207 325.833 247.943C326.569 248.802 327.673 249.538 328.655 248.925C329.268 248.557 329.514 247.821 330.127 247.453C331.599 246.471 333.44 248.557 334.666 247.821C336.261 246.962 335.648 244.386 335.034 242.913C334.421 241.441 333.071 240.337 331.845 239.233C328.778 236.043 329.268 237.147 326.815 239.969Z" fill="#ED51AE"/>
<path d="M376.628 281.313C392.331 265.732 401.533 243.159 403.25 221.321C403.25 220.708 403.373 220.094 403.373 219.481C400.306 216.414 394.294 214.328 392.699 219.971C392.086 219.971 391.963 219.603 391.473 219.235C390.737 218.745 389.632 219.481 389.264 220.217C387.915 222.916 387.669 226.351 383.989 225.615C379.45 224.756 382.517 222.793 381.045 220.339C380.799 219.971 380.431 219.726 380.186 219.481C379.082 218.377 379.204 216.659 379.45 215.187C380.308 215.678 381.535 215.187 381.781 214.205C381.903 213.837 381.903 213.469 382.149 213.224C382.639 212.61 383.744 213.224 383.989 213.96C384.234 214.696 383.989 215.555 384.234 216.291C384.357 217.027 385.216 217.763 385.952 217.395C386.197 217.272 386.32 216.904 386.443 216.536C386.811 215.187 386.565 213.715 385.707 212.61C386.443 212.365 387.056 211.629 386.933 210.893C386.933 210.157 386.32 209.421 385.584 209.298C384.48 209.053 382.885 209.666 382.517 208.685C382.639 209.543 382.271 210.525 381.535 211.138C378.591 213.224 372.089 211.384 372.825 217.518C372.947 218.499 373.316 219.481 373.193 220.462C373.193 221.444 372.579 222.548 371.598 222.793C373.316 224.265 372.702 227.455 374.542 228.682C375.401 229.295 376.751 229.173 377.487 228.314C377.609 228.191 377.732 228.069 377.855 227.946C378.223 227.823 378.468 228.191 378.836 228.191C379.45 228.314 379.94 227.7 380.554 227.7C381.413 227.7 381.903 228.682 382.026 229.541C382.149 230.4 382.394 231.504 383.253 231.626C383.498 231.749 383.866 231.626 384.112 231.749C384.725 231.872 385.093 232.485 385.093 233.099C385.093 233.712 384.848 234.325 384.725 234.816C384.357 235.184 383.744 234.939 383.376 234.571C383.007 234.203 382.762 233.712 382.394 233.344C382.149 233.221 376.996 233.589 377.119 233.221C376.383 235.061 375.892 238.987 373.315 237.883C372.334 237.515 371.353 236.902 370.371 237.147C370.862 235.92 371.23 234.571 371.721 233.344C371.353 232.976 370.739 233.467 370.494 233.957C370.371 234.448 370.248 235.061 369.88 235.43C369.635 235.675 369.144 235.675 368.776 235.675C367.549 235.675 366.323 235.675 365.218 235.552C363.869 235.552 362.397 235.552 361.538 236.656C360.556 237.761 361.17 239.601 362.151 240.705C362.397 240.95 362.642 241.318 362.642 241.564C362.642 241.932 362.397 242.177 362.151 242.3C360.925 243.527 360.066 245.244 360.434 246.839C360.679 248.557 362.274 250.029 363.992 249.906C364.605 249.906 365.464 249.661 365.832 250.152C366.077 250.52 366.077 251.01 366.445 251.133C366.936 251.378 367.304 250.765 367.549 250.397C368.163 249.783 369.144 249.538 369.88 250.029C370.248 250.274 371.475 253.955 371.107 254.445C370.371 255.672 366.936 255.182 365.586 255.304C365.096 255.304 364.482 255.427 364.114 255.795C363.624 256.408 363.992 257.39 364.605 257.881C365.218 258.371 365.955 258.862 366.323 259.598C366.445 260.089 366.445 260.58 366.445 260.948C366.445 261.929 366.323 262.911 365.586 263.524C365.218 263.769 364.85 264.015 364.482 264.26C363.746 264.874 363.624 266.1 363.869 267.082C364.114 268.063 364.605 268.922 364.85 269.904C365.218 271.989 364.114 274.32 364.973 276.283C365.341 277.265 366.691 278.001 367.427 277.387C368.163 276.774 368.163 275.424 369.022 275.302C369.88 275.179 370.985 277.387 371.598 277.755C372.211 278.123 373.316 277.51 374.297 278.246C375.524 279.228 375.646 280.577 376.628 281.313Z" fill="#ED51AE"/>
<path d="M243.386 148.447C244.245 147.343 244.859 145.994 246.454 145.748C248.662 145.38 249.521 146.607 248.539 148.815C248.417 149.061 248.417 149.183 248.417 149.429C248.539 150.042 249.521 149.674 250.134 149.306C251.484 148.447 253.078 148.447 254.428 149.061C254.796 149.183 255.409 143.049 255.041 142.313C253.937 139.859 248.662 140.964 249.766 138.265C251.729 138.265 253.692 138.51 255.655 138.633C255.777 137.651 255.9 136.792 256.023 135.811C255.9 136.547 259.581 136.424 259.949 136.179C261.544 135.32 261.176 132.498 263.997 132.866C267.678 133.48 267.8 140.596 263.752 139.491C262.77 141.577 262.402 144.153 262.28 146.484C261.544 146.484 260.808 146.484 260.071 146.484C259.703 146.975 259.581 147.711 259.826 148.325C261.666 149.551 264.243 149.674 266.083 148.325C267.31 149.183 268.905 148.325 270.131 147.466C271.849 150.165 276.756 149.797 277.983 146.852C279.21 143.908 276.143 140.105 272.953 140.841C272.953 139.369 272.34 137.897 271.358 136.67C275.284 136.792 279.087 134.093 280.314 130.413C280.928 128.573 281.05 126.242 282.645 125.137C283.381 124.647 284.24 124.401 284.976 123.911C286.571 122.806 287.062 120.721 287.307 118.758C287.43 117.408 287.552 116.182 287.675 114.832C264.365 118.635 243.632 130.536 228.542 147.711C228.419 148.447 228.419 149.061 228.664 149.797C229.155 150.901 230.505 151.392 231.732 151.76C236.516 152.987 239.583 152.741 242.896 149.061C243.264 148.57 243.386 148.57 243.386 148.447Z" fill="#ED51AE"/>
<g opacity="0.4">
<path d="M229.163 237.392C228.795 239.233 226.464 239.969 224.624 240.092C221.802 240.46 218.98 240.828 216.036 241.196C214.686 237.638 210.515 237.638 207.571 238.987C218.244 278.491 252.595 308.917 295.657 312.475C298.97 312.72 302.282 312.843 305.472 312.843C305.472 312.72 305.595 312.72 305.595 312.597C307.067 310.021 304.981 307.69 303.754 305.482C303.509 304.991 301.055 298.857 301.914 298.857C299.338 298.857 296.639 298.612 294.185 297.875C293.94 297.875 293.817 297.753 293.694 297.63C293.449 297.262 294.062 296.771 294.43 296.771C295.657 296.526 296.884 296.403 297.988 296.035C299.092 295.667 300.319 294.931 300.687 293.827C301.178 292.723 300.81 291.373 301.055 290.269C301.423 288.797 302.528 287.693 303.877 287.079C305.104 286.466 306.576 286.22 308.048 285.975C304.981 284.38 307.19 280.945 304.859 278.614C304.122 277.878 303.018 277.019 303.509 276.038C304 275.179 305.595 275.179 305.717 274.198C305.84 273.461 305.104 272.971 304.49 272.725C303.754 272.603 303.018 272.603 302.405 272.235C301.546 271.744 301.301 270.517 301.791 269.658C302.282 268.922 303.264 268.677 304 268.309C304.736 267.941 305.472 266.959 304.981 266.223C304.859 266.1 304.736 265.855 304.49 265.855C303.264 265.119 301.546 265.732 300.319 266.591C299.092 267.45 297.866 268.431 296.271 268.431C295.903 267.818 296.148 267.082 296.761 266.714C297.007 266.591 297.252 266.591 297.375 266.346C297.743 265.978 297.498 265.364 297.252 264.996C296.148 262.911 295.903 260.457 296.516 258.126C299.583 258.126 302.65 258.249 305.595 258.249C305.717 257.513 305.717 257.145 306.453 256.899C304.368 254.445 302.16 252.237 300.319 249.538C300.074 249.17 299.829 248.925 299.46 248.802C299.092 248.679 298.602 248.802 298.234 248.802C296.884 248.679 296.761 246.839 296.884 245.49C296.639 245.122 296.025 245.244 295.78 245.612C295.535 245.98 295.535 246.471 295.167 246.839C294.676 247.33 293.94 247.33 293.326 247.084C291.241 246.226 290.014 243.527 290.995 241.441C291.118 241.196 291.241 240.95 291.486 240.828C291.977 240.582 292.59 240.95 293.204 240.95C295.535 241.318 295.167 238.742 294.676 237.638C293.94 236.043 291.609 234.939 290.014 234.448C288.051 233.957 275.292 231.504 277.377 227.332C277.623 226.964 277.991 226.719 278.359 226.474C279.586 225.983 280.935 226.106 282.285 225.738C283.512 225.37 284.861 224.02 284.248 222.793C284.002 222.302 283.512 221.934 283.266 221.444C282.53 220.094 283.634 218.499 283.144 217.027C282.898 216.414 282.407 215.923 282.039 215.309C281.671 214.696 281.671 213.837 282.285 213.469C282.898 213.101 283.88 213.715 284.493 213.347C285.229 212.978 285.229 211.752 284.493 211.384C283.88 210.893 282.898 211.138 282.162 211.506C281.794 211.752 281.426 211.997 281.058 212.12C280.322 212.242 279.708 211.506 279.34 210.77C278.727 209.789 278.114 208.685 277.5 207.703C276.764 207.703 276.273 208.317 276.028 209.053C275.783 209.666 275.783 210.402 275.537 211.016C274.188 214.083 269.526 213.715 270.139 217.886C271.366 217.763 272.593 219.113 272.225 220.34C271.734 221.812 269.526 222.67 269.771 224.143C269.894 224.633 270.262 225.124 270.384 225.615C270.63 227.087 268.299 227.701 267.317 227.946C264.005 229.05 263.882 226.964 260.938 226.842C259.588 226.842 258.484 227.701 257.135 227.823C255.908 227.946 254.804 227.455 253.577 227.578C250.264 227.823 251.982 232.24 252.227 234.203C250.51 232.976 248.056 234.448 246.707 235.92C244.498 238.374 244.744 237.883 241.922 238.006C241.186 238.006 240.327 238.374 240.082 239.11C239.591 240.337 240.695 241.564 240.695 242.913C240.695 243.527 240.45 244.14 240.572 244.753C240.695 246.348 242.658 247.084 243.885 248.311C244.866 249.293 245.357 250.888 245.112 252.237C244.253 252.237 243.394 252.237 242.535 252.115C242.045 251.133 241.554 250.152 241.063 249.293C240.572 248.434 240.204 247.575 239.346 246.962C238.855 246.594 238.364 246.471 238.119 245.98C237.505 245.122 237.996 243.895 238.119 242.913C238.487 240.337 237.26 236.043 236.524 233.589C235.91 230.89 234.07 229.909 233.457 227.332C233.334 226.842 232.721 226.719 232.353 226.964C231.985 227.21 231.739 227.578 231.617 228.069C231.371 229.05 231.494 230.154 231.862 231.136C231.249 229.909 228.181 233.221 227.936 233.835C227.568 234.816 228.304 236.288 228.304 237.392C228.181 240.092 227.568 241.564 224.869 239.601C223.765 238.865 222.538 238.006 221.434 238.619C221.679 239.355 221.188 240.092 220.575 240.46C219.962 240.828 219.103 240.828 218.367 240.582C217.876 240.46 217.385 240.337 217.017 239.969C216.895 239.723 216.772 239.478 216.527 239.355C215.79 238.865 214.932 239.723 214.564 240.582" fill="white"/>
<path d="M349.635 158.998C350.126 159.857 349.635 160.961 349.022 161.819C348.408 162.678 347.672 163.537 347.918 164.519C349.144 164.641 350.249 164.764 351.475 164.887C351.721 164.887 351.966 164.887 352.089 165.132C352.212 165.255 352.212 165.5 352.212 165.745C352.089 166.481 351.966 167.218 351.966 168.076C351.23 168.69 350.494 166.85 349.513 166.972C349.144 167.095 348.899 167.463 348.654 167.831C346.691 170.898 343.378 168.567 341.538 166.972C339.452 165.132 336.385 165.009 333.686 165.009C332.705 165.009 331.601 165.009 330.865 165.745C330.129 166.481 330.129 167.463 329.761 168.444C329.147 170.039 327.675 171.021 326.816 172.493C323.749 177.646 329.27 181.572 333.809 180.099C336.14 179.363 335.772 178.995 338.226 179.609C339.207 179.854 340.434 179.609 341.17 180.835C341.783 182.062 340.925 183.657 339.453 183.657C338.103 183.657 336.753 183.903 335.527 183.166C336.017 184.761 335.527 186.602 335.404 188.319C333.809 187.951 332.337 189.914 332.95 191.386C333.686 191.386 334.791 191.632 334.668 192.49C334.668 192.736 334.545 192.981 334.422 193.104C333.932 193.84 333.196 194.576 332.705 195.435C331.969 196.662 331.969 200.587 330.129 200.956C329.761 201.078 329.515 200.955 329.147 201.078C328.534 201.324 328.043 202.06 328.288 202.796C328.411 203.532 329.024 204.023 329.761 204.145C330.251 204.268 330.742 204.268 331.11 204.391C333.441 205.249 331.355 207.58 331.969 208.685C332.214 209.298 336.14 211.752 336.631 211.874C335.281 212.856 334.054 214.328 333.932 216.046C333.932 218.008 335.281 218.867 337.122 219.481C339.084 220.094 341.415 220.339 342.765 220.83C343.501 221.076 344.483 221.444 345.096 220.83C345.832 220.217 345.709 218.745 346.568 218.377C346.814 218.254 347.182 218.254 347.55 218.254C349.39 218.131 350.862 216.168 350.494 214.328C350.862 213.715 351.721 213.837 352.457 213.837C353.193 213.837 354.052 213.592 354.175 212.978C354.297 212.12 353.316 211.752 352.457 211.629C351.598 211.629 350.862 211.629 350.003 211.874C349.39 211.997 348.776 212.242 348.163 211.997C347.795 211.752 347.427 211.384 347.182 211.016C346.568 210.034 346.077 208.93 346.2 207.826C346.323 206.722 347.182 205.617 348.286 205.617C348.531 205.617 348.899 205.74 349.144 205.617C349.881 205.495 350.249 204.513 350.249 203.777C350.249 203.041 349.881 202.182 350.126 201.446C350.371 200.71 351.353 200.097 351.844 200.71C352.334 199.729 352.58 198.256 351.598 197.766C351.23 197.643 350.985 197.643 350.617 197.643C348.531 197.398 345.587 194.576 347.918 192.858C349.513 191.754 351.966 194.085 353.316 192C353.929 191.018 353.561 189.546 354.297 188.687C354.665 188.442 355.156 188.933 355.279 189.423C355.524 190.895 355.033 192.613 353.806 193.595C355.033 194.331 356.874 193.472 357.732 194.576C358.591 195.68 357.364 197.643 358.468 198.502C358.714 198.747 359.205 198.87 359.573 198.87C361.536 199.115 365.093 198.87 365.216 201.569C365.216 201.937 365.216 202.305 365.216 202.55C365.461 203.532 366.811 203.655 367.792 203.532C368.283 202.55 367.67 201.446 367.179 200.342C366.688 199.361 366.811 197.766 367.792 197.52C368.528 197.398 369.51 198.011 370.123 197.52C370.369 197.275 370.614 196.907 370.859 196.784C371.596 196.416 372.332 197.643 373.19 197.888C374.417 198.256 375.276 196.662 375.276 195.435C375.276 194.208 374.908 192.736 375.767 191.877C376.012 191.632 376.38 191.386 376.626 191.141C377.484 190.282 377.607 189.055 377.73 187.828C377.975 185.865 385.459 190.895 385.95 190.895C389.63 191.509 391.838 187.951 394.292 185.865C395.641 184.884 397.114 184.148 398.586 183.412C388.28 150.165 360.309 123.91 326.325 115.936C324.853 115.568 323.258 115.2 321.663 115.077C322.154 117.408 323.504 121.089 322.031 123.297C320.069 126.119 315.897 123.665 314.302 126.977C314.302 127.836 315.652 127.714 316.265 128.204C316.633 128.45 316.756 129.063 316.879 129.431C317.001 129.922 317.492 130.29 317.86 130.167C318.351 130.903 317.615 131.885 316.879 132.498C316.02 133.234 315.284 134.093 315.038 135.197C314.425 137.406 315.897 139.614 316.756 141.699C317.492 143.417 317.983 145.257 318.351 147.098C318.351 146.239 319.578 145.871 320.437 146.239C321.173 146.607 321.663 147.466 322.277 148.079C323.381 149.06 324.731 148.447 325.835 149.306C327.307 150.41 328.166 152.373 330.006 152.618C332.214 152.986 333.686 150.655 334.668 148.692C336.999 149.919 338.471 152.986 341.17 153.109C342.152 153.232 343.256 152.741 344.114 152.373C346.077 151.637 348.04 150.778 350.003 150.042C350.862 149.674 351.721 149.428 352.58 149.674C353.561 150.042 354.052 151.023 354.42 152.005C354.788 152.986 355.279 154.09 355.647 155.072C355.769 155.44 356.015 155.931 355.892 156.421C355.769 156.912 355.401 157.28 354.911 157.526C352.702 158.998 349.881 159.489 347.304 159.12C347.55 162.678 348.286 166.236 349.39 169.549C347.427 169.058 345.096 169.671 343.256 168.935" fill="white"/>
<path d="M326.815 239.969C326.079 240.828 324.974 241.564 323.748 241.564C323.011 241.564 322.398 241.319 321.662 241.196C320.926 241.073 320.067 241.196 319.699 241.809C319.208 242.545 319.699 243.527 320.19 244.386C320.558 244.999 321.048 245.735 321.785 245.858C322.275 245.98 322.889 245.858 323.379 245.98C324.484 246.103 325.097 247.207 325.833 247.943C326.569 248.802 327.673 249.538 328.655 248.925C329.268 248.557 329.514 247.821 330.127 247.453C331.599 246.471 333.44 248.557 334.666 247.821C336.261 246.962 335.648 244.386 335.034 242.913C334.421 241.441 333.071 240.337 331.845 239.233C328.778 236.043 329.268 237.147 326.815 239.969Z" fill="white"/>
<path d="M376.628 281.313C392.331 265.732 401.533 243.159 403.25 221.321C403.25 220.708 403.373 220.094 403.373 219.481C400.306 216.414 394.294 214.328 392.699 219.971C392.086 219.971 391.963 219.603 391.473 219.235C390.737 218.745 389.632 219.481 389.264 220.217C387.915 222.916 387.669 226.351 383.989 225.615C379.45 224.756 382.517 222.793 381.045 220.339C380.799 219.971 380.431 219.726 380.186 219.481C379.082 218.377 379.204 216.659 379.45 215.187C380.308 215.678 381.535 215.187 381.781 214.205C381.903 213.837 381.903 213.469 382.149 213.224C382.639 212.61 383.744 213.224 383.989 213.96C384.234 214.696 383.989 215.555 384.234 216.291C384.357 217.027 385.216 217.763 385.952 217.395C386.197 217.272 386.32 216.904 386.443 216.536C386.811 215.187 386.565 213.715 385.707 212.61C386.443 212.365 387.056 211.629 386.933 210.893C386.933 210.157 386.32 209.421 385.584 209.298C384.48 209.053 382.885 209.666 382.517 208.685C382.639 209.543 382.271 210.525 381.535 211.138C378.591 213.224 372.089 211.384 372.825 217.518C372.947 218.499 373.316 219.481 373.193 220.462C373.193 221.444 372.579 222.548 371.598 222.793C373.316 224.265 372.702 227.455 374.542 228.682C375.401 229.295 376.751 229.173 377.487 228.314C377.609 228.191 377.732 228.069 377.855 227.946C378.223 227.823 378.468 228.191 378.836 228.191C379.45 228.314 379.94 227.7 380.554 227.7C381.413 227.7 381.903 228.682 382.026 229.541C382.149 230.4 382.394 231.504 383.253 231.626C383.498 231.749 383.866 231.626 384.112 231.749C384.725 231.872 385.093 232.485 385.093 233.099C385.093 233.712 384.848 234.325 384.725 234.816C384.357 235.184 383.744 234.939 383.376 234.571C383.007 234.203 382.762 233.712 382.394 233.344C382.149 233.221 376.996 233.589 377.119 233.221C376.383 235.061 375.892 238.987 373.315 237.883C372.334 237.515 371.353 236.902 370.371 237.147C370.862 235.92 371.23 234.571 371.721 233.344C371.353 232.976 370.739 233.467 370.494 233.957C370.371 234.448 370.248 235.061 369.88 235.43C369.635 235.675 369.144 235.675 368.776 235.675C367.549 235.675 366.323 235.675 365.218 235.552C363.869 235.552 362.397 235.552 361.538 236.656C360.556 237.761 361.17 239.601 362.151 240.705C362.397 240.95 362.642 241.318 362.642 241.564C362.642 241.932 362.397 242.177 362.151 242.3C360.925 243.527 360.066 245.244 360.434 246.839C360.679 248.557 362.274 250.029 363.992 249.906C364.605 249.906 365.464 249.661 365.832 250.152C366.077 250.52 366.077 251.01 366.445 251.133C366.936 251.378 367.304 250.765 367.549 250.397C368.163 249.783 369.144 249.538 369.88 250.029C370.248 250.274 371.475 253.955 371.107 254.445C370.371 255.672 366.936 255.182 365.586 255.304C365.096 255.304 364.482 255.427 364.114 255.795C363.624 256.408 363.992 257.39 364.605 257.881C365.218 258.371 365.955 258.862 366.323 259.598C366.445 260.089 366.445 260.58 366.445 260.948C366.445 261.929 366.323 262.911 365.586 263.524C365.218 263.769 364.85 264.015 364.482 264.26C363.746 264.874 363.624 266.1 363.869 267.082C364.114 268.063 364.605 268.922 364.85 269.904C365.218 271.989 364.114 274.32 364.973 276.283C365.341 277.265 366.691 278.001 367.427 277.387C368.163 276.774 368.163 275.424 369.022 275.302C369.88 275.179 370.985 277.387 371.598 277.755C372.211 278.123 373.316 277.51 374.297 278.246C375.524 279.228 375.646 280.577 376.628 281.313Z" fill="white"/>
<path d="M243.386 148.447C244.245 147.343 244.859 145.994 246.454 145.748C248.662 145.38 249.521 146.607 248.539 148.815C248.417 149.061 248.417 149.183 248.417 149.429C248.539 150.042 249.521 149.674 250.134 149.306C251.484 148.447 253.078 148.447 254.428 149.061C254.796 149.183 255.409 143.049 255.041 142.313C253.937 139.859 248.662 140.964 249.766 138.265C251.729 138.265 253.692 138.51 255.655 138.633C255.777 137.651 255.9 136.792 256.023 135.811C255.9 136.547 259.581 136.424 259.949 136.179C261.544 135.32 261.176 132.498 263.997 132.866C267.678 133.48 267.8 140.596 263.752 139.491C262.77 141.577 262.402 144.153 262.28 146.484C261.544 146.484 260.808 146.484 260.071 146.484C259.703 146.975 259.581 147.711 259.826 148.325C261.666 149.551 264.243 149.674 266.083 148.325C267.31 149.183 268.905 148.325 270.131 147.466C271.849 150.165 276.756 149.797 277.983 146.852C279.21 143.908 276.143 140.105 272.953 140.841C272.953 139.369 272.34 137.897 271.358 136.67C275.284 136.792 279.087 134.093 280.314 130.413C280.928 128.573 281.05 126.242 282.645 125.137C283.381 124.647 284.24 124.401 284.976 123.911C286.571 122.806 287.062 120.721 287.307 118.758C287.43 117.408 287.552 116.182 287.675 114.832C264.365 118.635 243.632 130.536 228.542 147.711C228.419 148.447 228.419 149.061 228.664 149.797C229.155 150.901 230.505 151.392 231.732 151.76C236.516 152.987 239.583 152.741 242.896 149.061C243.264 148.57 243.386 148.57 243.386 148.447Z" fill="white"/>
</g>
<path d="M61.5998 108.943C61.5998 114.341 64.5442 119.125 68.9608 121.579C71.0464 122.806 73.6227 123.542 76.1991 123.542C79.6342 123.542 82.7013 122.438 85.155 120.475C88.5901 117.776 90.7984 113.605 90.7984 108.943C90.7984 100.845 84.2962 94.3433 76.1991 94.3433C68.2247 94.3433 61.5998 100.968 61.5998 108.943Z" fill="#ED51AE"/>
<path opacity="0.3" d="M78.3919 122.515C85.8827 121.299 90.9697 114.241 89.7539 106.75C88.5382 99.2594 81.4802 94.1724 73.9894 95.3881C66.4986 96.6038 61.4117 103.662 62.6274 111.153C63.8431 118.643 70.9011 123.73 78.3919 122.515Z" fill="white"/>
<path d="M68.0968 108.82C68.2195 110.538 69.8144 110.906 69.8144 110.906C69.8144 110.906 69.4464 111.887 69.8144 112.991C70.1825 114.096 72.5134 114.096 72.5134 114.096C72.5134 114.096 72.7588 114.709 73.4949 114.832C73.4949 114.954 73.6176 114.954 73.6176 114.954C73.7403 115.077 73.863 115.2 73.9856 115.445C74.231 117.653 74.231 119.984 73.1268 121.211C72.1454 121.334 71.2866 121.457 70.3051 121.579C69.8144 121.702 69.4464 121.702 68.9556 121.825C71.0412 123.052 73.6176 123.788 76.1939 123.788C79.6291 123.788 82.6962 122.683 85.1498 120.721C84.7818 120.721 84.291 120.721 83.8003 120.721C83.0642 120.721 82.2054 120.721 81.2239 120.721C79.6291 120.475 78.893 119.739 78.5249 118.758C78.4022 118.267 78.2796 117.776 78.4022 117.285C78.7703 117.163 79.261 117.04 79.6291 116.917C80.7332 116.427 81.592 115.445 82.0827 114.218C82.2054 114.096 82.2054 113.85 82.2054 113.728C82.5735 112.501 82.6962 110.906 82.5735 109.434C82.9415 109.188 83.4323 108.82 83.5549 108.084C83.8003 106.612 82.5735 106.244 82.5735 106.244C82.5735 106.244 84.0457 105.999 84.0457 104.158C84.0457 102.318 82.5735 102.318 82.5735 102.318C82.5735 102.318 83.0642 101.582 82.0827 100.11C81.1013 98.6375 79.6291 99.619 79.6291 99.619C79.6291 99.619 78.5249 97.9014 76.8074 98.2695C74.9671 98.6375 74.5991 99.7417 74.5991 99.7417C74.5991 99.7417 74.5991 98.6375 72.6361 99.2509C70.6732 99.8644 70.9186 102.195 70.9186 102.195C70.9186 102.195 69.569 101.459 68.8329 102.931C68.0968 104.404 69.6917 106.98 69.6917 106.98C69.6917 106.98 67.8515 106.98 68.0968 108.82Z" fill="#ED51AE"/>
<path opacity="0.7" d="M61.5998 108.943C61.5998 114.341 64.5442 119.125 68.9608 121.579C71.0464 122.806 73.6227 123.542 76.1991 123.542C79.6342 123.542 82.7013 122.438 85.155 120.475C88.5901 117.776 90.7984 113.605 90.7984 108.943C90.7984 100.845 84.2962 94.3433 76.1991 94.3433C68.2247 94.3433 61.5998 100.968 61.5998 108.943Z" fill="white"/>
<path d="M68.827 378.601C76.0091 378.601 81.8314 372.778 81.8314 365.596C81.8314 358.414 76.0091 352.592 68.827 352.592C61.6448 352.592 55.8225 358.414 55.8225 365.596C55.8225 372.778 61.6448 378.601 68.827 378.601Z" fill="#ED51AE"/>
<path opacity="0.3" d="M81.1025 365.596C81.1025 368.418 80.121 370.994 78.5262 373.08C76.3179 375.902 72.76 377.865 68.8342 377.865C66.2578 377.865 63.9268 377.129 61.9639 375.779C58.7741 373.571 56.5658 369.89 56.5658 365.719C56.5658 358.971 62.0866 353.451 68.8342 353.451C75.5817 353.451 81.1025 358.849 81.1025 365.596Z" fill="white"/>
<path d="M78.5188 373.203C76.3105 376.025 72.7527 377.987 68.8268 377.987C66.2505 377.987 63.9195 377.251 61.9566 375.902C62.3246 374.92 62.57 374.43 62.57 374.43C64.0422 373.939 65.6371 373.571 67.2319 373.325C67.6 372.957 68.2134 372.712 68.8268 372.589C69.1949 371.608 68.9495 370.504 68.7041 369.768C68.2134 369.4 67.8454 369.032 67.4773 368.541C67.2319 368.418 66.9866 368.173 66.8639 367.927C66.4958 367.805 63.9195 366.578 63.7968 362.284C63.7968 362.161 63.7968 361.916 63.7968 361.793C62.938 361.671 62.2019 361.916 62.6927 363.633C63.6741 366.455 62.6927 367.927 62.6927 367.927C62.6927 367.069 62.57 366.087 62.57 366.087C62.57 369.032 60.9751 369.154 60.9751 369.154C60.9751 369.154 61.9566 368.05 60.4844 364.86C59.0122 361.548 59.3802 357.131 62.2019 357.009C63.6741 356.886 64.7783 357.622 65.3917 358.358C66.9866 356.886 69.4402 356.641 70.9124 357.745C70.9124 357.745 73.4888 357.131 74.2249 357.745C74.3476 357.867 74.2249 358.235 73.9795 358.726C74.5929 359.217 75.2064 359.83 75.4517 360.812C75.8198 362.529 75.329 363.879 74.7156 364.738C75.0837 367.927 74.4703 370.381 71.8939 370.626C71.8939 370.749 71.8939 370.749 71.8939 370.872C71.8939 370.994 71.8939 371.117 71.8939 371.24C71.8939 371.853 72.0166 372.344 72.0166 372.589C72.3846 372.712 72.7527 372.712 73.1207 372.835C75.4517 372.835 78.0281 373.08 78.0281 373.08C78.1508 372.835 78.2734 372.957 78.5188 373.203Z" fill="#ED51AE"/>
<path opacity="0.7" d="M68.827 378.601C76.0091 378.601 81.8314 372.778 81.8314 365.596C81.8314 358.414 76.0091 352.592 68.827 352.592C61.6448 352.592 55.8225 358.414 55.8225 365.596C55.8225 372.778 61.6448 378.601 68.827 378.601Z" fill="white"/>
<path d="M554.719 274.286C560.324 268.681 560.324 259.593 554.719 253.987C549.113 248.382 540.025 248.382 534.419 253.987C528.814 259.593 528.814 268.681 534.419 274.286C540.025 279.892 549.113 279.892 554.719 274.286Z" fill="#ED51AE"/>
<path opacity="0.3" d="M558.096 264.137C558.096 266.958 557.238 269.535 555.888 271.62C553.435 275.301 549.386 277.632 544.601 277.632C541.534 277.632 538.59 276.528 536.382 274.81C533.192 272.357 531.106 268.431 531.106 264.137C531.106 256.653 537.118 250.642 544.601 250.642C552.085 250.642 558.096 256.653 558.096 264.137Z" fill="white"/>
<path d="M555.886 271.621C553.433 275.301 549.384 277.632 544.599 277.632C541.532 277.632 538.588 276.528 536.38 274.81C536.257 273.952 536.38 273.215 536.502 272.602C536.625 271.007 538.588 269.658 538.588 268.431C538.588 267.327 536.625 265.732 537.852 265.118C539.079 264.505 539.324 261.929 538.343 260.456C537.484 259.475 536.87 258.003 538.465 256.04C539.447 254.813 540.796 254.322 542.146 254.077C543.127 253.586 544.354 253.341 546.194 253.463C547.912 253.586 549.139 254.077 550.12 254.813C551.102 255.549 551.838 256.408 552.206 257.389C552.206 257.389 553.678 260.211 552.574 263.278C551.838 265.241 554.905 265.118 555.027 266.836C555.15 268.553 553.678 268.676 553.923 269.903C553.801 270.516 554.905 271.007 555.886 271.621Z" fill="#ED51AE"/>
<path opacity="0.7" d="M554.719 274.286C560.324 268.681 560.324 259.593 554.719 253.987C549.113 248.382 540.025 248.382 534.419 253.987C528.814 259.593 528.814 268.681 534.419 274.286C540.025 279.892 549.113 279.892 554.719 274.286Z" fill="white"/>
<path d="M482.507 121.083L373.097 168.52L373.585 169.646L482.996 122.209L482.507 121.083Z" fill="#F5BEFD"/>
<path d="M222.625 58.366L221.582 59.0117L268.394 134.642L269.437 133.996L222.625 58.366Z" fill="#F5BEFD"/>
<path d="M237.31 259.524L115.906 284.963L116.158 286.164L237.561 260.725L237.31 259.524Z" fill="#F5BEFD"/>
<path opacity="0.8" d="M482.507 121.083L373.097 168.52L373.585 169.646L482.996 122.209L482.507 121.083Z" fill="#F5BEFD"/>
<path d="M387.839 240.121L386.799 240.772L456.621 352.219L457.661 351.568L387.839 240.121Z" fill="#F5BEFD"/>
<path opacity="0.8" d="M387.839 240.121L386.799 240.772L456.621 352.219L457.661 351.568L387.839 240.121Z" fill="#F5BEFD"/>
<path opacity="0.8" d="M222.625 58.366L221.582 59.0117L268.394 134.642L269.437 133.996L222.625 58.366Z" fill="#F5BEFD"/>
<path opacity="0.8" d="M237.31 259.524L115.906 284.963L116.158 286.164L237.561 260.725L237.31 259.524Z" fill="#F5BEFD"/>
<path d="M234.209 397.495L115.329 285.853L132.137 158.753L132.259 158.63L221.818 58.1524H222.064L384.374 35.5786L483.379 121.457V121.825L457.738 352.592L457.248 352.715L234.209 397.495ZM116.679 285.362L234.577 396.268L456.634 351.488L482.152 121.948L384.006 36.9281L222.432 59.2565L133.364 159.243L116.679 285.362Z" fill="#F5BEFD"/>
<path opacity="0.8" d="M234.209 397.495L115.329 285.853L132.137 158.753L132.259 158.63L221.818 58.1524H222.064L384.374 35.5786L483.379 121.457V121.825L457.738 352.592L457.248 352.715L234.209 397.495ZM116.679 285.362L234.577 396.268L456.634 351.488L482.152 121.948L384.006 36.9281L222.432 59.2565L133.364 159.243L116.679 285.362Z" fill="#F5BEFD"/>
<path d="M270.757 134.216L268.917 145.012L267.077 134.216H270.757Z" fill="#F5BEFD"/>
<path d="M274.195 134.216C274.195 137.16 271.864 139.491 268.919 139.491C265.975 139.491 263.644 137.16 263.644 134.216C263.644 131.271 265.975 128.94 268.919 128.94C271.864 128.94 274.195 131.271 274.195 134.216Z" fill="#F5BEFD"/>
<path opacity="0.3" d="M269.405 130.535C270.018 131.271 269.528 132.621 268.301 133.602C267.074 134.461 265.725 134.584 265.111 133.848C264.498 133.112 264.988 131.762 266.215 130.781C267.442 129.799 268.792 129.676 269.405 130.535Z" fill="#F5BEFD"/>
<path d="M375.167 169.181L373.327 179.854L371.487 169.181H375.167Z" fill="#F5BEFD"/>
<path d="M373.329 174.456C376.243 174.456 378.605 172.094 378.605 169.181C378.605 166.267 376.243 163.905 373.329 163.905C370.416 163.905 368.054 166.267 368.054 169.181C368.054 172.094 370.416 174.456 373.329 174.456Z" fill="#F5BEFD"/>
<path opacity="0.3" d="M373.825 165.377C374.438 166.113 373.947 167.463 372.72 168.444C371.494 169.303 370.144 169.426 369.531 168.69C368.917 167.954 369.408 166.604 370.635 165.623C371.862 164.641 373.211 164.641 373.825 165.377Z" fill="#F5BEFD"/>
<path d="M239.226 259.598L237.385 270.272L235.545 259.598H239.226Z" fill="#F5BEFD"/>
<path d="M237.388 264.874C240.301 264.874 242.663 262.512 242.663 259.598C242.663 256.685 240.301 254.323 237.388 254.323C234.474 254.323 232.112 256.685 232.112 259.598C232.112 262.512 234.474 264.874 237.388 264.874Z" fill="#F5BEFD"/>
<path opacity="0.3" d="M237.883 255.795C238.496 256.531 238.006 257.88 236.779 258.862C235.552 259.721 234.203 259.843 233.589 259.107C232.976 258.371 233.466 257.022 234.693 256.04C235.92 255.181 237.27 255.059 237.883 255.795Z" fill="#F5BEFD"/>
<path d="M389.149 240.459L387.308 251.255L385.468 240.459H389.149Z" fill="#F5BEFD"/>
<path d="M392.713 240.459C392.713 243.404 390.382 245.735 387.438 245.735C384.493 245.735 382.162 243.404 382.162 240.459C382.162 237.515 384.493 235.184 387.438 235.184C390.26 235.184 392.713 237.515 392.713 240.459Z" fill="#F5BEFD"/>
<path opacity="0.3" d="M387.923 236.779C388.537 237.515 388.046 238.865 386.819 239.846C385.592 240.705 384.243 240.827 383.63 240.091C383.016 239.355 383.507 238.006 384.734 237.024C385.838 236.043 387.31 235.92 387.923 236.779Z" fill="#F5BEFD"/>
<path d="M523.976 124.278C523.976 133.48 520.909 141.945 515.879 148.815C514.039 151.269 511.953 153.477 509.622 155.44C507.537 157.28 505.328 158.753 502.875 160.102C496.986 163.292 490.238 165.132 483.123 165.132C477.111 165.132 471.345 163.783 466.192 161.452C465.702 161.206 465.211 160.961 464.72 160.715C461.776 159.243 459.077 157.526 456.746 155.44C453.065 152.373 449.998 148.692 447.544 144.521C444.109 138.51 442.146 131.639 442.146 124.278C442.146 101.705 460.426 83.4249 483 83.4249C505.696 83.3022 523.976 101.705 523.976 124.278Z" fill="#ED51AE"/>
<path opacity="0.7" d="M511.151 152.413C526.674 136.89 526.674 111.723 511.151 96.1998C495.628 80.6769 470.46 80.6769 454.937 96.1998C439.414 111.723 439.414 136.89 454.937 152.413C470.46 167.936 495.628 167.936 511.151 152.413Z" fill="white"/>
<path d="M456.745 142.804L460.549 126.855C460.549 126.855 463.002 124.892 463.125 123.542C463.248 122.193 461.653 113.85 460.549 113.237C459.445 112.746 453.31 114.955 452.942 116.672C452.697 118.512 455.151 125.505 455.641 125.996L449.384 144.521L456.745 142.804Z" fill="#E4897B"/>
<path d="M459.815 133.726L457.484 154.582C453.926 151.637 450.859 147.957 448.651 143.908C450.123 138.878 451.473 134.339 452.209 132.376C452.454 131.64 452.577 131.272 452.577 131.272L453.926 131.395L459.447 132.131L460.061 132.253L459.815 133.726Z" fill="#ED51AE"/>
<path d="M470.236 147.098L466.678 160.347C466.188 160.102 465.697 159.979 465.329 159.734C462.507 158.385 459.931 156.667 457.6 154.581C457.845 153.968 465.206 137.528 467.905 137.651L470.236 147.098Z" fill="#F77BAD"/>
<path d="M459.815 133.726L457.484 154.582C453.926 151.637 450.859 147.957 448.651 143.908C450.123 138.878 451.473 134.339 452.209 132.376C452.454 131.64 452.577 131.272 452.577 131.272L453.926 131.395L459.447 132.131L460.061 132.253L459.815 133.726Z" fill="#F77BAD"/>
<path d="M461.528 130.904L460.178 133.725L451.468 132.253L451.713 130.658L461.528 130.904Z" fill="#ED51AE"/>
<path d="M507.172 110.538C506.19 114.464 511.711 125.137 509.503 144.644C507.294 164.151 485.825 162.924 476.255 156.422C466.686 149.919 468.281 114.587 471.593 107.594C474.906 100.846 507.172 110.538 507.172 110.538Z" fill="#263238"/>
<path d="M512.935 142.191C512.69 142.804 512.567 143.295 512.322 143.908C512.077 144.522 511.954 145.013 511.709 145.503C511.341 146.607 510.973 147.589 510.604 148.693C509.868 150.779 509.255 152.619 508.764 154.459C506.801 156.177 504.593 157.772 502.262 158.998C496.619 162.188 489.994 163.906 483.123 163.906C477.235 163.906 471.714 162.679 466.684 160.348C466.193 160.103 465.702 159.98 465.334 159.735C465.334 159.366 465.334 158.998 465.334 158.508C465.334 158.14 465.334 157.772 465.334 157.404C465.334 156.299 465.334 155.195 465.457 154.214C465.457 153.6 465.457 152.864 465.58 152.374C465.58 152.005 465.58 151.76 465.58 151.515C465.58 150.411 465.702 149.429 465.702 148.448C465.702 148.202 465.702 147.834 465.702 147.589C465.702 146.73 465.825 145.994 465.948 145.258C466.438 140.719 467.052 138.878 467.42 138.265C467.543 138.142 467.543 138.02 467.665 137.897C467.788 137.774 467.788 137.774 467.788 137.774C467.788 137.774 468.401 137.774 469.383 137.652C472.082 137.406 477.48 137.038 482.51 137.038C482.633 137.038 482.755 137.038 482.755 137.038C483.369 137.038 484.105 137.038 484.718 137.161C487.295 137.283 489.871 137.529 492.325 137.774C493.306 137.897 494.165 138.02 495.146 138.142C496.128 138.265 497.232 138.51 498.213 138.633C498.336 138.633 498.459 138.633 498.581 138.756C502.385 139.369 506.065 140.228 509.746 141.332C510.85 141.577 511.831 141.823 512.935 142.191Z" fill="#F77BAD"/>
<path d="M489.874 135.933C498.585 136.67 499.689 139.246 498.83 140.595C497.971 141.945 486.071 153.6 482.513 161.329C482.391 161.452 469.509 134.339 489.874 135.933Z" fill="white"/>
<path d="M485.326 144.767C494.036 143.663 496.613 139.982 496.613 139.982C491.092 134.83 495.631 125.751 495.631 125.751L485.203 127.714C485.449 129.431 485.571 130.904 485.571 132.131C485.694 138.51 482.749 138.51 482.749 138.51C481.032 141.945 485.326 144.767 485.326 144.767Z" fill="#E4897B"/>
<path opacity="0.2" d="M485.327 127.714C485.572 129.431 485.695 130.904 485.695 132.131C492.688 132.131 495.755 125.751 495.755 125.751L485.327 127.714Z" fill="black"/>
<path d="M491.102 98.5151C482.023 98.0244 478.833 102.686 477.606 112.01C476.134 123.665 478.22 132.13 489.752 130.167C505.333 127.714 506.069 99.3739 491.102 98.5151Z" fill="#E4897B"/>
<path d="M483.485 111.887C483.485 111.887 482.136 114.218 480.664 115.445C480.664 115.445 481.4 116.672 482.995 116.549L483.485 111.887Z" fill="#DE5753"/>
<path d="M489.133 111.396C489.133 112.132 489.379 112.746 489.869 112.869C490.36 112.869 490.851 112.378 490.851 111.642C490.851 110.906 490.606 110.292 490.115 110.17C489.624 110.047 489.133 110.66 489.133 111.396Z" fill="#263238"/>
<path d="M490.357 110.17L488.762 109.434C488.762 109.434 489.498 110.783 490.357 110.17Z" fill="#263238"/>
<path d="M479.803 110.538C479.803 111.274 480.048 111.887 480.539 112.01C481.03 112.01 481.52 111.519 481.52 110.783C481.52 110.047 481.275 109.434 480.784 109.311C480.416 109.188 479.925 109.802 479.803 110.538Z" fill="#263238"/>
<path d="M481.036 109.311L479.441 108.575C479.441 108.575 480.177 109.925 481.036 109.311Z" fill="#263238"/>
<path d="M493.427 107.103C493.305 107.103 493.182 107.103 493.059 106.98C491.955 105.385 489.624 105.508 489.624 105.508C489.379 105.508 489.133 105.385 489.133 105.14C489.133 104.894 489.256 104.649 489.501 104.649C489.624 104.649 492.323 104.404 493.673 106.367C493.795 106.612 493.795 106.857 493.55 106.98C493.55 107.103 493.427 107.103 493.427 107.103Z" fill="#263238"/>
<path d="M479.312 105.385C479.19 105.385 479.067 105.263 478.944 105.14C478.822 104.895 478.944 104.649 479.067 104.527C481.275 103.177 482.993 103.913 483.115 103.913C483.361 104.036 483.483 104.281 483.361 104.527C483.238 104.772 482.993 104.895 482.87 104.772C482.87 104.772 481.398 104.159 479.558 105.263C479.435 105.385 479.312 105.385 479.312 105.385Z" fill="#263238"/>
<path d="M484.107 120.23C484.598 121.334 484.966 123.42 484.966 123.42C485.211 123.42 485.334 123.42 485.579 123.42C488.278 123.297 489.383 122.316 489.996 121.334C490.241 120.843 490.364 120.23 490.364 119.739C490.364 119.249 490.241 118.758 490.241 118.758C488.892 119.617 486.438 119.985 485.089 120.107C484.475 120.23 484.107 120.23 484.107 120.23Z" fill="#263238"/>
<path d="M485.085 120.23L485.331 121.212C487.784 121.089 489.625 120.721 490.361 119.862C490.361 119.372 490.238 118.881 490.238 118.881C488.766 119.74 486.312 120.108 485.085 120.23Z" fill="white"/>
<path d="M485.584 123.42C488.283 123.297 489.387 122.316 490.001 121.334C489.142 121.457 488.038 121.58 487.056 122.071C486.32 122.439 485.829 122.929 485.584 123.42Z" fill="#DE5753"/>
<path d="M500.174 114.341C500.174 114.341 496.371 106.612 497.352 100.969C497.352 100.969 479.808 92.6262 477.846 110.783C477.846 110.783 476.987 94.4664 492.568 94.9571C508.148 95.4479 506.922 118.267 498.456 124.647C498.456 124.647 502.505 119.126 500.174 114.341Z" fill="#263238"/>
<path d="M498.575 116.181C498.697 114.709 500.415 112.378 503.114 112.746C505.936 113.237 506.917 119.003 499.802 120.107C498.697 120.23 498.207 119.248 498.575 116.181Z" fill="#E4897B"/>
<path d="M494.778 99.9871C494.778 99.9871 493.306 111.151 500.054 121.334C505.206 129.063 499.318 135.811 499.318 135.811C499.318 135.811 508.396 130.045 508.642 121.334C508.642 121.334 516.125 100.601 500.545 94.9571C500.545 94.9571 500.422 90.2951 490.362 91.1539C480.179 92.0127 472.082 100.723 470.487 111.765C468.892 122.806 474.658 135.197 474.658 135.197C474.658 135.197 468.769 96.0613 494.778 99.9871Z" fill="#263238"/>
<path d="M495.398 100.233C494.661 102.809 494.539 105.508 494.661 108.33C494.784 111.029 495.275 113.728 496.011 116.427C496.747 119.126 497.729 121.702 499.078 124.033C500.428 126.487 502.022 128.695 504.231 130.535C502.022 128.818 500.305 126.61 498.833 124.279C497.361 121.825 496.256 119.249 495.52 116.672C494.661 113.973 494.171 111.274 493.925 108.452C493.68 105.631 493.68 102.809 494.416 99.9873L495.398 100.233Z" fill="#263238"/>
<path d="M514.896 148.079C513.179 150.41 511.093 152.619 508.885 154.459C506.922 156.176 504.713 157.771 502.383 158.998C502.505 158.507 502.751 157.894 502.873 157.403C504.468 152.987 507.167 148.938 509.375 146.239C511.216 143.908 512.688 142.436 512.933 142.19C513.792 142.927 514.405 145.135 514.896 148.079Z" fill="#F77BAD"/>
<path d="M382.894 61.0962C395.226 61.0962 405.223 51.0994 405.223 38.7678C405.223 26.4362 395.226 16.4395 382.894 16.4395C370.563 16.4395 360.566 26.4362 360.566 38.7678C360.566 51.0994 370.563 61.0962 382.894 61.0962Z" fill="#ED51AE"/>
<path opacity="0.3" d="M403.996 38.7676C403.996 44.2884 401.911 49.3184 398.353 53.1216C394.55 57.2928 389.029 59.8692 382.895 59.8692C376.392 59.8692 370.504 56.9248 366.7 52.2628C363.633 48.5823 361.916 43.9203 361.916 38.8903C361.916 27.2354 371.362 17.7888 383.017 17.7888C394.55 17.6661 403.996 27.1127 403.996 38.7676Z" fill="white"/>
<path d="M398.351 52.999C394.547 57.1703 389.027 59.7466 382.893 59.7466C376.39 59.7466 370.502 56.8022 366.698 52.1402C366.821 52.1402 366.944 52.0176 367.066 52.0176C367.312 51.6495 367.68 51.2815 368.048 50.9134V50.7907L368.416 50.668C369.029 50.3 369.765 50.0546 370.747 50.0546C370.992 50.0546 371.238 50.0546 371.483 50.0546L372.833 49.8092C372.833 49.8092 372.833 49.9319 372.833 50.1773C374.55 50.3 377.004 50.4227 379.948 50.668C380.562 50.1773 381.052 49.5639 381.298 48.8278C381.543 48.0917 381.543 47.2329 381.543 46.3741C380.562 46.3741 379.457 46.0061 378.599 45.638C377.004 44.7792 375.654 43.307 374.918 41.4668C374.795 41.2214 374.795 40.976 374.673 40.7307C374.182 38.5224 373.937 35.4553 374.55 32.7563C374.427 32.7563 374.427 32.7563 374.305 32.7563C374.182 32.7563 374.059 32.6336 374.059 32.5109C374.059 32.3882 374.182 32.2655 374.305 32.2655C374.305 32.2655 374.305 32.2655 374.427 32.2655C374.305 30.548 374.55 28.7077 374.795 27.4809C374.059 26.254 374.059 23.6777 374.795 22.6962C375.532 21.5921 374.918 22.2055 377.004 21.9601C379.089 21.8374 377.863 19.9972 379.089 19.8745C380.439 19.8745 380.194 20.7333 381.788 21.3467C383.383 21.9601 382.77 20.1199 384.61 19.9972C386.45 19.8745 386.696 21.224 388.045 21.5921C389.395 21.9601 389.64 21.5921 390.622 21.5921C391.603 21.5921 391.726 24.4138 392.094 24.9045C392.462 25.3953 393.198 24.6592 394.057 26.1314C394.179 26.3767 394.179 26.4994 394.179 26.8675C394.179 28.7077 391.848 32.2655 391.848 32.2655C391.726 33.1243 391.603 33.9831 391.358 34.8419C392.094 35.4553 392.216 36.5594 391.726 37.6636C391.235 38.5224 390.499 39.3812 389.64 39.8719C389.149 40.8534 388.781 41.5895 388.291 42.2029C387.677 45.3927 387.432 49.1958 388.536 51.6495C392.216 51.8949 395.774 52.3856 398.351 52.999Z" fill="#ED51AE"/>
<path opacity="0.5" d="M382.894 61.0962C395.226 61.0962 405.223 51.0994 405.223 38.7678C405.223 26.4362 395.226 16.4395 382.894 16.4395C370.563 16.4395 360.566 26.4362 360.566 38.7678C360.566 51.0994 370.563 61.0962 382.894 61.0962Z" fill="white"/>
<path d="M250.1 410.739C258.82 402.019 258.82 387.881 250.1 379.162C241.38 370.442 227.243 370.442 218.523 379.162C209.804 387.881 209.804 402.019 218.523 410.739C227.243 419.458 241.38 419.458 250.1 410.739Z" fill="#ED51AE"/>
<path opacity="0.2" d="M255.427 394.917C255.427 400.929 252.851 406.327 248.802 410.253C244.999 413.811 239.969 416.019 234.325 416.019C229.909 416.019 225.86 414.669 222.425 412.338C216.904 408.535 213.346 402.156 213.346 395.04C213.346 383.385 222.793 373.938 234.448 373.938C245.98 373.938 255.427 383.262 255.427 394.917Z" fill="white"/>
<path d="M248.799 410.253C244.996 413.811 239.966 416.019 234.323 416.019C229.906 416.019 225.858 414.669 222.423 412.338C223.895 412.093 225.612 411.97 227.207 411.725C228.434 409.026 228.189 404.609 227.453 400.929C226.962 400.193 226.471 399.334 225.98 398.23C224.999 397.616 224.14 396.758 223.649 395.776C223.159 394.549 223.281 393.323 224.14 392.586C223.649 390.746 223.527 389.029 223.404 387.556H223.281C223.281 387.556 221.564 381.054 227.943 378.601C234.323 376.147 240.702 380.441 240.702 380.441C240.702 380.441 242.052 377.864 243.769 378.601C245.119 379.214 244.383 380.932 244.137 381.545C244.26 381.3 244.751 380.686 245.61 380.318C246.714 379.827 248.309 381.177 244.751 384.735C244.383 385.103 244.015 385.348 243.524 385.593C243.769 386.943 243.892 388.661 243.647 390.378C244.26 393.568 244.137 396.88 243.524 399.579C243.401 399.825 243.401 400.193 243.279 400.438C242.543 402.646 240.948 404.241 239.107 405.223C238.003 405.714 236.899 406.082 235.672 406.082C235.672 407.063 235.672 408.045 235.918 408.903C236.163 409.762 236.654 410.498 237.39 410.989C240.702 410.744 243.647 410.621 245.61 410.376C245.61 410.13 245.61 410.008 245.61 410.008L247.082 410.253C247.695 410.13 248.309 410.13 248.799 410.253Z" fill="#ED51AE"/>
<path opacity="0.5" d="M250.1 410.739C258.82 402.019 258.82 387.881 250.1 379.162C241.38 370.442 227.243 370.442 218.523 379.162C209.804 387.881 209.804 402.019 218.523 410.739C227.243 419.458 241.38 419.458 250.1 410.739Z" fill="white"/>
<path d="M154.443 164.125C157.276 152.124 149.845 140.098 137.844 137.264C125.843 134.431 113.816 141.862 110.983 153.863C108.149 165.864 115.58 177.891 127.582 180.724C139.583 183.558 151.609 176.127 154.443 164.125Z" fill="#ED51AE"/>
<path opacity="0.2" d="M153.717 158.997C153.717 164.395 151.632 169.303 148.319 172.983C144.516 177.277 138.873 179.976 132.616 179.976C127.954 179.976 123.66 178.504 120.225 175.927C114.949 172.124 111.514 165.867 111.514 158.874C111.514 147.22 120.961 137.773 132.616 137.773C144.271 137.773 153.717 147.342 153.717 158.997Z" fill="white"/>
<path d="M148.448 172.983C144.645 177.277 139.001 179.976 132.744 179.976C128.082 179.976 123.789 178.504 120.353 175.928L128.696 173.351C128.819 173.474 128.941 173.719 129.187 173.965C129.555 173.842 129.923 173.842 130.291 173.719C130.904 173.597 131.64 173.474 132.254 173.351C132.744 172.492 132.99 171.634 133.113 170.775C132.376 170.775 132.008 170.775 132.008 170.775C132.254 169.916 131.027 168.199 131.027 168.199L130.659 170.53C130.659 170.53 129.8 170.407 129.309 170.039C128.696 169.671 128.082 167.217 128.082 167.217C128.082 167.217 126.61 169.671 126.365 170.161C125.997 170.775 125.261 170.161 125.261 170.161C125.261 170.161 124.647 168.076 125.383 165.868C126.12 163.659 123.911 163.782 123.911 163.782C123.911 163.782 123.911 164.641 123.298 166.113C122.684 167.585 122.684 168.321 122.684 169.18C122.684 170.039 122.807 170.652 122.071 170.652C121.458 170.652 121.335 170.039 121.458 169.18C121.58 168.199 120.599 167.34 121.09 166.604C121.703 165.868 121.212 163.782 121.212 163.782C120.844 165.254 119.249 165.131 119.004 166.236C118.759 167.34 119.74 168.812 119.249 169.303C118.759 169.793 117.9 169.303 117.9 169.303C117.9 169.303 118.636 168.199 118.145 167.462C117.654 166.849 116.918 166.481 117.286 165.131C117.654 163.782 118.268 163.782 118.022 162.31C117.777 160.838 117.164 160.838 118.022 160.347C118.881 159.733 120.108 157.157 120.108 155.93C120.108 154.826 119.617 152.127 121.58 151.146C123.543 150.164 124.034 149.428 123.666 146.974C123.298 144.521 125.261 144.643 127.592 145.134C127.592 145.134 128.819 143.294 129.923 143.539C131.027 143.907 131.886 143.662 132.131 143.048C132.376 142.435 135.443 142.435 135.934 143.048C136.425 143.662 138.02 144.03 139.124 143.662C140.105 143.294 142.804 144.889 142.682 145.993C142.559 147.097 142.559 147.71 144.031 148.447C145.504 149.06 145.749 149.428 146.362 151.882C146.976 154.335 145.994 155.439 147.221 156.421C148.448 157.402 148.325 161.206 148.448 162.432C148.571 163.659 148.448 165.009 148.448 165.009C148.448 165.009 148.448 165.009 148.08 165.131C147.712 165.254 147.466 163.782 147.466 162.8C147.589 161.819 145.381 160.347 145.135 160.224C145.135 160.347 145.626 161.206 145.872 161.819C146.117 162.555 146.24 164.395 146.117 165.622C145.994 166.849 147.466 167.462 147.466 167.462L145.872 168.199C145.872 168.199 144.645 165.622 145.135 164.273C145.504 162.923 144.399 161.819 144.399 161.819V164.273C144.399 164.273 144.031 165.131 143.295 166.358C142.682 167.585 143.786 167.953 143.909 168.567C144.031 169.18 142.559 169.18 142.559 169.18L142.314 167.708L141.823 169.18C141.21 169.548 140.105 169.916 138.756 170.161C138.879 171.266 139.124 172.124 139.369 172.615C139.86 172.615 140.351 172.615 140.842 172.492C141.823 172.492 142.804 172.492 143.909 172.492C145.504 172.861 147.221 172.983 148.448 172.983Z" fill="#ED51AE"/>
<path opacity="0.5" d="M154.443 164.125C157.276 152.124 149.845 140.098 137.844 137.264C125.843 134.431 113.816 141.862 110.983 153.863C108.149 165.864 115.58 177.891 127.582 180.724C139.583 183.558 151.609 176.127 154.443 164.125Z" fill="white"/>
<path d="M220.583 94.2206C241.249 94.2206 258.002 77.4678 258.002 56.8022C258.002 36.1366 241.249 19.3838 220.583 19.3838C199.918 19.3838 183.165 36.1366 183.165 56.8022C183.165 77.4678 199.918 94.2206 220.583 94.2206Z" fill="#A57FF9"/>
<path opacity="0.7" d="M256.766 56.8026C256.766 65.145 253.944 72.7514 249.282 78.8856C248.055 80.6031 246.583 82.198 244.988 83.5475C243.516 84.897 242.044 86.1239 240.326 87.1053C240.204 87.228 240.204 87.228 240.081 87.228C238.732 88.0868 237.505 88.8229 236.032 89.4363C231.371 91.6446 226.095 92.8715 220.574 92.8715C209.533 92.8715 199.596 87.9641 192.971 80.1124C187.573 73.7329 184.26 65.6358 184.26 56.6799C184.26 36.6825 200.577 20.4883 220.452 20.4883C240.572 20.611 256.766 36.9278 256.766 56.8026Z" fill="white"/>
<path d="M229.043 56.8023C229.902 55.0847 230.393 55.8208 232.724 57.5384C235.055 59.3786 235.423 60.9735 235.423 62.8138C235.423 64.654 235.055 68.4572 235.055 68.4572L241.066 75.2048L238.367 79.2533L231.374 71.4016C231.374 71.4016 227.939 68.8253 227.326 65.8809C226.712 63.0591 229.043 56.8023 229.043 56.8023Z" fill="#EBB376"/>
<path d="M228.189 54.8389L233.096 63.6721C233.342 64.0401 233.219 64.5309 232.974 64.8989L229.171 69.3155C228.68 69.9289 227.821 69.8062 227.453 69.1928L223.036 61.9545L228.189 54.8389Z" fill="#263238"/>
<path opacity="0.4" d="M227.941 55.8203L232.235 63.9174L228.187 68.8247L223.77 61.5864L227.941 55.8203Z" fill="#A57FF9"/>
<path d="M240.324 87.2276C240.324 87.473 240.324 87.5957 240.446 87.7184C240.324 87.5957 240.201 87.473 240.201 87.3503C238.851 88.2091 237.625 88.9452 236.152 89.5586C236.52 87.105 236.888 84.774 237.134 82.9337C237.379 81.2162 237.625 79.744 237.87 78.7625C237.993 77.781 238.238 77.1676 238.238 77.0449C238.729 77.1676 239.097 77.2903 239.465 77.413C241.305 78.3944 243.145 80.4801 244.986 83.4245C243.513 84.8967 241.918 86.1235 240.324 87.2276Z" fill="#A57FF9"/>
<path d="M240.454 87.7186C240.331 87.5959 240.208 87.4732 240.208 87.3505C238.859 88.2093 237.632 88.9454 236.16 89.5588C231.498 91.7671 226.222 92.994 220.702 92.994C209.66 92.994 199.723 88.0866 193.098 80.2349C193.711 80.1122 194.325 79.9895 195.061 79.8669C195.061 79.8669 195.184 79.8669 195.306 79.8669C195.429 79.8669 195.552 79.8669 195.674 79.7442C197.269 79.3761 198.987 79.1308 200.704 78.8854C201.44 78.7627 202.177 78.64 202.913 78.5173C203.894 78.3947 204.876 78.272 205.857 78.1493C205.98 78.1493 205.98 78.1493 206.102 78.1493C208.311 77.9039 210.642 77.6586 212.727 77.5359C213.463 77.5359 214.2 77.4132 214.813 77.4132C215.794 77.4132 216.653 77.2905 217.512 77.2905C218.371 77.2905 219.352 77.1678 220.211 77.1678C220.579 77.1678 220.947 77.1678 221.315 77.1678C222.419 77.1678 223.401 77.0451 224.382 77.0451C227.572 76.9225 230.394 76.9225 232.725 77.0451C233.215 77.0451 233.706 77.0451 234.197 77.0451C235.056 77.0451 235.792 77.0451 236.405 77.1678C237.632 77.1678 238.245 77.1678 238.245 77.1678C238.368 77.6586 238.491 78.272 238.736 78.8854C239.35 81.4617 239.963 84.1608 240.454 87.2279C240.331 87.3505 240.331 87.5959 240.454 87.7186Z" fill="#A57FF9"/>
<path opacity="0.2" d="M240.452 87.7184C240.329 87.5957 240.207 87.473 240.207 87.3503C238.857 88.2091 237.63 88.9452 236.158 89.5586C231.496 91.7669 226.221 92.9938 220.7 92.9938C209.658 92.9938 199.721 88.0864 193.096 80.2347C192.851 80.2347 192.483 80.3574 192.237 80.4801C192.483 80.3574 192.851 80.3574 193.096 80.2347C193.71 80.112 194.323 79.9893 195.059 79.8666C195.059 79.8666 195.182 79.8666 195.304 79.8666C195.427 79.8666 195.55 79.8666 195.672 79.744C197.267 79.3759 198.985 79.1305 200.702 78.8852C201.439 78.7625 202.175 78.6398 202.911 78.5171C203.892 78.3944 204.874 78.2718 205.855 78.1491C205.978 78.1491 205.978 78.1491 206.101 78.1491C208.309 77.9037 210.64 77.6583 212.725 77.5357C213.462 77.5357 214.198 77.413 214.811 77.413C215.793 77.413 216.651 77.2903 217.51 77.2903C218.369 77.2903 219.35 77.1676 220.209 77.1676C220.577 77.1676 220.945 77.1676 221.313 77.1676C222.417 77.1676 223.399 77.0449 224.38 77.0449C227.57 77.0449 230.392 77.0449 232.723 77.0449C233.214 77.0449 233.704 77.0449 234.195 77.0449C235.054 77.0449 235.79 77.0449 236.281 77.0449C237.507 77.0449 238.121 77.1676 238.121 77.1676C238.244 77.6583 238.366 78.2718 238.612 78.8852C239.225 81.4615 239.838 84.1606 240.329 87.2276C240.329 87.3503 240.329 87.5957 240.452 87.7184Z" fill="#4C0B84"/>
<path d="M205.609 78.2718C209.535 81.8296 219.349 80.6028 219.349 80.6028C219.349 80.6028 225.483 78.8852 224.134 77.045C220.576 76.4316 218.858 74.8367 218.122 72.6284C217.754 71.4016 217.632 69.9294 217.754 68.5798C217.754 67.8437 217.877 67.1076 218 66.2489L205.977 57.293C207.694 63.0591 209.535 73.9779 205.609 78.2718Z" fill="#EBB376"/>
<path opacity="0.2" d="M208.807 62.9365C209.298 70.1748 215.186 72.1378 218.131 72.6285C217.763 71.4017 217.64 69.9295 217.763 68.58L208.807 62.9365Z" fill="black"/>
<path d="M229.653 39.9943C229.653 39.9943 231.37 51.2812 225.359 55.5751C219.347 59.869 219.347 38.8901 219.347 38.8901L229.653 39.9943Z" fill="#263238"/>
<path d="M208.061 64.5311C211.006 68.7023 215.668 69.8065 219.839 68.457C222.538 67.5982 224.869 65.7579 226.341 63.1816C226.587 62.8135 226.709 62.4455 226.832 62.0774C229.776 55.2072 230.758 43.1842 223.397 38.6449C218.244 35.3325 211.374 36.9273 208.184 42.08C207.203 43.5522 206.712 45.2698 206.467 46.9874C205.608 55.0845 204.626 59.7464 208.061 64.5311Z" fill="#EBB376"/>
<path d="M218.254 51.4044C218.131 52.0179 218.377 52.6313 218.867 52.754C219.358 52.8766 219.726 52.3859 219.849 51.6498C219.972 51.0364 219.726 50.423 219.235 50.3003C218.745 50.3003 218.377 50.6683 218.254 51.4044Z" fill="#263238"/>
<path d="M225.619 52.631C225.496 53.2444 225.741 53.8578 226.232 53.9805C226.6 54.1032 227.091 53.6125 227.213 52.8764C227.336 52.263 227.091 51.6495 226.6 51.5269C226.109 51.5269 225.741 52.0176 225.619 52.631Z" fill="#263238"/>
<path d="M223.165 52.5083C223.656 54.5939 224.269 56.6795 225.374 58.6425C224.392 59.1332 223.165 59.1332 222.184 58.6425L223.165 52.5083Z" fill="#D58745"/>
<path d="M216.29 48.5822C216.413 48.5822 216.536 48.5822 216.658 48.4595C217.394 47.7234 218.376 47.4781 219.357 47.6008C219.603 47.6008 219.725 47.4781 219.848 47.3554C219.848 47.11 219.725 46.9873 219.603 46.8647C218.376 46.6193 217.149 46.9873 216.29 47.8461C216.168 47.9688 216.168 48.2142 216.29 48.3369C216.29 48.5822 216.29 48.5822 216.29 48.5822Z" fill="#263238"/>
<path d="M229.17 50.6679C229.293 50.6679 229.293 50.6679 229.415 50.6679C229.661 50.6679 229.784 50.4226 229.661 50.1772C229.293 48.9504 228.434 47.9689 227.33 47.6009C227.085 47.4782 226.962 47.6009 226.839 47.8462C226.839 48.0916 226.839 48.2143 227.085 48.337C227.943 48.705 228.679 49.4411 228.925 50.4226C228.925 50.5453 229.047 50.5453 229.17 50.6679Z" fill="#263238"/>
<path d="M214.071 38.1543V41.7121C212.844 42.2028 211.985 43.4297 212.353 44.9019C213.089 47.969 210.881 52.3856 208.427 53.9805C208.427 53.9805 208.55 52.6309 207.446 52.8763C206.341 52.999 205.851 59.8693 207.568 63.3044C207.568 63.3044 204.747 59.9919 203.765 52.7536C202.906 46.006 203.397 40.608 204.992 38.1543H214.071Z" fill="#263238"/>
<path d="M201.931 52.9991C202.545 54.9621 203.894 56.5569 205.612 57.5384C207.943 58.7652 209.783 56.8023 209.66 54.226C209.538 51.895 208.065 48.4598 205.489 48.3372C202.667 48.2145 201.195 50.5455 201.931 52.9991Z" fill="#EBB376"/>
<path d="M214.069 41.7121C214.069 41.7121 216.4 44.0431 218.731 42.3255C218.731 42.3255 221.307 44.4112 223.393 42.939C223.393 42.939 224.497 44.9019 226.46 45.1473C228.3 45.3926 228.3 43.4297 228.3 43.4297C228.3 43.4297 231.245 45.1473 232.349 44.2885C233.453 43.4297 231.736 40.2399 231.736 40.2399C231.736 40.2399 233.085 39.5038 232.226 36.9275C231.367 34.3511 227.196 34.9645 227.196 34.9645C227.196 34.9645 227.319 32.5109 224.497 30.0572C221.553 27.6035 219.835 30.6706 219.835 30.6706C219.835 30.6706 217.014 26.8674 213.578 27.3582C210.143 27.8489 210.511 30.3026 210.511 30.3026C210.511 30.3026 206.463 27.8489 204.745 30.3026C202.905 32.7562 204.745 33.9831 204.745 33.9831C204.745 33.9831 200.697 35.3326 200.942 38.0316C201.187 40.7307 203.15 40.3626 203.15 40.3626C203.15 40.3626 202.046 41.7121 204.622 42.8163C207.199 43.9204 209.653 41.2214 209.653 41.2214C209.653 41.2214 208.671 42.8163 210.511 43.7977C212.352 44.9019 214.069 41.7121 214.069 41.7121Z" fill="#263238"/>
<path d="M221.919 61.0963C220.937 61.8324 219.71 63.5499 219.71 63.5499C219.588 63.4273 219.342 63.3046 219.22 63.3046C216.889 61.9551 216.275 60.6055 216.275 59.5014C216.275 58.888 216.521 58.3972 216.643 57.9065C216.889 57.4158 217.134 57.1704 217.134 57.1704C217.87 58.6426 219.956 59.9921 221.06 60.7282C221.673 60.9736 221.919 61.0963 221.919 61.0963Z" fill="#263238"/>
<path d="M221.186 60.6055L220.45 61.3416C218.242 60.1148 216.892 58.888 216.647 57.9065C216.892 57.4158 217.138 57.1704 217.138 57.1704C217.997 58.5199 220.082 59.8694 221.186 60.6055Z" fill="white"/>
<path d="M219.102 63.1821C216.771 61.8326 216.158 60.4831 216.158 59.3789C216.894 59.8696 217.753 60.4831 218.366 61.3418C218.98 62.0779 219.102 62.6914 219.102 63.1821Z" fill="#DE5753"/>
<path d="M219.348 80.4801C219.348 80.4801 205.24 70.9108 200.823 70.42C196.284 69.9293 197.143 75.4501 197.143 75.4501C197.143 75.4501 193.707 75.4501 195.057 79.744C196.406 84.0379 215.545 86.3689 222.538 84.2833C229.654 82.1976 233.825 78.2718 232.598 74.4686C231.371 70.7881 228.181 73.9779 228.181 73.9779C228.181 73.9779 226.341 70.42 223.519 71.2788C220.82 72.0149 219.348 80.4801 219.348 80.4801Z" fill="#A57FF9"/>
<path d="M249.286 78.8851C248.059 80.6027 246.587 82.1976 244.992 83.5471C243.52 84.8966 242.048 86.1234 240.33 87.1049C240.33 87.3503 240.33 87.4729 240.453 87.5956C240.33 87.4729 240.208 87.3503 240.208 87.2276C239.226 86.0007 238.245 84.4059 237.141 82.811C235.914 80.7254 234.687 78.6397 234.196 76.9222C234.073 76.3088 233.951 75.818 233.951 75.45L232.847 73.8551L233.215 73.3644L236.282 69.6839L237.018 68.9478L238.367 70.6653C238.367 70.6653 240.085 70.0519 245.483 74.7139C246.71 76.0634 248.059 77.5356 249.286 78.8851Z" fill="#A57FF9"/>
<path d="M117.043 322.78C136.625 322.78 152.499 306.906 152.499 287.325C152.499 267.743 136.625 251.869 117.043 251.869C97.4616 251.869 81.5876 267.743 81.5876 287.325C81.5876 306.906 97.4616 322.78 117.043 322.78Z" fill="#ED51AE"/>
<path opacity="0.7" d="M151.271 287.324C151.271 295.544 148.449 303.028 143.542 308.917C142.07 310.634 140.475 312.352 138.757 313.824C138.144 314.315 137.653 314.683 137.04 315.173C135.445 316.4 133.605 317.382 131.764 318.363C127.348 320.449 122.44 321.676 117.165 321.676C110.908 321.676 105.019 319.958 99.9894 317.014C98.6399 316.278 97.4131 315.419 96.3089 314.56L96.1863 314.437C94.8367 313.333 93.4872 312.106 92.3831 310.88C86.617 304.745 83.1818 296.648 83.1818 287.57C83.1818 268.676 98.5172 253.341 117.288 253.341C135.936 253.218 151.271 268.554 151.271 287.324Z" fill="white"/>
<path d="M138.76 313.824C138.146 314.315 137.656 314.683 137.042 315.174C135.447 316.4 133.607 317.382 131.767 318.363C127.35 320.449 122.443 321.676 117.167 321.676C110.911 321.676 105.022 319.958 99.9918 317.014C98.6422 316.278 97.4154 315.419 96.3113 314.56L96.1886 314.437C96.1886 314.315 96.1886 314.315 96.1886 314.192C96.434 313.088 96.802 311.984 97.0474 310.757C97.4154 309.162 97.7835 307.444 98.0288 305.727C98.7649 301.188 99.2557 296.28 99.0103 291.25C98.3969 273.093 101.709 266.468 109.07 262.91C109.438 262.788 109.684 262.542 110.052 262.42C111.769 261.684 113.61 261.561 115.327 261.806C121.707 262.665 127.105 268.554 127.105 268.554C127.105 268.554 128.332 270.271 130.049 273.461C132.994 279.227 137.41 290.023 138.514 304.623C138.76 307.444 138.76 310.512 138.76 313.824Z" fill="#263238"/>
<path d="M138.514 304.5C137.164 303.519 135.938 302.783 134.956 302.66C134.956 302.66 127.718 301.924 121.461 302.047C120.725 302.047 120.111 302.047 119.375 302.169C116.186 302.292 112.996 302.66 109.806 303.151C108.824 303.273 107.966 303.396 106.984 303.641C103.917 304.132 100.85 304.868 97.9057 305.604C96.4335 305.972 95.084 306.463 93.6118 306.831C93.121 307.445 92.6303 308.917 92.1396 310.757C93.3664 312.107 94.5932 313.211 95.9427 314.315L96.0654 314.438C97.2923 315.419 98.5191 316.155 99.7459 316.891C104.776 319.836 110.665 321.553 116.922 321.553C122.197 321.553 127.104 320.326 131.521 318.241C133.361 317.382 135.201 316.278 136.796 315.051C137.41 314.56 138.023 314.192 138.514 313.701C140.231 312.229 141.949 310.634 143.299 308.794C141.949 307.199 140.109 305.604 138.514 304.5Z" fill="#ED51AE"/>
<path opacity="0.2" d="M138.514 304.5C137.164 303.519 135.938 302.783 134.956 302.66C134.956 302.66 127.718 301.924 121.461 302.047C120.725 302.047 120.111 302.047 119.375 302.169C116.186 302.292 112.996 302.66 109.806 303.151C108.824 303.273 107.966 303.396 106.984 303.641C103.917 304.132 100.85 304.868 97.9057 305.604C96.4335 305.972 95.084 306.463 93.6118 306.831C93.121 307.445 92.6303 308.917 92.1396 310.757C93.3664 312.107 94.5932 313.211 95.9427 314.315L96.0654 314.438C97.2923 315.419 98.5191 316.155 99.7459 316.891C104.776 319.836 110.665 321.553 116.922 321.553C122.197 321.553 127.104 320.326 131.521 318.241C133.361 317.382 135.201 316.278 136.796 315.051C137.41 314.56 138.023 314.192 138.514 313.701C140.231 312.229 141.949 310.634 143.299 308.794C141.949 307.199 140.109 305.604 138.514 304.5Z" fill="white"/>
<path d="M118.749 309.04C110.774 308.058 108.443 304.623 108.443 304.623C111.633 301.556 111.142 297.017 110.283 294.195C109.793 292.6 109.302 291.619 109.302 291.619L118.871 293.459C118.626 295.054 118.503 296.403 118.503 297.507C118.503 298.734 118.626 299.716 118.749 300.452C119.362 303.274 121.08 303.396 121.08 303.396C122.674 306.463 118.749 309.04 118.749 309.04Z" fill="#EEC1BB"/>
<path opacity="0.2" d="M118.515 297.507C118.515 298.734 118.638 299.716 118.76 300.452C114.957 299.961 112.135 296.894 110.295 294.318C109.804 292.723 109.314 291.741 109.314 291.741L118.883 293.581C118.638 295.054 118.515 296.28 118.515 297.507Z" fill="black"/>
<path d="M116.922 266.959C125.265 267.327 127.718 271.866 128.086 280.454C128.454 291.25 125.755 298.734 115.45 296.035C101.464 292.354 103.059 266.468 116.922 266.959Z" fill="#EEC1BB"/>
<path d="M122.68 279.718C122.68 279.718 123.784 281.927 125.011 283.276C125.011 283.276 124.275 284.38 122.802 284.135L122.68 279.718Z" fill="#D4827D"/>
<path d="M114.098 274.688C113.976 274.688 113.853 274.688 113.853 274.565C113.73 274.443 113.608 274.075 113.853 273.952C115.325 272.234 117.779 272.725 117.902 272.725C118.147 272.725 118.27 272.97 118.27 273.216C118.27 273.461 118.024 273.584 117.779 273.584C117.779 273.584 115.693 273.216 114.466 274.565C114.344 274.565 114.221 274.688 114.098 274.688Z" fill="#263238"/>
<path d="M127.103 274.197C126.98 274.197 126.98 274.197 126.857 274.074C125.263 272.97 124.036 273.338 123.913 273.338C123.668 273.461 123.422 273.338 123.422 273.093C123.3 272.848 123.422 272.602 123.668 272.602C123.79 272.602 125.385 272.111 127.348 273.461C127.594 273.584 127.594 273.829 127.471 274.074C127.348 274.197 127.225 274.197 127.103 274.197Z" fill="#263238"/>
<path d="M121.333 287.324C120.843 288.306 120.229 290.146 120.229 290.146C120.106 290.146 119.861 290.146 119.738 290.023C117.285 289.655 116.303 288.796 115.935 287.815C115.69 287.324 115.69 286.711 115.69 286.343C115.69 285.852 115.935 285.484 115.935 285.484C117.162 286.465 119.37 286.956 120.475 287.079C121.088 287.324 121.333 287.324 121.333 287.324Z" fill="#263238"/>
<path d="M120.602 287.202L120.234 288.061C117.903 287.693 116.43 287.202 115.817 286.466C115.817 285.975 116.062 285.607 116.062 285.607C117.167 286.588 119.375 287.079 120.602 287.202Z" fill="white"/>
<path d="M119.747 290.146C117.294 289.778 116.312 288.919 115.944 287.938C116.803 288.06 117.784 288.306 118.521 288.796C119.257 289.164 119.625 289.655 119.747 290.146Z" fill="#DE5753"/>
<path d="M107.34 280.577C107.34 280.577 111.511 273.829 111.143 268.554C111.143 268.554 127.828 262.42 128.073 279.227C128.073 279.227 130.282 264.383 115.928 263.524C101.697 262.665 100.96 283.521 108.076 290.146C107.953 290.146 104.764 284.748 107.34 280.577Z" fill="#263238"/>
<path d="M108.576 282.417C108.576 281.067 107.226 278.736 104.772 278.982C102.196 279.227 100.724 284.38 107.103 285.975C108.085 286.097 108.576 285.239 108.576 282.417Z" fill="#EEC1BB"/>
<path d="M112.259 261.438C116.799 260.211 128.699 259.966 131.521 272.48L129.803 273.339C129.803 273.339 125.755 271.13 120.847 270.64C120.847 270.64 119.866 268.799 118.516 267.327C118.516 267.327 118.639 269.29 118.516 270.517C118.516 270.517 110.664 271.621 107.229 274.811C101.709 279.841 101.341 283.031 101.341 283.031C101.341 283.031 97.5374 265.487 112.259 261.438Z" fill="#263238"/>
<path d="M132.75 272.357C132.627 272.357 132.505 272.234 132.505 272.112C131.033 267.818 128.702 264.873 125.266 263.156C119.132 260.089 111.771 262.542 111.771 262.665C111.649 262.665 111.403 262.665 111.403 262.42C111.403 262.297 111.403 262.052 111.649 262.052C111.771 262.052 119.255 259.475 125.634 262.665C129.192 264.383 131.646 267.572 133.118 271.989C133.118 272.112 132.995 272.234 132.75 272.357Z" fill="#263238"/>
<path d="M115.325 278.859C115.325 278.859 117.288 277.264 118.147 279.473C118.147 279.473 116.797 278.736 115.325 278.859Z" fill="#263238"/>
<path d="M124.518 280.086C124.518 280.086 125.623 277.878 126.972 279.473C127.095 279.473 125.377 279.473 124.518 280.086Z" fill="#263238"/>
<path d="M489.749 379.196C506.901 362.044 506.901 334.235 489.749 317.083C472.597 299.931 444.788 299.931 427.636 317.083C410.484 334.235 410.484 362.044 427.636 379.196C444.788 396.348 472.597 396.348 489.749 379.196Z" fill="#A57FF9"/>
<path opacity="0.7" d="M501.288 348.175C501.288 355.046 499.693 361.548 496.749 367.314C496.135 368.418 495.522 369.522 494.909 370.626C494.418 371.485 493.804 372.344 493.191 373.08C490.737 376.515 487.67 379.582 484.235 382.159C483.499 382.772 482.64 383.263 481.904 383.876C478.592 386.084 475.034 387.679 471.231 388.906C467.305 390.133 463.011 390.746 458.717 390.746C452.46 390.746 446.449 389.397 441.051 386.943C440.314 386.575 439.701 386.33 438.965 385.962C435.162 383.999 431.604 381.422 428.66 378.355C425.715 375.411 423.139 372.099 421.176 368.418C420.562 367.314 420.072 366.21 419.581 365.228C417.25 359.953 416.023 354.187 416.023 348.175C416.023 324.62 435.162 305.481 458.717 305.481C482.149 305.481 501.288 324.62 501.288 348.175Z" fill="white"/>
<path d="M437.373 346.458C436.76 347.562 434.674 349.648 434.674 349.648L430.994 367.069L428.54 378.478C425.595 375.534 423.019 372.221 421.056 368.541C421.302 367.559 421.67 366.701 422.038 365.719C424.614 357.622 427.681 348.298 427.804 347.439C428.172 345.844 426.7 337.747 427.068 336.275C427.436 334.803 434.797 333.085 436.392 333.085C438.109 332.963 437.987 345.476 437.373 346.458Z" fill="#FF9697"/>
<path d="M443.135 365.72L441.54 381.668L441.049 387.067C440.313 386.698 439.699 386.453 438.963 386.085C435.16 384.122 431.602 381.546 428.658 378.479C425.714 375.534 423.137 372.222 421.174 368.541C420.561 367.437 420.07 366.333 419.579 365.352L422.033 365.72L430.989 367.192L432.952 367.56L430.621 378.601C430.744 378.356 438.963 366.946 443.135 365.72Z" fill="#4C0B84"/>
<path d="M496.742 367.314C496.128 368.418 495.515 369.522 494.901 370.626C494.411 371.485 493.797 372.344 493.184 373.08C490.73 376.515 487.663 379.582 484.228 382.159C483.492 382.772 482.633 383.263 481.897 383.876C478.584 386.084 475.027 387.679 471.224 388.906C467.298 390.133 463.004 390.746 458.71 390.746C452.453 390.746 446.441 389.397 441.043 386.943C440.307 386.575 439.694 386.33 438.958 385.962C440.675 373.693 442.884 366.455 443.129 365.719C447.546 364.492 452.085 363.511 456.624 363.02C456.747 363.02 456.747 363.02 456.87 363.02C463.372 362.529 469.997 362.407 476.622 362.652C481.161 362.775 485.7 363.265 490.239 364.002C490.853 364.124 493.92 365.351 496.742 367.314Z" fill="#4C0B84"/>
<path opacity="0.8" d="M484.355 382.281C483.619 382.895 482.76 383.385 482.024 383.999C478.712 386.207 475.154 387.802 471.351 389.029C467.425 390.256 463.131 390.869 458.837 390.869C452.58 390.869 446.569 389.52 441.171 387.066C440.434 386.698 439.821 386.453 439.085 386.085C439.085 385.716 439.208 385.348 439.208 384.98C439.944 383.876 440.68 382.772 441.661 381.668C446.078 376.025 452.212 370.381 455.402 367.682C456.261 368.786 457.733 369.645 460.186 370.136C464.235 370.872 468.774 369.032 472.577 366.823C474.295 368.541 476.871 371.24 479.325 374.184C481.165 376.393 482.76 378.846 483.864 380.932C483.987 381.3 484.11 381.791 484.355 382.281Z" fill="white"/>
<path d="M476.618 362.529C476.618 362.529 471.588 368.663 462.141 369.154C453.922 369.522 456.621 363.02 456.621 363.02C459.688 362.284 461.283 360.812 462.141 359.094C463.246 356.886 462.878 354.064 462.264 351.365C462.264 351.12 462.141 350.997 462.141 350.752L474.164 339.956C473.06 346.458 472.079 358.358 476.618 362.529Z" fill="#FF9697"/>
<path opacity="0.2" d="M472.203 349.525C471.59 353.696 466.56 357.745 462.143 358.972C463.247 356.763 462.879 353.942 462.266 351.243L472.203 343.636C472.571 345.599 472.571 347.562 472.203 349.525Z" fill="black"/>
<path d="M464.359 326.092C467.181 329.282 464.604 332.962 455.158 337.134C453.072 332.226 454.544 324.007 457.612 322.657C460.679 321.308 461.905 323.27 464.359 326.092Z" fill="#263238"/>
<path d="M477.603 336.398C475.027 344.74 474.045 349.77 468.647 353.083C460.673 358.113 451.104 351.733 451.104 342.777C451.104 334.68 455.275 322.412 464.353 320.94C470.856 319.958 476.99 324.375 477.971 330.877C478.339 332.717 478.217 334.558 477.603 336.398Z" fill="#FF9697"/>
<path d="M464.365 335.662C464.242 336.398 463.751 336.766 463.261 336.766C462.77 336.643 462.524 336.03 462.77 335.294C462.892 334.557 463.383 334.189 463.874 334.189C464.365 334.312 464.487 334.926 464.365 335.662Z" fill="#263238"/>
<path d="M456.511 333.822C456.388 334.558 455.898 334.926 455.407 334.926C454.916 334.803 454.671 334.19 454.916 333.454C455.039 332.718 455.53 332.35 456.02 332.35C456.511 332.472 456.757 333.086 456.511 333.822Z" fill="#263238"/>
<path d="M458.964 334.68C457.614 336.643 456.019 338.361 454.302 339.833C455.283 341.305 457.491 341.182 457.491 341.182L458.964 334.68Z" fill="#C96F6D"/>
<path d="M467.193 333.699C467.315 333.699 467.315 333.699 467.438 333.699C467.683 333.577 467.806 333.331 467.683 333.209C467.193 331.982 466.088 331 464.739 330.755C464.494 330.755 464.248 330.878 464.248 331.123C464.248 331.368 464.371 331.614 464.616 331.614C465.598 331.859 466.456 332.595 466.947 333.577C466.947 333.577 467.07 333.699 467.193 333.699Z" fill="#263238"/>
<path d="M453.573 330.264C453.696 330.264 453.941 330.264 453.941 330.141C454.554 329.282 455.659 328.791 456.64 328.791C456.885 328.791 457.131 328.669 457.131 328.423C457.131 328.178 457.008 328.055 456.763 327.933C455.413 327.933 454.186 328.423 453.328 329.528C453.205 329.65 453.205 330.018 453.328 330.141C453.45 330.264 453.573 330.264 453.573 330.264Z" fill="#263238"/>
<path d="M476.016 328.056C471.722 328.424 471.231 332.84 475.28 342.41C480.187 340.201 484.604 333.208 483.254 330.141C482.028 326.952 479.819 327.688 476.016 328.056Z" fill="#263238"/>
<path d="M480.071 344.127C478.967 346.09 477.249 347.439 475.041 348.053C472.219 348.789 470.87 346.335 471.606 343.636C472.342 341.305 474.673 337.993 477.494 338.361C480.316 338.729 481.42 341.673 480.071 344.127Z" fill="#FF9697"/>
<path d="M467.796 324.498C467.796 324.498 466.937 333.331 474.911 335.907C482.886 338.484 485.953 333.944 485.953 333.944C485.953 333.944 484.603 333.822 483.867 333.576C483.867 333.576 487.302 330.018 485.953 325.479C484.603 320.94 477.488 314.683 470.863 315.296C470.863 315.296 465.71 311.616 459.208 313.456C452.706 315.296 451.847 322.657 451.847 322.657C451.847 322.657 452.706 318.241 455.65 317.75C455.65 317.75 450.129 325.847 454.423 329.528C454.423 329.528 457.245 320.817 467.796 324.498Z" fill="#263238"/>
<path d="M456.011 344.495C456.747 345.476 457.606 347.439 457.606 347.439C457.851 347.439 457.974 347.316 458.219 347.316C460.796 346.58 461.777 345.353 462.145 344.249C462.268 343.636 462.268 343.022 462.145 342.532C462.023 342.041 461.777 341.673 461.777 341.673C460.673 342.9 458.219 343.758 456.993 344.127C456.257 344.372 456.011 344.495 456.011 344.495Z" fill="#263238"/>
<path d="M456.882 344.127L457.372 344.985C459.826 344.249 461.421 343.513 462.034 342.532C461.912 342.041 461.666 341.673 461.666 341.673C460.562 342.9 458.108 343.758 456.882 344.127Z" fill="white"/>
<path d="M458.221 347.317C460.798 346.58 461.779 345.354 462.147 344.25C461.289 344.495 460.184 344.986 459.448 345.599C458.712 346.09 458.344 346.703 458.221 347.317Z" fill="#DE5753"/>
<path d="M328.663 141.7L311.855 140.841C309.402 140.718 307.439 138.633 307.562 136.056L308.42 119.249C308.543 116.795 310.629 114.832 313.205 114.955L330.013 115.813C332.466 115.936 334.429 118.022 334.307 120.598L333.448 137.406C333.325 139.859 331.239 141.822 328.663 141.7Z" fill="#4C0B84"/>
<path opacity="0.6" d="M328.298 123.542C326.58 120.475 323.022 121.457 321.182 123.665C319.464 121.334 316.029 119.985 314.066 122.806C310.754 127.714 316.888 132.621 319.833 134.584C320.201 134.829 320.446 134.952 320.691 135.197C320.937 135.075 321.182 134.952 321.55 134.707C324.617 133.112 331.119 128.695 328.298 123.542Z" fill="#B698F9"/>
<path d="M323.147 139.369C323.147 139.369 319.344 146.975 311.615 149.061C311.615 149.061 315.909 146.852 316.032 138.755L323.147 139.369Z" fill="#4C0B84"/>
<path d="M342.903 219.48C342.903 219.48 352.595 209.788 355.784 202.795C355.784 202.795 354.557 198.87 355.662 196.907C356.766 194.944 363.268 189.178 364.986 190.404C366.703 191.631 369.279 196.416 368.175 198.502C367.194 200.587 360.814 204.636 360.814 204.636C360.814 204.636 352.963 220.462 348.055 224.02C343.148 227.578 342.903 219.48 342.903 219.48Z" fill="#EBB376"/>
<path d="M318.24 190.159C323.884 190.895 330.386 218.376 334.925 220.952C339.464 223.529 351.242 208.316 351.242 208.316L356.64 214.45C356.64 214.45 341.059 236.042 334.925 234.202C328.791 232.239 317.259 210.892 317.259 210.892L318.24 190.159Z" fill="#7C36B8"/>
<path opacity="0.05" d="M318.24 190.159C323.884 190.895 330.386 218.376 334.925 220.952C339.464 223.529 351.242 208.316 351.242 208.316L356.64 214.45C356.64 214.45 341.059 236.042 334.925 234.202C328.791 232.239 317.259 210.892 317.259 210.892L318.24 190.159Z" fill="white"/>
<path d="M352.71 443.868L345.226 445.217L342.159 435.035L339.46 425.711L348.048 422.644L350.501 433.93L352.71 443.868Z" fill="#EBB376"/>
<path d="M343.51 444.972C343.387 444.113 353.57 443.009 353.57 443.009C353.57 443.009 360.931 448.285 367.188 448.53C373.445 448.898 370.746 453.069 363.998 454.296C357.251 455.523 352.098 456.382 347.313 457.241C342.651 458.099 344.86 453.56 343.51 444.972Z" fill="#4C0B84"/>
<path d="M358.722 444.727C357.373 444.727 355.532 444.236 355.042 444.113H354.919C354.919 444.113 354.919 444.113 354.796 443.991C354.796 443.991 354.796 443.991 354.796 443.868V443.745C354.796 443.623 355.287 441.169 356.514 440.31C356.882 440.065 357.373 439.942 357.863 440.065C358.354 440.187 358.599 440.433 358.722 440.801C358.845 441.292 358.109 442.028 357.373 442.518C358.231 442.273 359.09 442.15 359.704 442.396C360.072 442.518 360.194 442.764 360.317 443.009C360.562 443.623 360.44 443.991 360.317 444.113C359.949 444.604 359.336 444.727 358.722 444.727ZM355.9 443.745C357.495 444.113 359.458 444.359 359.826 443.868C359.826 443.868 359.949 443.745 359.826 443.377C359.704 443.254 359.704 443.132 359.458 443.132C358.722 442.764 357.005 443.377 355.9 443.745ZM357.373 440.678C357.127 440.678 357.005 440.678 356.759 440.801C356.023 441.292 355.655 442.396 355.41 443.254C356.759 442.396 358.109 441.414 358.109 440.923C358.109 440.801 357.863 440.678 357.741 440.678C357.618 440.678 357.495 440.678 357.373 440.678Z" fill="#ED51AE"/>
<path opacity="0.2" d="M350.501 434.176L342.282 435.28L339.46 425.834L348.048 422.767L350.501 434.176Z" fill="black"/>
<path d="M302.892 447.058H295.409L294.182 436.507L292.955 426.815L302.033 425.343L302.524 436.875L302.892 447.058Z" fill="#EBB376"/>
<path d="M293.832 446.567C293.832 445.708 304.138 446.444 304.138 446.444C304.138 446.444 310.395 452.824 316.529 454.296C322.663 455.768 319.228 459.449 312.358 459.449C305.487 459.449 300.335 459.449 295.427 459.449C290.52 459.326 293.587 455.278 293.832 446.567Z" fill="#4C0B84"/>
<path d="M309.404 449.021C307.932 449.021 305.723 448.039 305.11 447.671C305.11 447.671 304.987 447.671 304.987 447.548C304.987 447.426 304.987 447.426 304.987 447.303C304.987 447.18 305.846 444.849 307.318 444.236C307.809 444.113 308.177 444.113 308.668 444.236C309.158 444.481 309.404 444.727 309.281 445.095C309.281 445.586 308.545 446.199 307.686 446.567C308.545 446.444 309.404 446.567 310.017 446.812C310.263 446.935 310.508 447.18 310.508 447.548C310.631 448.162 310.508 448.53 310.263 448.653C310.14 448.898 309.772 449.021 309.404 449.021ZM306.091 447.548C307.564 448.162 309.527 448.775 310.017 448.407C310.017 448.407 310.14 448.285 310.14 447.917C310.14 447.794 310.017 447.671 309.895 447.548C309.036 447.058 307.318 447.303 306.091 447.548ZM307.932 444.727C307.809 444.727 307.686 444.727 307.564 444.849C306.827 445.218 306.214 446.322 305.846 447.058C307.318 446.444 308.79 445.708 308.913 445.218C308.913 445.095 308.668 444.972 308.545 444.849C308.3 444.727 308.054 444.727 307.932 444.727Z" fill="#ED51AE"/>
<path opacity="0.2" d="M302.524 437.121L294.182 436.753L292.955 426.938L302.033 425.466L302.524 437.121Z" fill="black"/>
<path d="M351.233 428.165L338.965 430.373C326.574 399.579 317.863 373.816 311.606 352.592C308.294 341.059 305.595 330.877 303.632 321.798L304.245 355.291V431.477H291.854C261.551 287.201 283.021 254.2 283.021 254.2L319.213 248.065C320.562 253.463 321.666 262.174 322.28 268.308L323.875 280.331L337.983 353.45L351.233 428.165Z" fill="#ED51AE"/>
<path d="M337.005 428.901L352.218 423.871L352.095 430.251L339.459 434.299L337.005 428.901Z" fill="#ED51AE"/>
<path d="M290.148 429.514L305.974 427.306L304.625 433.563L291.62 435.28L290.148 429.514Z" fill="#ED51AE"/>
<path d="M315.904 175.069H315.781C311.119 172.247 307.071 162.064 306.825 161.574C306.702 161.451 306.825 161.206 306.948 161.206C307.07 161.206 307.316 161.206 307.316 161.328C307.316 161.451 311.487 171.756 316.026 174.455C316.149 174.578 316.272 174.701 316.149 174.823C316.149 175.069 316.026 175.069 315.904 175.069Z" fill="#7C36B8"/>
<path d="M278.728 148.201C278.728 148.201 280.568 142.067 292.591 141.086C304.614 139.982 310.625 151.882 307.803 160.715C307.803 160.715 310.38 172.738 315.164 176.173C315.164 176.173 291.977 186.601 280.322 186.724C277.746 186.724 272.225 173.842 271.489 164.518C270.753 155.562 273.452 148.447 278.728 148.201Z" fill="#263238"/>
<path d="M283.028 248.679V254.077L319.833 251.255V244.875L283.028 248.679Z" fill="#7C36B8"/>
<path opacity="0.3" d="M283.028 248.679V254.077L319.833 251.255V244.875L283.028 248.679Z" fill="white"/>
<path d="M311.318 246.244L303.253 246.966L303.801 253.075L311.865 252.353L311.318 246.244Z" fill="white"/>
<path d="M295.416 246.428L293.578 246.522L294.054 255.834L295.892 255.74L295.416 246.428Z" fill="#ED51AE"/>
<path d="M317.874 243.978L316.036 244.071L316.511 253.383L318.349 253.289L317.874 243.978Z" fill="#ED51AE"/>
<path d="M320.078 245.489L283.15 248.679C282.782 243.035 282.414 238.373 281.555 232.975C281.065 229.54 280.206 225.86 279.224 221.566C278.366 218.253 277.384 214.45 276.035 210.156C276.035 209.911 275.912 209.666 275.789 209.42C275.053 206.966 269.655 208.807 269.164 205.862C267.079 192.858 281.065 191.876 286.34 191.018C291.861 190.036 297.382 189.423 302.902 189.3C310.018 189.177 318.36 190.036 318.36 190.036C318.36 190.036 319.587 190.282 320.323 197.888C320.814 205.249 321.55 219.48 320.078 245.489Z" fill="#4C0B84"/>
<path d="M299.833 197.52C290.754 196.416 288.055 192.49 288.055 192.49C293.821 187.092 289.036 177.646 289.036 177.646L299.955 179.731C299.71 181.571 299.587 183.044 299.587 184.393C299.464 191.018 302.532 191.141 302.532 191.141C304.249 194.576 299.833 197.52 299.833 197.52Z" fill="#EBB376"/>
<path opacity="0.2" d="M299.834 179.731C299.589 181.571 299.466 183.043 299.466 184.393C292.105 184.393 288.916 177.768 288.916 177.768L299.834 179.731Z" fill="black"/>
<path d="M291.484 149.06C300.808 146.974 304.857 151.268 307.801 160.715C311.359 172.492 310.623 181.571 298.477 181.694C281.792 181.694 276.026 152.495 291.484 149.06Z" fill="#EBB376"/>
<path d="M301.67 161.451C301.67 161.451 303.51 163.537 305.228 164.641C305.228 164.641 304.737 166.113 303.02 166.236L301.67 161.451Z" fill="#D58745"/>
<path d="M295.784 162.065C296.029 162.801 295.661 163.537 295.17 163.66C294.679 163.782 294.066 163.292 293.943 162.556C293.698 161.819 294.066 161.083 294.557 160.961C295.047 160.715 295.538 161.206 295.784 162.065Z" fill="#263238"/>
<path d="M294.315 160.96L295.787 159.856C295.787 159.856 295.297 161.451 294.315 160.96Z" fill="#263238"/>
<path d="M305.234 159.488C305.479 160.224 305.111 160.96 304.62 161.083C304.13 161.206 303.516 160.715 303.393 159.979C303.148 159.243 303.516 158.507 304.007 158.384C304.375 158.261 304.988 158.752 305.234 159.488Z" fill="#263238"/>
<path d="M303.765 158.384L305.237 157.28C305.237 157.402 304.747 158.997 303.765 158.384Z" fill="#263238"/>
<path d="M290.512 158.384C290.389 158.384 290.389 158.384 290.266 158.384C290.021 158.261 289.898 158.016 290.021 157.771C291.125 155.562 293.947 155.194 294.07 155.194C294.315 155.194 294.56 155.317 294.56 155.562C294.56 155.808 294.438 156.053 294.192 156.053C294.192 156.053 291.739 156.298 290.88 158.139C290.88 158.261 290.635 158.384 290.512 158.384Z" fill="#263238"/>
<path d="M300.935 154.09C300.813 154.09 300.69 153.967 300.567 153.845C300.445 153.599 300.445 153.354 300.69 153.231C300.813 153.231 302.408 152.127 304.984 153.109C305.229 153.231 305.352 153.477 305.229 153.722C305.107 153.967 304.861 154.09 304.616 153.967C302.53 153.109 301.181 153.967 301.181 153.967C301.058 154.09 300.935 154.09 300.935 154.09Z" fill="#263238"/>
<path d="M302.417 170.284C302.172 171.511 302.049 173.719 302.049 173.719C301.804 173.719 301.681 173.719 301.436 173.842C298.614 174.21 297.265 173.474 296.529 172.492C296.161 172.002 295.915 171.388 295.915 170.897C295.792 170.284 295.915 169.916 295.915 169.916C297.51 170.652 300.086 170.529 301.436 170.407C302.172 170.407 302.417 170.284 302.417 170.284Z" fill="#263238"/>
<path d="M301.553 170.407L301.431 171.388C298.854 171.756 296.891 171.511 296.033 170.897C295.91 170.284 296.033 169.916 296.033 169.916C297.505 170.652 300.081 170.529 301.553 170.407Z" fill="white"/>
<path d="M301.55 173.842C298.729 174.21 297.379 173.474 296.643 172.493C297.625 172.37 298.729 172.37 299.833 172.738C300.569 172.984 301.182 173.352 301.55 173.842Z" fill="#DE5753"/>
<path d="M284.871 166.972C284.871 166.972 287.447 158.384 285.485 152.618C285.485 152.618 302.169 140.963 307.322 159.366C307.322 159.366 305.359 142.313 289.288 145.625C273.216 148.815 278.614 172.247 288.429 177.4C288.429 177.4 283.276 172.37 284.871 166.972Z" fill="#263238"/>
<path d="M286.825 168.566C286.457 167.094 284.249 164.886 281.55 165.867C278.728 166.849 278.728 173.106 286.212 172.86C287.316 172.86 287.684 171.756 286.825 168.566Z" fill="#EBB376"/>
<path d="M285.47 152.618C285.47 152.618 295.162 149.06 300.56 151.759C300.56 151.759 294.671 146.483 284.857 151.391L285.47 152.618Z" fill="#263238"/>
<path d="M279.468 193.471C279.468 193.471 290.141 202.182 300.079 202.059C310.016 201.936 313.574 190.772 313.574 190.772C313.574 190.772 298.116 186.11 279.468 193.471Z" fill="#EBB376"/>
<path opacity="0.2" d="M311.619 352.592C308.307 341.059 305.608 330.877 303.645 321.798C303.645 321.798 303.89 304.132 305.976 289.655C305.976 289.532 311.374 330.999 311.619 352.592Z" fill="black"/>
<path d="M249.656 212.732C249.656 212.732 242.295 201.077 240.823 193.594C240.823 193.594 242.786 190.036 242.172 187.828C241.559 185.619 236.529 178.504 234.566 179.363C232.603 180.221 229.045 184.27 229.659 186.478C230.272 188.686 235.548 194.207 235.548 194.207C235.548 194.207 239.719 211.383 243.645 215.922C247.571 220.584 249.656 212.732 249.656 212.732Z" fill="#EBB376"/>
<path d="M269.527 199.606C273.208 199.115 280.814 206.353 279.587 212.61C278.483 218.867 267.932 236.533 259.835 235.184C248.426 233.221 235.789 203.041 235.789 203.041L242.046 197.52C242.046 197.52 256.891 223.284 259.835 222.793C262.78 222.302 269.527 199.606 269.527 199.606Z" fill="#7C36B8"/>
<path opacity="0.05" d="M269.527 199.606C273.208 199.115 280.814 206.353 279.587 212.61C278.483 218.867 267.932 236.533 259.835 235.184C248.426 233.221 235.789 203.041 235.789 203.041L242.046 197.52C242.046 197.52 256.891 223.284 259.835 222.793C262.78 222.302 269.527 199.606 269.527 199.606Z" fill="white"/>
<path d="M233.217 201.2L242.418 195.68L243.891 198.133L235.18 205.74L233.217 201.2Z" fill="#7C36B8"/>
<path d="M349.162 208.193L356.646 217.395L357.872 214.573L351.247 206.721L349.162 208.193Z" fill="#7C36B8"/>
<path d="M352.958 195.802L364.735 181.449C365.104 180.958 365.84 180.958 366.33 181.326L371.606 186.233C371.974 186.601 372.097 187.337 371.728 187.705L359.828 202.305C359.46 202.795 358.601 202.795 358.111 202.427L353.081 197.152C352.59 196.784 352.59 196.171 352.958 195.802Z" fill="#7C36B8"/>
<path opacity="0.3" d="M352.958 195.802L364.735 181.449C365.104 180.958 365.84 180.958 366.33 181.326L371.606 186.233C371.974 186.601 372.097 187.337 371.728 187.705L359.828 202.305C359.46 202.795 358.601 202.795 358.111 202.427L353.081 197.152C352.59 196.784 352.59 196.171 352.958 195.802Z" fill="black"/>
<path d="M352.469 195.189L364.247 180.835C364.615 180.344 365.351 180.344 365.841 180.712L371.117 185.619C371.485 185.987 371.608 186.724 371.239 187.092L359.339 201.691C358.971 202.182 358.112 202.182 357.622 201.814L352.592 196.538C352.101 196.293 352.101 195.557 352.469 195.189Z" fill="#7C36B8"/>
<path opacity="0.6" d="M364.613 181.448L370.502 187.092L359.092 201.078L353.449 195.066L364.613 181.448Z" fill="white"/>
</svg>
