<svg width="109" height="59" viewBox="0 0 109 59" fill="none" xmlns="http://www.w3.org/2000/svg">
<g clip-path="url(#clip0_1_838)">
<path d="M102 39.2C101.2 41.6 100.4 43.9 100 46.4C99.8 47.7 104.8 49.2 104.9 48.8C105.6 43.8 108.2 39.3 108.7 34.2C108.8 33 104.9 31.5 104 31.7C99.6 32.4 95.1 32.9 90.6 33.4C89.9 33.5 91.9 34.9 92 34.9C92.9 35.4 94.1 36.1 95.2 36C97 35.8 98.7 35.6 100.5 35.4C100.4 35.4 100.4 35.5 100.3 35.5C88.5 46 75.7 54.3 59.5 54.5C49 54.6 38.4 51.5 29.1 46.5C32.1 44.4 35 42.2 37.8 39.7C46.1 32.4 54.1 22.8 55.3 11.4C56.2 3.20004 50.6 -1.49996 43.5 2.80004C38.2 6.00004 35.2 10.9 33.4 16.3C29.7 8.20004 22.9 0.500041 14.5 4.11198e-05C8.20001 -0.299959 3.20001 4.50004 1.20001 10.1C-1.89999 18.6 1.40001 28 6.40001 35C10 40.1 14.8 44.3 20.3 47.7C15.2 50.5 9.90001 52.8 4.80001 54.5C2.00001 55.5 2.10001 59.5 5.50001 58.4C12 56.2 18.2 53.3 24 49.8C33.4 54.9 44.3 57.8 54.3 58.6C72.8 60.1 88.5 50.9 102 39.2ZM19.5 40.4C13.1 35.6 8.00001 29.3 5.80001 21.5C4.00001 14.9 5.60001 2.20004 15.1 4.70004C23.9 7.00004 30.2 19.9 31 28.1C31.2 30.8 35.8 28.7 36 26.8C37 19.1 38.4 12.2 44.4 6.90004C47.9 3.80004 49.5 6.20004 50.2 10C51.1 14.9 48.3 20.4 45.9 24.5C41.1 32.6 33.8 39.3 25.6 44.5C23.5 43.3 21.4 41.9 19.5 40.4Z" fill="#F77BAD"/>
</g>
<defs>
<clipPath id="clip0_1_838">
<rect width="108.7" height="58.8" fill="white"/>
</clipPath>
</defs>
</svg>
