<svg width="490" height="417" viewBox="0 0 490 417" fill="none" xmlns="http://www.w3.org/2000/svg">
<g clip-path="url(#clip0_1_94)">
<path d="M341.748 416.377C413.568 416.377 471.789 410.875 471.789 404.088C471.789 397.301 413.568 391.799 341.748 391.799C269.929 391.799 211.707 397.301 211.707 404.088C211.707 410.875 269.929 416.377 341.748 416.377Z" fill="#E6DDFE"/>
<path d="M123.893 327.56C186.889 327.56 237.958 322.108 237.958 315.383C237.958 308.658 186.889 303.206 123.893 303.206C60.8962 303.206 9.82751 308.658 9.82751 315.383C9.82751 322.108 60.8962 327.56 123.893 327.56Z" fill="#E6DDFE"/>
<path d="M380.402 409.115C406.501 409.115 427.659 406.664 427.659 403.641C427.659 400.618 406.501 398.167 380.402 398.167C354.303 398.167 333.145 400.618 333.145 403.641C333.145 406.664 354.303 409.115 380.402 409.115Z" fill="#D2C1FE"/>
<path d="M93.3973 319.74C119.497 319.74 140.654 317.289 140.654 314.266C140.654 311.243 119.497 308.792 93.3973 308.792C67.2979 308.792 46.1401 311.243 46.1401 314.266C46.1401 317.289 67.2979 319.74 93.3973 319.74Z" fill="#D2C1FE"/>
<path d="M217.743 74.1815H34.5233C36.0874 61.5572 44.6898 50.9439 56.6437 45.8048C56.6437 45.5814 56.6437 45.358 56.6437 45.1345C56.6437 20.2212 78.6524 0 105.688 0C120.435 0 133.618 6.03283 142.556 15.4172C146.242 13.9649 150.264 13.1829 154.51 13.1829C170.597 13.1829 183.78 24.9134 184.562 39.5486C203.107 42.0064 217.408 56.5299 217.743 74.1815Z" fill="#F6F3FE"/>
<path d="M470.008 164.562H330.247C331.365 154.954 337.956 146.799 347.117 142.889C347.117 142.777 347.117 142.554 347.117 142.442C347.117 123.45 363.875 108.032 384.431 108.032C395.715 108.032 405.769 112.613 412.584 119.875C415.377 118.757 418.505 118.087 421.745 118.087C434.034 118.087 444.089 127.025 444.648 138.196C458.836 139.984 469.784 151.044 470.008 164.562Z" fill="#F6F3FE"/>
<path d="M289.789 341.66L394.749 392.525L486.831 202.512L381.871 151.647L289.789 341.66Z" fill="white"/>
<path d="M476.034 200.871C479.72 202.658 481.285 207.015 479.497 210.702L396.266 382.303L295.384 333.37L378.615 161.769C380.402 158.194 384.759 156.63 388.446 158.418L476.034 200.871ZM392.468 147.469C385.765 144.229 377.721 146.687 374.705 153.055L282.871 342.531C279.743 348.899 282.76 356.719 289.463 359.959L379.062 403.418C385.765 406.657 393.809 404.2 396.825 397.832L488.658 208.356C491.786 201.988 488.77 194.168 482.067 190.928L392.468 147.469Z" fill="#4C0B84"/>
<path d="M451.567 210.59L442.964 228.242C442.517 229.136 442.741 230.03 443.3 230.365L446.204 231.705C446.763 232.04 446.986 232.934 446.539 233.828C446.093 234.722 445.31 235.169 444.752 234.833L440.73 232.934L438.942 232.04L385.652 206.233C385.094 205.898 384.87 205.004 385.317 204.111L395.372 183.331C395.819 182.437 396.601 181.99 397.16 182.325L451.12 208.468C451.79 208.803 452.014 209.808 451.567 210.59Z" fill="#F9DCFD"/>
<path d="M461.96 235.839C463.189 233.269 462.184 230.141 459.503 228.801C456.933 227.572 453.805 228.577 452.464 231.258C451.235 233.828 452.241 236.956 454.922 238.297C457.603 239.526 460.732 238.408 461.96 235.839Z" fill="#D6CEFE"/>
<path d="M337.159 303.988L328.557 321.639C328.11 322.533 327.328 322.98 326.769 322.645L323.864 321.304C323.306 320.969 322.412 321.416 322.077 322.309C321.63 323.203 321.853 324.097 322.412 324.432L326.434 326.331L328.221 327.225L381.511 353.032C382.07 353.367 382.964 352.921 383.411 352.027L393.465 331.247C393.912 330.353 393.689 329.459 393.13 329.124L339.17 302.982C338.388 302.647 337.606 303.094 337.159 303.988Z" fill="#F9DCFD"/>
<path d="M310.796 313.037C311.914 310.691 314.706 309.685 317.053 310.914C319.399 312.031 320.404 314.824 319.175 317.17C318.058 319.517 315.265 320.522 312.919 319.293C310.573 318.176 309.679 315.383 310.796 313.037Z" fill="#D6CEFE"/>
<path d="M376.156 223.661L367.554 241.313C367.107 242.207 366.325 242.654 365.766 242.319L362.862 240.978C362.303 240.643 361.409 241.09 361.074 241.983C360.627 242.877 360.851 243.771 361.409 244.106L365.431 246.005L367.219 246.899L420.509 272.706C421.067 273.041 421.961 272.594 422.296 271.701L432.351 250.921C432.798 250.027 432.575 249.133 432.016 248.798L378.056 222.656C377.385 222.321 376.492 222.768 376.156 223.661Z" fill="#F9DCFD"/>
<path d="M348.114 231.594C349.678 228.354 353.7 226.901 356.94 228.577C360.18 230.141 361.632 234.163 359.957 237.403C358.393 240.643 354.371 242.095 351.131 240.419C347.891 238.855 346.439 234.945 348.114 231.594Z" fill="#D6CEFE"/>
<path d="M332.247 365.88C330.125 370.237 331.912 375.6 336.381 377.722C340.738 379.845 346.101 378.057 348.223 373.589C350.346 369.232 348.558 363.869 344.09 361.746C339.621 359.624 334.37 361.411 332.247 365.88Z" fill="#F77BAD"/>
<path d="M111.385 59.3701L3.15955 102.852L81.8759 298.777L190.101 255.295L111.385 59.3701Z" fill="white"/>
<path d="M104.456 65.6908C108.255 64.1268 112.5 66.026 114.064 69.7127L185.118 246.676L81.1071 288.459L9.94203 111.607C8.48969 107.921 10.2772 103.564 14.0756 102.111M101.105 54.5189L8.71313 91.6097C1.78654 94.4026 -1.78847 102 0.892787 108.479L79.3196 303.988C82.0009 310.579 89.7095 313.596 96.6361 310.803L189.028 273.712C195.954 270.919 199.529 263.322 196.848 256.842L118.421 61.3338C115.852 54.7424 108.031 51.7259 101.105 54.5189Z" fill="#F77BAD"/>
<path d="M37.8673 113.395L45.2407 131.605C45.5759 132.499 45.3524 133.393 44.7938 133.616L41.7774 134.845C41.1071 135.069 40.8837 135.962 41.3305 136.856C41.6657 137.75 42.4477 138.197 43.118 137.973L47.2517 136.297L49.1509 135.515L103.893 113.619C104.564 113.395 104.787 112.501 104.34 111.608L95.7377 90.1575C95.4026 89.2637 94.6206 88.8169 93.9502 89.0403L38.3141 111.384C37.7555 111.608 37.5321 112.501 37.8673 113.395Z" fill="#F9DCFD"/>
<path d="M25.6936 137.861C24.5764 135.18 25.917 132.164 28.5983 131.047C31.2795 129.929 34.2959 131.27 35.4131 133.951C36.5303 136.633 35.1897 139.649 32.5084 140.766C29.8272 141.883 26.8108 140.543 25.6936 137.861Z" fill="#D6CEFE"/>
<path d="M145.466 214.501L152.839 232.711C153.174 233.605 153.956 234.052 154.627 233.828L157.643 232.599C158.313 232.376 159.095 232.823 159.431 233.716C159.766 234.61 159.542 235.504 158.984 235.727L154.85 237.403L152.951 238.185L97.8734 260.306C97.2031 260.529 96.421 260.082 96.0859 259.188L87.4835 237.738C87.1484 236.845 87.3718 235.951 87.9304 235.727L143.567 213.384C144.349 213.048 145.131 213.607 145.466 214.501Z" fill="#F9DCFD"/>
<path d="M171.16 225.338C170.154 222.991 167.473 221.762 165.127 222.768C162.781 223.773 161.552 226.455 162.557 228.801C163.563 231.147 166.244 232.376 168.59 231.37C170.936 230.477 172.165 227.795 171.16 225.338Z" fill="#D6CEFE"/>
<path d="M112.171 131.605L119.545 149.815C119.88 150.709 120.662 151.156 121.332 150.933L124.349 149.704C125.019 149.48 125.801 149.927 126.136 150.821C126.471 151.715 126.248 152.608 125.689 152.832L121.556 154.508L119.657 155.29L64.8025 177.298C64.1322 177.522 63.3501 177.075 63.015 176.181L54.4126 154.731C54.0774 153.837 54.3009 152.944 54.8595 152.72L110.496 130.376C111.054 130.265 111.836 130.823 112.171 131.605Z" fill="#F9DCFD"/>
<path d="M139.651 141.548C138.31 138.197 134.4 136.521 131.048 137.861C127.697 139.202 126.021 143.112 127.362 146.464C128.702 149.815 132.612 151.491 135.964 150.151C139.315 148.81 140.991 144.9 139.651 141.548Z" fill="#D6CEFE"/>
<path d="M146.125 276.505C147.912 280.974 145.789 286.113 141.209 288.012C136.74 289.799 131.601 287.677 129.702 283.096C127.914 278.627 130.037 273.488 134.618 271.589C139.198 269.802 144.337 272.036 146.125 276.505Z" fill="#4C0B84"/>
<path d="M94.0657 131.27C94.0657 131.493 93.8423 131.717 93.6189 131.717C93.3954 131.717 93.172 131.493 93.172 131.27C93.172 131.046 93.3954 130.823 93.6189 130.823C93.8423 130.823 94.0657 131.046 94.0657 131.27Z" fill="#2D1350"/>
<path d="M263.099 121.439C263.099 121.439 276.729 108.032 282.315 120.321C290.135 137.414 253.826 141.548 253.826 141.548C253.826 141.548 236.51 115.294 252.821 109.82C263.211 106.357 263.099 121.439 263.099 121.439Z" fill="#F77BAD"/>
<path d="M272.703 93.2854C272.703 93.2854 276.725 89.2635 278.512 92.9502C280.858 98.0893 270.021 99.3182 270.021 99.3182C270.021 99.3182 264.882 91.4979 269.686 89.8221C272.703 88.8166 272.703 93.2854 272.703 93.2854Z" stroke="#4C0B84" stroke-width="1.11719" stroke-miterlimit="10" stroke-linecap="round" stroke-linejoin="round"/>
<path d="M228.464 133.839C228.464 133.839 227.682 126.131 233.045 127.471C240.418 129.371 232.486 141.772 232.486 141.772C232.486 141.772 219.862 140.543 222.208 134.063C223.772 129.929 228.464 133.839 228.464 133.839Z" stroke="#4C0B84" stroke-width="1.11719" stroke-miterlimit="10" stroke-linecap="round" stroke-linejoin="round"/>
<path d="M287.567 149.257C287.567 149.257 292.482 145.905 293.599 149.927C295.052 155.625 283.656 154.954 283.656 154.954C283.656 154.954 279.746 145.905 285.109 145.123C288.46 144.676 287.567 149.257 287.567 149.257Z" stroke="#4C0B84" stroke-width="1.11719" stroke-miterlimit="10" stroke-linecap="round" stroke-linejoin="round"/>
<path d="M171.128 35.2869C178.733 28.8954 179.717 17.5488 173.326 9.9435C166.935 2.33817 155.588 1.35409 147.983 7.74551C140.377 14.1369 139.393 25.4835 145.785 33.0889C152.176 40.6942 163.523 41.6783 171.128 35.2869Z" fill="#FFEA82"/>
<path d="M151.043 18.3219C151.043 18.3219 151.489 14.0766 154.394 15.4172C158.416 17.2047 152.383 23.1258 152.383 23.1258C152.383 23.1258 145.121 21.1149 147.356 17.875C148.696 15.6407 151.043 18.3219 151.043 18.3219Z" fill="#ED3C62"/>
<path d="M166.016 15.9758C166.016 15.9758 167.468 11.9539 170.038 13.9649C173.613 16.6461 166.239 21.0032 166.239 21.0032C166.239 21.0032 159.76 17.3165 162.553 14.6352C164.452 12.9594 166.016 15.9758 166.016 15.9758Z" fill="#ED3C62"/>
<path d="M151.048 26.3657L168.924 23.7961C168.924 23.7961 167.695 28.3766 164.79 30.7227C161.327 33.7391 155.629 33.9626 151.048 26.3657Z" fill="white"/>
<path d="M356.738 107.71C361.045 98.7583 357.28 88.01 348.329 83.7027C339.377 79.3954 328.629 83.1601 324.322 92.1115C320.015 101.063 323.779 111.811 332.731 116.118C341.682 120.426 352.43 116.661 356.738 107.71Z" fill="#FFEA82"/>
<path d="M331.806 104.122L349.792 102.781C349.792 102.781 348.228 107.25 345.212 109.485C341.525 112.166 335.828 112.054 331.806 104.122Z" fill="white"/>
<path d="M330.909 99.6534C330.462 97.7542 331.579 95.9667 333.478 95.5198C335.378 95.0729 337.165 96.1901 337.612 98.0893" stroke="#ED3C62" stroke-width="2.23438" stroke-miterlimit="10" stroke-linecap="round"/>
<path d="M344.315 97.7541C343.868 95.8549 344.985 94.0674 346.885 93.6205C348.784 93.1736 350.571 94.2908 351.018 96.19" stroke="#ED3C62" stroke-width="2.23438" stroke-miterlimit="10" stroke-linecap="round"/>
<path d="M258.409 30.9462C261.984 30.8345 264.888 33.5158 265.112 36.9791L265.894 54.7424C266.117 58.5409 263.324 61.669 259.749 61.8924L229.808 63.4565L220.983 71.1651L222.323 63.6799H221.765C219.195 63.7917 217.072 61.7807 216.961 59.0995L216.067 39.2135C215.955 35.7502 218.525 32.9572 221.988 32.7337L258.409 30.9462Z" fill="#A57FF9"/>
<path d="M229.701 48.151C229.478 49.4916 228.137 50.3854 226.796 50.0502C225.456 49.715 224.562 48.4861 224.897 47.1455C225.232 45.8049 226.461 44.9111 227.802 45.2463C229.031 45.4697 229.924 46.8103 229.701 48.151Z" fill="white"/>
<path d="M244.67 47.5924C244.446 48.933 243.106 49.8268 241.765 49.4916C240.424 49.2682 239.531 47.9275 239.866 46.5869C240.089 45.2463 241.43 44.3525 242.77 44.6877C243.999 44.9111 244.893 46.2517 244.67 47.5924Z" fill="white"/>
<path d="M258.521 46.8104C258.298 48.151 256.957 49.0448 255.616 48.7096C254.276 48.4862 253.382 47.1456 253.717 45.8049C253.941 44.4643 255.281 43.5705 256.622 43.9057C257.962 44.2409 258.856 45.4698 258.521 46.8104Z" fill="white"/>
<path d="M115.175 191.822C114.058 191.933 112.941 192.045 111.712 192.157C111.377 192.157 111.153 192.492 111.153 192.827C111.153 193.162 111.377 193.386 111.712 193.386C112.941 193.274 114.058 193.162 115.175 193.05C115.51 193.05 115.734 192.715 115.734 192.38C115.734 192.045 115.51 191.822 115.175 191.822Z" fill="#F5BBFD"/>
<path d="M198.18 181.99C195.946 181.208 193.6 180.538 191.365 180.091C191.03 179.979 190.695 180.203 190.695 180.538C190.583 180.873 190.807 181.208 191.142 181.208C193.376 181.655 195.611 182.325 197.845 183.107C197.957 183.107 197.957 183.107 198.069 183.107C198.292 183.107 198.515 182.996 198.627 182.661C198.627 182.437 198.515 182.102 198.18 181.99Z" fill="#F5BBFD"/>
<path d="M238.738 209.697C238.515 209.473 238.18 209.473 237.956 209.697C237.733 209.92 237.733 210.255 237.956 210.479C239.52 212.043 241.196 213.83 242.872 215.506C242.984 215.618 243.095 215.729 243.319 215.729C243.431 215.729 243.654 215.729 243.766 215.618C243.989 215.394 243.989 215.059 243.766 214.836C241.978 213.048 240.414 211.372 238.738 209.697Z" fill="#F5BBFD"/>
<path d="M184.331 179.086C181.985 178.862 179.639 178.862 177.181 178.974C176.846 178.974 176.623 179.309 176.623 179.532C176.623 179.868 176.846 180.091 177.181 180.091C179.527 179.979 181.873 179.979 184.108 180.203C184.443 180.203 184.666 179.979 184.666 179.644C184.778 179.421 184.555 179.197 184.331 179.086Z" fill="#F5BBFD"/>
<path d="M228.349 200.2C228.125 199.977 227.79 199.977 227.567 200.312C227.343 200.536 227.343 200.871 227.679 201.094C229.466 202.547 231.254 204.111 232.929 205.675C233.041 205.786 233.153 205.786 233.376 205.786C233.488 205.786 233.711 205.675 233.823 205.563C234.047 205.34 234.047 205.004 233.823 204.781C231.924 203.217 230.136 201.653 228.349 200.2Z" fill="#F5BBFD"/>
<path d="M222.092 195.285C220.416 194.056 218.629 192.827 217.064 191.71C216.841 191.486 216.394 191.598 216.282 191.822C216.059 192.045 216.171 192.492 216.394 192.604C218.07 193.721 219.746 194.95 221.422 196.179L222.092 196.737C222.204 196.849 222.315 196.849 222.427 196.849C222.65 196.849 222.762 196.737 222.874 196.625C223.097 196.402 222.986 195.955 222.762 195.843L222.092 195.285Z" fill="#F5BBFD"/>
<path d="M211.03 187.911C208.908 186.682 206.785 185.565 204.774 184.672C204.439 184.56 204.104 184.672 203.992 185.007C203.88 185.342 203.992 185.677 204.327 185.789C206.338 186.682 208.461 187.8 210.583 189.029C210.695 189.029 210.807 189.14 210.919 189.14C211.142 189.14 211.365 189.029 211.477 188.805C211.365 188.47 211.365 188.135 211.03 187.911Z" fill="#F5BBFD"/>
<path d="M129.03 189.699C126.683 190.146 124.337 190.593 122.103 190.928C121.768 190.928 121.544 191.263 121.656 191.598C121.656 191.933 121.991 192.045 122.215 192.045H122.326C124.561 191.71 126.907 191.263 129.253 190.816C129.588 190.704 129.812 190.481 129.7 190.146C129.7 189.811 129.365 189.699 129.03 189.699Z" fill="#F5BBFD"/>
<path d="M142.656 186.459C140.198 187.129 137.964 187.688 135.841 188.135C135.506 188.246 135.282 188.47 135.394 188.805C135.506 189.029 135.729 189.252 135.953 189.252H136.064C138.187 188.693 140.421 188.135 142.879 187.464C143.214 187.353 143.326 187.018 143.326 186.794C143.326 186.571 142.991 186.459 142.656 186.459Z" fill="#F5BBFD"/>
<path d="M156.286 182.772C154.052 183.331 151.817 184.001 149.471 184.672C149.136 184.783 149.024 185.118 149.024 185.342C149.136 185.565 149.36 185.789 149.583 185.789H149.695C152.041 185.118 154.275 184.56 156.51 183.89C156.845 183.778 156.957 183.443 156.957 183.219C156.957 182.884 156.621 182.661 156.286 182.772Z" fill="#F5BBFD"/>
<path d="M170.139 179.756C168.016 180.091 165.67 180.538 163.212 181.096C162.877 181.208 162.654 181.432 162.765 181.767C162.877 181.99 163.1 182.214 163.324 182.214H163.436C165.893 181.655 168.128 181.208 170.362 180.873C170.697 180.873 170.921 180.538 170.809 180.203C170.697 179.979 170.474 179.756 170.139 179.756Z" fill="#F5BBFD"/>
<path d="M371.009 285.889C368.998 285.889 366.987 285.889 365.087 285.777C364.752 285.777 364.529 286.001 364.529 286.336C364.529 286.671 364.752 286.894 365.087 286.894C366.987 286.894 368.886 287.006 370.897 287.006H371.009H372.126V285.889H371.009Z" fill="#F5BBFD"/>
<path d="M316.942 278.069C314.707 277.287 312.585 276.505 310.462 275.611C310.127 275.499 309.792 275.611 309.68 275.946C309.568 276.281 309.68 276.616 310.015 276.728C312.138 277.622 314.372 278.516 316.607 279.298C316.718 279.298 316.718 279.298 316.83 279.298C317.054 279.298 317.277 279.186 317.389 278.962C317.389 278.516 317.277 278.18 316.942 278.069Z" fill="#F5BBFD"/>
<path d="M330.349 281.867C328.003 281.309 325.769 280.75 323.534 280.191C323.199 280.08 322.864 280.303 322.864 280.638C322.752 280.973 322.976 281.309 323.311 281.309C325.545 281.979 327.78 282.537 330.126 282.984H330.237C330.461 282.984 330.796 282.761 330.796 282.537C330.908 282.202 330.684 281.979 330.349 281.867Z" fill="#F5BBFD"/>
<path d="M304.089 272.594C301.967 271.589 299.956 270.36 297.945 269.243C297.721 269.131 297.274 269.131 297.163 269.466C297.051 269.69 297.051 270.137 297.386 270.248C299.397 271.477 301.52 272.594 303.531 273.712C303.642 273.712 303.754 273.823 303.754 273.823C303.978 273.823 304.201 273.712 304.313 273.488C304.424 273.153 304.313 272.818 304.089 272.594Z" fill="#F5BBFD"/>
<path d="M248.348 220.086C248.124 219.863 247.789 219.863 247.566 220.086C247.342 220.31 247.342 220.645 247.566 220.869C249.13 222.656 250.694 224.444 252.146 226.231C252.258 226.343 252.37 226.454 252.593 226.454C252.705 226.454 252.817 226.454 252.928 226.343C253.152 226.119 253.152 225.784 253.04 225.561C251.476 223.661 249.912 221.874 248.348 220.086Z" fill="#F5BBFD"/>
<path d="M358.168 285.554C355.822 285.442 353.476 285.219 351.13 285.107C350.794 285.107 350.571 285.33 350.459 285.666C350.459 286.001 350.683 286.224 351.018 286.336C353.252 286.559 355.71 286.671 358.056 286.783C358.391 286.783 358.615 286.559 358.615 286.224C358.726 285.777 358.503 285.554 358.168 285.554Z" fill="#F5BBFD"/>
<path d="M344.196 284.213C341.85 283.878 339.504 283.543 337.269 283.208C336.934 283.208 336.599 283.32 336.599 283.655C336.599 283.99 336.711 284.325 337.046 284.325C339.28 284.66 341.626 285.107 343.973 285.33C343.973 285.33 343.973 285.33 344.084 285.33C344.419 285.33 344.643 285.107 344.643 284.772C344.755 284.548 344.531 284.325 344.196 284.213Z" fill="#F5BBFD"/>
<path d="M266.555 241.537C266.331 241.313 265.996 241.313 265.773 241.425C265.549 241.648 265.549 241.983 265.661 242.207C267.337 244.106 268.901 245.894 270.353 247.458C270.465 247.569 270.577 247.681 270.8 247.681C270.912 247.681 271.135 247.681 271.247 247.569C271.47 247.346 271.47 247.011 271.247 246.787C269.795 245.223 268.342 243.436 266.555 241.537Z" fill="#F5BBFD"/>
<path d="M258.398 231.929L257.504 230.812C257.28 230.588 256.945 230.476 256.722 230.7C256.498 230.923 256.498 231.258 256.61 231.482L257.504 232.599C258.733 234.051 259.85 235.504 261.079 236.844C261.19 236.956 261.302 237.068 261.526 237.068C261.637 237.068 261.749 237.068 261.861 236.956C262.084 236.733 262.084 236.397 261.973 236.174C260.855 234.722 259.626 233.381 258.398 231.929Z" fill="#F5BBFD"/>
<path d="M286.444 261.311C286.22 261.087 285.885 261.199 285.662 261.423C285.438 261.646 285.55 261.981 285.773 262.205C287.673 263.657 289.572 265.109 291.471 266.45C291.583 266.562 291.695 266.562 291.806 266.562C292.03 266.562 292.141 266.45 292.253 266.338C292.477 266.115 292.365 265.668 292.141 265.556C290.242 264.104 288.343 262.763 286.444 261.311Z" fill="#F5BBFD"/>
<path d="M276.164 251.815C275.941 251.591 275.606 251.591 275.382 251.815C275.159 252.038 275.159 252.373 275.382 252.597C277.058 254.273 278.846 255.948 280.521 257.512C280.633 257.624 280.745 257.624 280.857 257.624C280.968 257.624 281.192 257.512 281.303 257.401C281.527 257.177 281.527 256.842 281.303 256.619C279.516 255.166 277.84 253.602 276.164 251.815Z" fill="#F5BBFD"/>
<path d="M382.969 285.554C381.852 285.554 380.623 285.666 379.506 285.666C379.171 285.666 378.948 285.889 378.948 286.224C378.948 286.559 379.171 286.783 379.506 286.783C380.623 286.783 381.852 286.671 382.969 286.671C383.305 286.671 383.528 286.336 383.528 286.112C383.528 285.777 383.305 285.554 382.969 285.554Z" fill="#F5BBFD"/>
<path d="M217.514 208.133L266.782 219.528L222.318 220.98L217.514 208.133Z" fill="#230B42"/>
<path d="M221.651 209.361L222.21 203.664L266.786 219.528L221.651 209.361Z" fill="#613B94"/>
<path d="M145.746 197.215C146.278 188.779 129.688 180.866 108.69 179.541C87.692 178.216 70.2383 183.981 69.706 192.417C69.1737 200.853 85.7643 208.766 106.762 210.091C127.76 211.415 145.214 205.651 145.746 197.215Z" fill="#D6CEFE"/>
<path d="M132.034 196.349C132.376 190.931 121.771 185.851 108.347 185.004C94.9234 184.157 83.764 187.863 83.4221 193.282C83.0802 198.701 93.6852 203.78 107.109 204.627C120.533 205.474 131.692 201.768 132.034 196.349Z" fill="#BCAFFE"/>
<path d="M221.098 93.3972C219.31 92.7269 216.182 96.9722 213.948 100.659C213.948 100.659 214.283 97.0839 213.166 97.3073C211.937 97.4191 211.378 103.899 211.043 105.91C211.043 105.91 211.043 105.798 211.155 105.798C211.155 105.91 211.043 105.91 211.043 105.91C211.043 105.91 211.043 105.91 210.931 105.91C211.602 107.474 212.607 109.261 214.395 110.714C214.953 110.378 215.4 110.043 215.847 109.82C222.215 105.016 224.338 94.5144 221.098 93.3972Z" fill="#F5B6B7"/>
<path d="M214.283 110.602C205.681 115.853 178.868 138.196 170.377 140.654C166.579 141.771 158.312 142.777 149.933 143.559C143.341 144.118 136.75 144.564 132.058 144.9C128.371 145.123 125.913 145.235 125.913 145.235L120.439 117.975C120.439 117.975 134.739 121.662 148.145 123.785C156.971 125.237 165.35 126.019 169.037 124.678C178.086 121.327 208.921 106.357 210.708 105.798C211.49 107.362 212.607 109.15 214.283 110.602Z" fill="#391866"/>
<path d="M125.907 198.078C125.907 198.078 116.299 201.318 106.021 200.424C95.7429 199.419 87.6992 194.838 87.6992 194.838C88.4812 188.582 88.146 184.672 88.8163 178.415C90.7156 160.093 84.4593 134.175 99.5414 119.316C100.323 118.534 101.887 117.864 103.675 117.305C109.708 115.517 119.316 115.517 120.545 118.087C120.545 118.087 132.052 129.371 133.169 140.878C134.286 152.385 130.041 163.11 128.7 169.925C127.918 173.723 127.583 177.745 127.359 181.655C126.801 195.62 125.907 197.966 125.907 198.078Z" fill="#613B94"/>
<path d="M106.014 222.209C104.561 225.226 95.8471 221.316 91.7135 214.724C91.2666 214.054 90.708 212.937 89.926 211.708C91.1549 209.138 93.9479 208.58 95.4002 208.468C95.7354 209.697 95.9588 210.367 95.9588 210.367C96.4057 210.591 99.9807 212.043 101.433 212.49C102.774 212.825 102.439 214.166 100.539 214.277C103.556 217.07 106.796 220.534 106.014 222.209Z" fill="#F5B6B7"/>
<path d="M87.5892 164.339C87.3658 165.679 88.0361 170.595 89.0415 176.628C89.265 178.08 89.4884 179.533 89.8236 180.985C91.0525 187.8 92.5048 195.397 93.7338 201.094C94.4041 204.222 94.9627 206.68 95.5213 208.356C93.9572 208.468 91.2759 208.915 90.047 211.596C86.9189 205.786 82.5618 194.95 79.2103 185.118C75.9704 175.734 73.6243 167.132 74.1829 164.45C75.4118 158.418 80.6626 142.665 84.3494 136.185C88.0361 129.706 98.426 115.964 103.9 117.193C111.385 118.869 107.14 134.175 99.6549 142.442C94.6275 148.028 91.2759 154.061 89.3767 158.753C88.3712 160.987 87.8126 162.886 87.5892 164.339Z" fill="#391866"/>
<path d="M105.018 67.3666C105.018 67.3666 99.8791 64.797 96.8627 69.4892C93.7345 74.0697 91.947 110.602 91.947 110.602C91.947 110.602 94.74 115.853 101.89 116.076C109.152 116.3 117.531 116.076 117.531 116.076C117.531 116.076 127.139 121.103 137.082 120.321C147.025 119.539 149.482 117.305 149.482 117.305C149.482 117.305 158.196 59.6579 130.714 55.5243C105.018 51.5024 105.018 67.3666 105.018 67.3666Z" fill="#4B164C"/>
<path d="M125.245 110.043C125.245 110.043 123.569 111.719 123.01 112.501C122.34 113.395 121.67 114.624 121.223 116.076C120.217 119.092 119.547 121.997 119.547 122.444C119.547 122.444 116.419 126.466 113.626 123.561C110.833 120.656 110.051 118.981 110.051 118.981C110.051 118.981 110.051 118.981 110.051 118.869C110.163 118.199 110.945 113.842 111.28 110.267C111.615 107.25 110.945 101.217 110.945 101.217C113.067 103.228 114.967 105.463 117.536 107.138C120.106 108.814 125.245 110.043 125.245 110.043Z" fill="#F5C6C7"/>
<path d="M125.241 110.043L123.007 112.501C113.064 110.267 111.053 101.553 110.941 100.994C111.165 101.441 114.851 106.915 121.443 109.149C122.56 109.596 123.901 109.931 125.241 110.043Z" fill="#F5A7A8"/>
<path d="M141.56 101.553C141.002 104.122 139.549 106.468 136.645 108.256C134.745 109.373 132.511 110.043 130.277 110.155C126.367 110.49 122.456 109.708 118.993 108.032C117.317 107.139 115.641 106.133 114.189 104.793C112.849 103.675 110.056 100.436 110.056 100.436C107.263 99.3184 101.006 98.648 102.235 94.1793C103.464 89.5988 108.045 93.2855 108.045 93.2855C108.045 93.2855 108.045 93.0621 107.933 92.6152C107.933 92.28 107.821 91.7214 107.821 91.0511C107.821 90.3808 107.821 89.7105 107.821 88.9285C108.156 81.4433 110.838 66.9198 128.042 66.5847C135.639 66.3612 139.438 71.612 140.22 72.8409C140.331 73.0644 140.443 73.1761 140.443 73.1761C140.443 73.1761 140.331 75.0753 140.331 77.5331C140.331 78.2034 140.331 78.762 140.331 79.4323C140.331 81.8902 140.331 84.4597 140.555 86.9175C140.667 88.3699 141.002 89.8222 141.225 91.3863C141.337 92.28 141.56 93.2855 141.672 94.1793C141.895 96.7488 142.119 99.2066 141.56 101.553Z" fill="#F5C6C7"/>
<path d="M126.04 86.5824C125.593 86.3589 125.146 86.6941 124.923 87.1409C124.588 86.8058 124.141 86.5823 123.806 86.8058C122.912 87.4761 124.364 89.2636 125.258 88.9285L125.37 88.8167C126.04 88.3699 126.71 87.0292 126.04 86.5824Z" fill="#501347"/>
<path d="M138.212 86.5824C137.765 86.3589 137.318 86.6941 137.094 87.1409C136.759 86.8058 136.312 86.5823 135.977 86.8058C135.083 87.4761 136.536 89.2636 137.43 88.9285L137.541 88.8167C138.212 88.3699 138.994 87.0292 138.212 86.5824Z" fill="#501347"/>
<path d="M120.782 84.6832C120.782 84.6832 123.687 83.4543 125.363 83.1192C127.15 82.784 128.379 82.784 128.379 82.784C128.379 82.784 128.714 83.0074 128.714 83.3426C128.714 83.6777 128.491 84.1246 128.491 84.1246C128.491 84.1246 127.038 84.0129 125.139 84.3481C123.24 84.6832 121.676 85.4653 121.676 85.4653C121.676 85.4653 121.117 85.4653 120.894 85.1301C120.559 84.9067 120.782 84.6832 120.782 84.6832Z" fill="#BF2A2B"/>
<path d="M141.115 83.6777C141.115 83.6777 138.657 82.8957 137.205 82.8957C135.753 82.784 134.747 83.1191 134.747 83.1191C134.747 83.1191 134.524 83.4543 134.636 83.7894C134.747 84.1246 134.971 84.5715 134.971 84.5715C134.971 84.5715 136.088 84.2363 137.652 84.2363C139.216 84.2363 140.557 84.7949 140.557 84.7949C140.557 84.7949 140.892 84.6832 141.115 84.348C141.339 83.9012 141.115 83.6777 141.115 83.6777Z" fill="#BF2A2B"/>
<path d="M134.188 94.5145C133.965 94.5145 133.741 94.4028 133.741 94.1793C133.63 93.9559 133.853 93.7324 134.077 93.6207C134.523 93.509 134.747 93.3973 134.97 93.0621C135.194 92.727 135.082 92.3918 135.082 92.0566C134.97 91.4981 133.741 90.8277 133.183 90.6043H133.071L132.959 90.4926C132.959 90.3809 131.73 88.9285 131.395 84.9066C131.395 84.6832 131.507 84.4597 131.842 84.4597C132.066 84.4597 132.289 84.5715 132.401 84.9066C132.736 88.0348 133.518 89.5988 133.741 89.934C134.188 90.1574 135.752 90.9395 135.976 91.9449C136.199 92.6152 136.087 93.1738 135.752 93.6207C135.417 93.9559 134.97 94.291 134.188 94.5145C134.3 94.5145 134.3 94.4027 134.188 94.5145Z" fill="#F5A7A8"/>
<path d="M139.775 105.575C137.429 108.703 133.519 110.602 126.369 110.155C126.145 110.155 125.475 110.043 125.252 110.043C123.911 109.932 122.57 109.596 121.453 109.261C121.9 108.926 129.944 101.888 138.211 105.016C138.77 105.128 139.328 105.351 139.775 105.575Z" fill="#F5A7A8"/>
<path d="M133.407 99.8769C131.62 99.8769 130.391 98.8714 130.279 98.8714C130.056 98.7597 130.056 98.5362 130.167 98.3128C130.279 98.0893 130.503 98.0894 130.726 98.2011C130.838 98.3128 133.296 100.1 135.642 98.2011C135.865 98.0894 136.089 98.0893 136.2 98.3128C136.312 98.5362 136.312 98.7597 136.089 98.8714C135.307 99.5417 134.301 99.8769 133.407 99.8769Z" fill="#F5A7A8"/>
<path d="M140.655 72.9525C140.655 72.9525 140.543 72.8408 140.431 72.6174C139.426 71.0533 135.851 66.1377 128.366 66.1377H128.031C110.267 66.5845 107.809 82.2252 107.474 88.8166C107.474 89.5987 107.474 90.3807 107.474 91.051C107.474 91.7213 107.474 92.2799 107.586 92.6151V92.8385L107.809 92.9502C107.921 92.9502 108.145 92.9503 108.368 93.062H108.591C109.82 93.062 110.938 92.6151 111.943 91.6096C115.518 87.9229 115.741 78.2033 115.63 73.6228C119.987 75.6338 129.93 79.7674 139.426 79.7674H139.761C139.873 79.7674 140.096 79.7674 140.208 79.7674H140.543V77.533C140.543 75.0752 140.655 73.176 140.655 73.176V72.9525Z" fill="#4B164C"/>
<path d="M420.975 288.616C421.507 280.18 404.917 272.267 383.919 270.942C362.921 269.617 345.467 275.382 344.935 283.818C344.402 292.254 360.993 300.167 381.991 301.492C402.989 302.817 420.443 297.052 420.975 288.616Z" fill="#D6CEFE"/>
<path d="M403.205 287.414C403.546 281.995 392.941 276.916 379.518 276.069C366.094 275.222 354.934 278.928 354.592 284.347C354.25 289.765 364.855 294.845 378.279 295.692C391.703 296.539 402.863 292.833 403.205 287.414Z" fill="#BCAFFE"/>
<path d="M275.158 174.282C277.057 173.723 279.738 178.192 281.749 182.102C281.749 182.102 281.637 178.527 282.866 178.751C284.095 178.974 284.095 185.454 284.319 187.465C284.319 187.465 284.319 187.353 284.207 187.241C284.207 187.353 284.207 187.353 284.207 187.353C284.207 187.353 284.207 187.353 284.319 187.353C283.537 188.805 282.419 190.593 280.52 191.822C279.962 191.486 279.515 191.151 279.179 190.816C273.035 185.901 271.918 175.175 275.158 174.282Z" fill="#F5B6B7"/>
<path d="M280.523 192.045C288.567 197.966 313.48 222.433 321.748 225.784C325.434 227.237 333.59 228.912 341.857 230.365C348.337 231.482 354.928 232.487 359.509 233.158C363.195 233.716 365.542 234.051 365.542 234.051L373.25 207.351C373.25 207.351 358.615 209.808 345.097 210.814C336.271 211.484 327.781 211.596 324.205 209.92C315.38 205.898 286.109 188.247 284.322 187.576C283.54 189.029 282.311 190.816 280.523 192.045Z" fill="#ED68B7"/>
<path d="M361.185 286.671C361.185 286.671 370.458 290.805 380.736 290.693C391.014 290.581 399.505 286.671 399.505 286.671C399.282 280.303 399.952 276.505 399.729 270.248C399.393 251.815 407.884 226.566 394.031 210.479C393.249 209.585 391.908 208.803 390.121 208.133C384.311 205.898 374.703 205.005 373.251 207.462C373.251 207.462 364.202 216.176 362.191 227.572C360.068 238.967 360.068 251.591 360.739 258.406C361.185 262.316 361.185 266.338 361.074 270.248C360.515 284.213 361.185 286.559 361.185 286.671Z" fill="#F77BAD"/>
<path d="M378.946 312.478C380.175 315.606 389.112 312.478 393.916 306.222C394.363 305.552 395.145 304.546 395.927 303.317C394.922 300.636 392.241 299.854 390.788 299.631C390.341 300.86 390.118 301.53 390.118 301.53C389.671 301.642 385.984 302.87 384.42 303.206C383.08 303.429 383.303 304.77 385.091 305.105C381.851 307.451 378.276 310.691 378.946 312.478Z" fill="#F5B6B7"/>
<path d="M402.185 256.284C402.296 257.624 401.291 262.428 399.727 268.461C399.392 269.802 399.057 271.254 398.61 272.818C396.822 279.521 394.811 286.895 393.024 292.481C392.13 295.497 391.236 297.955 390.678 299.631C392.13 299.854 394.923 300.636 395.817 303.317C399.392 297.843 404.643 287.453 408.888 277.845C412.91 268.684 415.926 260.417 415.591 257.736C414.921 251.591 411.011 235.504 407.771 228.689C404.643 221.874 395.482 207.351 389.896 208.133C382.299 209.138 385.203 224.779 391.907 233.605C396.375 239.638 399.28 245.894 400.844 250.698C401.738 252.932 402.185 254.831 402.185 256.284Z" fill="#ED68B7"/>
<path d="M369.337 199.083C369.337 199.083 370.789 200.983 371.348 201.765C372.018 202.77 372.465 203.999 372.8 205.451C373.582 208.58 373.917 211.484 373.917 211.931C373.917 211.931 376.598 216.176 379.727 213.495C382.743 210.814 383.637 209.25 383.637 209.25C383.637 209.25 383.637 209.25 383.637 209.138C383.525 208.468 383.19 203.999 383.078 200.424C382.966 197.408 384.195 191.375 384.195 191.375C381.961 193.162 379.838 195.285 377.157 196.737C374.587 198.19 369.337 199.083 369.337 199.083Z" fill="#F5B6B7"/>
<path d="M369.337 199.083L371.348 201.765C381.514 200.424 384.195 191.933 384.419 191.375C384.084 191.71 379.95 196.961 373.247 198.637C372.018 198.86 370.677 199.083 369.337 199.083Z" fill="#F57376"/>
<path d="M353.806 189.252C354.141 191.822 355.37 194.279 358.163 196.29C359.951 197.631 362.185 198.413 364.419 198.748C368.218 199.418 372.24 198.972 375.815 197.631C377.602 196.961 379.278 195.955 380.842 194.838C382.295 193.832 385.311 190.816 385.311 190.816C388.216 189.922 394.472 189.811 393.69 185.23C392.796 180.538 387.992 183.89 387.992 183.89C387.992 183.89 387.992 183.666 388.104 183.219C388.216 182.884 388.216 182.325 388.327 181.655C388.439 180.985 388.439 180.314 388.551 179.532C388.886 172.047 387.322 157.412 370.341 155.513C362.744 154.731 358.61 159.535 357.716 160.764C357.605 160.987 357.493 160.987 357.493 160.987C357.493 160.987 357.381 162.886 357.269 165.344C357.269 166.014 357.158 166.573 357.158 167.243C356.934 169.701 356.711 172.271 356.264 174.617C356.041 176.069 355.594 177.522 355.259 178.974C355.035 179.868 354.812 180.873 354.588 181.767C353.806 184.336 353.471 186.906 353.806 189.252Z" fill="#F5B6B7"/>
<path d="M370.448 175.622C370.895 175.399 371.23 175.734 371.566 176.181C371.901 175.846 372.348 175.622 372.683 175.957C373.465 176.628 371.901 178.415 371.119 177.968L371.007 177.857C370.337 177.41 369.778 175.957 370.448 175.622Z" fill="#501347"/>
<path d="M358.269 174.617C358.716 174.393 359.051 174.729 359.386 175.175C359.721 174.84 360.168 174.617 360.503 174.952C361.285 175.622 359.721 177.41 358.939 176.963L358.828 176.851C358.157 176.404 357.599 174.952 358.269 174.617Z" fill="#501347"/>
<path d="M375.927 174.17C375.927 174.17 373.134 172.718 371.458 172.271C369.782 171.824 368.442 171.712 368.442 171.712C368.442 171.712 368.107 171.936 368.107 172.271C367.995 172.606 368.218 173.164 368.218 173.164C368.218 173.164 369.782 173.164 371.57 173.611C373.469 174.058 374.921 174.952 374.921 174.952C374.921 174.952 375.48 174.952 375.703 174.617C376.039 174.393 375.927 174.17 375.927 174.17Z" fill="#501347"/>
<path d="M355.702 171.377C355.702 171.377 358.272 170.818 359.612 170.93C361.065 171.042 362.07 171.265 362.07 171.265C362.07 171.265 362.182 171.6 362.182 171.936C362.07 172.271 361.847 172.718 361.847 172.718C361.847 172.718 360.73 172.271 359.166 172.159C357.601 172.047 356.149 172.494 356.149 172.494C356.149 172.494 355.814 172.382 355.702 171.936C355.479 171.6 355.702 171.377 355.702 171.377Z" fill="#501347"/>
<path d="M361.737 182.772C361.96 182.772 362.184 182.661 362.184 182.437C362.295 182.214 362.183 181.99 361.848 181.879C361.401 181.767 361.178 181.543 361.066 181.32C360.955 180.985 360.955 180.538 361.066 180.315C361.29 179.756 362.519 179.197 363.077 178.974H363.189L363.301 178.862C363.301 178.75 364.641 177.41 365.312 173.388C365.312 173.165 365.2 172.941 364.976 172.829C364.753 172.829 364.53 172.941 364.418 173.165C363.859 176.293 362.966 177.745 362.742 178.08C362.295 178.304 360.619 178.974 360.284 179.979C360.061 180.65 360.061 181.208 360.284 181.655C360.508 182.214 360.955 182.549 361.737 182.772C361.625 182.772 361.625 182.772 361.737 182.772Z" fill="#F5898B"/>
<path d="M355.257 193.386C357.38 196.737 361.066 198.972 368.216 199.083C368.44 199.083 369.11 199.083 369.334 199.083C370.674 199.083 372.015 198.86 373.244 198.636C372.909 198.19 365.423 190.593 356.933 192.939C356.262 193.05 355.704 193.162 355.257 193.386Z" fill="#F5898B"/>
<path d="M361.965 188.135C363.753 188.247 365.094 187.465 365.094 187.353C365.317 187.241 365.317 187.018 365.205 186.794C365.094 186.571 364.87 186.571 364.647 186.683C364.535 186.794 361.965 188.358 359.731 186.236C359.619 186.124 359.284 186.124 359.172 186.236C359.061 186.347 359.061 186.683 359.172 186.794C360.178 187.8 361.183 188.135 361.965 188.135Z" fill="#F5898B"/>
<path d="M385.98 165.791C385.98 165.791 380.059 167.802 362.63 166.35C351.794 165.456 334.701 146.24 346.431 140.431C358.05 134.622 368.105 153.167 368.105 153.167C368.105 153.167 369.445 148.363 373.802 148.81C378.048 149.257 379.388 153.055 379.388 153.055C379.388 153.055 381.399 150.262 385.086 151.268C388.661 152.273 387.544 157.301 387.544 157.301C387.544 157.301 393.912 153.614 396.816 157.524C399.721 161.434 395.029 170.93 395.029 170.93C395.029 170.93 399.274 171.712 398.604 177.187C397.934 182.661 387.991 183.778 387.991 183.778C387.991 183.778 384.527 180.538 384.416 174.952C384.304 169.366 385.98 165.791 385.98 165.791Z" fill="#FD5658"/>
</g>
<defs>
<clipPath id="clip0_1_94">
<rect width="490" height="416.489" fill="white"/>
</clipPath>
</defs>
</svg>
