<svg width="178" height="18" viewBox="0 0 178 18" fill="none" xmlns="http://www.w3.org/2000/svg">
<path d="M17.8922 6.89821C14.1198 6.89821 10.994 3.88024 10.994 0H6.8982C6.8982 3.77246 3.88024 6.89821 0 6.89821V11.1018C3.77246 11.1018 6.8982 14.1198 6.8982 18H11.1018C11.1018 14.2275 14.1198 11.1018 18 11.1018V6.89821H17.8922Z" fill="#4C0B84"/>
<path d="M98 6.8982C94.2276 6.8982 91.1018 3.88024 91.1018 0H86.8982C86.8982 3.77246 83.8802 6.8982 80 6.8982V11.1018C83.7725 11.1018 86.8982 14.1197 86.8982 18H91.1018C91.1018 14.2275 94.1198 11.1018 98 11.1018V6.8982Z" fill="#F77BAD"/>
<path d="M178 6.8982C174.228 6.8982 171.102 3.88024 171.102 0H166.898C166.898 3.77246 163.88 6.8982 160 6.8982V11.1018C163.772 11.1018 166.898 14.1197 166.898 18H171.102C171.102 14.2275 174.12 11.1018 178 11.1018V6.8982Z" fill="#4C0B84"/>
</svg>
