<svg width="150" height="150" viewBox="0 0 150 150" fill="none" xmlns="http://www.w3.org/2000/svg">
<path d="M92.5325 37.7528C102.249 47.5147 118.026 47.5347 127.768 37.7927L146.743 16.3655L142.961 11.5745C135.742 2.43204 122.173 1.61272 113.91 9.82591C112.186 11.3297 108.904 12.5537 106.616 12.5537H85.9329C83.1103 12.5537 80.3026 12.9433 77.5849 13.7027L55.3483 19.9475L33.1467 32.2723C30.7387 33.9559 34.5905 44.762 45.9111 40.4306C51.8912 38.1325 59.6747 35.6145 63.0519 33.2665L79.9679 30.209C82.1561 29.5446 85.2485 30.3339 86.8472 31.9626L92.5325 37.7528Z" fill="white"/>
<path d="M77.6148 13.6929L55.3533 19.9427L33.1467 32.2725C30.7387 33.9561 34.5905 44.7621 45.9111 40.4307C51.8912 38.1326 59.6747 35.6147 63.0519 33.2666L79.9679 30.2092C82.1561 29.5447 85.2485 30.3341 86.8472 31.9627L92.5325 37.7479C94.6108 39.8312 96.9938 41.3799 99.5067 42.5789C107.26 43.9778 117.372 41.4149 123.367 35.4149L144.879 13.7628L143.061 11.4897C135.777 2.37224 122.188 1.59289 113.915 9.82107C112.191 11.3248 108.909 12.5488 106.626 12.5488H85.913C83.1053 12.5488 80.3176 12.9385 77.6148 13.6929Z" fill="#FAD3FF"/>
<path d="M67.5895 30.0942H98.314L97.7695 42.5689H82.2623C67.5895 42.5689 67.5895 32.1725 67.5895 30.0942Z" fill="#FAD3FF"/>
<path d="M57.3223 112.251C47.6053 102.484 31.8284 102.469 22.0865 112.211L3.11218 133.639L6.89405 138.43C14.1081 147.577 27.6818 148.391 35.945 140.178C37.6685 138.679 40.9508 137.45 43.2389 137.45H63.9218C66.7445 137.45 69.5521 137.066 72.2699 136.301L94.5065 130.062L116.713 117.732C119.121 116.048 115.269 105.242 103.949 109.569C97.9686 111.867 90.185 114.385 86.8078 116.733L69.8918 119.79C67.7037 120.455 64.6112 119.665 63.0126 118.037L57.3223 112.251Z" fill="white"/>
<path d="M72.2511 136.306L94.5176 130.061L116.724 117.732C119.132 116.048 115.28 105.242 103.96 109.568C97.9798 111.867 90.1962 114.384 86.819 116.733L69.903 119.79C67.7149 120.454 64.6224 119.665 63.0237 118.036L57.3385 112.251C55.2602 110.163 52.8771 108.614 50.3642 107.42C42.6106 106.021 32.499 108.584 26.504 114.584L4.99182 136.231L6.81031 138.504C14.0943 147.627 27.683 148.401 35.9562 140.173C37.6797 138.674 40.962 137.445 43.2451 137.445H63.958C66.7606 137.45 69.5533 137.066 72.2511 136.306Z" fill="#FAD3FF"/>
<path d="M82.2723 119.905H51.5477L52.0923 107.436H67.5994C82.2723 107.436 82.2723 117.827 82.2723 119.905Z" fill="#FAD3FF"/>
<path d="M86.4571 52.4907C81.5461 52.4907 77.2097 54.9737 74.6418 58.7505C72.069 54.9737 67.7376 52.4907 62.8266 52.4907C54.9382 52.4907 48.5485 58.8804 48.5485 66.7689C48.5485 83.505 74.6418 97.4535 74.6418 97.4535C74.6418 97.4535 100.735 83.505 100.735 66.7689C100.735 58.8804 94.3455 52.4907 86.4571 52.4907Z" fill="#FF7BAC"/>
<path d="M86.4571 52.4907C81.5461 52.4907 77.2097 54.9737 74.6418 58.7505C72.069 54.9737 67.7376 52.4907 62.8266 52.4907C54.9382 52.4907 48.5485 58.8804 48.5485 66.7689C48.5485 83.505 74.6418 97.4535 74.6418 97.4535C74.6418 97.4535 100.735 83.505 100.735 66.7689C100.735 58.8804 94.3455 52.4907 86.4571 52.4907Z" fill="white"/>
<path d="M100.686 65.3301C100.652 65.2002 100.607 65.0803 100.572 64.9505C98.1086 60.644 93.5274 57.7065 88.2118 57.7065C84.5349 57.7065 81.1876 59.0953 78.6547 61.3784C77.3958 62.5175 75.4374 62.5524 74.1784 61.4134C71.7455 59.2052 68.5481 57.8214 65.026 57.7115C60.9294 57.5916 57.1276 59.5749 54.3299 62.5724C50.2782 66.9188 49.8836 71.0054 50.583 74.9272C56.658 87.8015 74.658 97.4535 74.658 97.4535C74.658 97.4535 102.26 82.7007 100.686 65.3301Z" fill="#FF7BAC"/>
<path d="M98.8052 59.7344C98.8852 60.3339 98.9901 60.9284 98.9901 61.5479C98.9901 69.5562 93.02 76.9251 86.7902 82.4306C78.8218 89.4747 66.8917 89.4148 58.9433 82.3456C54.9516 78.7936 51.0698 74.4722 48.8217 69.7111C51.5544 85.1083 74.6353 97.4531 74.6353 97.4531C74.6353 97.4531 100.729 83.5047 100.729 66.7685C100.729 64.1957 99.9943 61.8176 98.8052 59.7344Z" fill="#FD58A1"/>
<path d="M74.6477 99.9513C74.243 99.9513 73.8384 99.8514 73.4687 99.6565C72.3496 99.057 46.0564 84.7988 46.0564 66.7688C46.0564 57.5164 53.5802 49.9927 62.8325 49.9927C67.3038 49.9927 71.5353 51.7712 74.6477 54.8636C77.7651 51.7712 81.9966 49.9927 86.4629 49.9927C95.7152 49.9927 103.239 57.5164 103.239 66.7688C103.239 84.7988 76.9458 99.057 75.8267 99.6565C75.457 99.8514 75.0524 99.9513 74.6477 99.9513ZM62.8325 54.9885C56.3379 54.9885 51.0523 60.2742 51.0523 66.7688C51.0523 79.8879 69.7218 91.6931 74.6477 94.5807C79.5736 91.6931 98.2432 79.8929 98.2432 66.7688C98.2432 60.2742 92.9575 54.9885 86.4629 54.9885C82.5611 54.9885 78.9142 56.9219 76.711 60.1593C75.7768 61.5231 73.5086 61.5231 72.5794 60.1593C70.3812 56.9219 66.7343 54.9885 62.8325 54.9885Z" fill="#4C0B84"/>
<path d="M82.268 122.402H52.1279C50.7491 122.402 49.63 121.283 49.63 119.904C49.63 118.526 50.7491 117.406 52.1279 117.406H79.5502C78.596 112.446 74.5843 109.933 67.5951 109.933H50.5043C49.1254 109.933 48.0063 108.814 48.0063 107.435C48.0063 106.056 49.1254 104.937 50.5043 104.937H67.5951C78.5111 104.937 84.7709 110.392 84.7709 119.904C84.7659 121.288 83.6518 122.402 82.268 122.402Z" fill="#4C0B84"/>
<path d="M2.50106 134.418C1.86659 134.418 1.22712 134.178 0.737525 133.688C-0.241664 132.719 -0.24666 131.135 0.727533 130.156L20.3213 110.443C28.5295 102.244 41.0491 100.091 51.4955 105.082C52.7394 105.677 53.264 107.165 52.6695 108.414C52.075 109.658 50.5862 110.188 49.3373 109.588C40.8043 105.507 30.5628 107.265 23.8584 113.97L4.2696 133.678C3.78 134.173 3.14053 134.418 2.50106 134.418Z" fill="#4C0B84"/>
<path d="M28.8413 150C28.1919 150 27.5424 149.75 27.0528 149.246C26.0936 148.257 26.1136 146.678 27.1028 145.714L34.3118 138.694C36.7298 136.336 39.9272 135.043 43.3044 135.043H63.9572C66.5351 135.043 69.093 134.688 71.5709 133.993L93.5477 127.744L114.91 115.883C114.875 115.194 114.42 113.725 113.127 112.561C111.183 110.808 108.315 110.583 104.843 111.907C103.425 112.451 101.901 113.016 100.357 113.58C95.7609 115.264 90.5552 117.177 88.2371 118.786C87.9424 118.991 87.6126 119.131 87.2579 119.196L82.397 120.075C81.0281 120.31 79.7392 119.415 79.4944 118.062C79.2496 116.703 80.1488 115.404 81.5077 115.159L85.8641 114.375C88.7967 112.506 93.7975 110.673 98.6385 108.894C100.157 108.34 101.656 107.785 103.055 107.246C111.238 104.128 116.629 107.76 118.782 111.812C120.5 115.044 120.241 118.326 118.152 119.785L95.7259 132.25C95.5561 132.345 95.3812 132.415 95.1964 132.47L72.9298 138.804C70.0072 139.629 66.9897 140.043 63.9572 140.043H43.2994C41.2311 140.043 39.2727 140.838 37.7889 142.282L30.5849 149.291C30.1003 149.765 29.4708 150 28.8413 150Z" fill="#4C0B84"/>
<path d="M99.3683 45.0667H82.2775C71.3615 45.0667 65.1017 39.6112 65.1017 30.0941C65.1017 28.7153 66.2208 27.5962 67.5996 27.5962H97.7396C99.1185 27.5962 100.238 28.7153 100.238 30.0941C100.238 31.473 99.1185 32.5921 97.7396 32.5921H70.3174C71.2716 37.5579 75.2832 40.0709 82.2725 40.0709H99.3633C100.742 40.0709 101.861 41.1899 101.861 42.5688C101.861 43.9476 100.752 45.0667 99.3683 45.0667Z" fill="#4C0B84"/>
<path d="M110.171 47.5795C106.179 47.5795 102.157 46.7102 98.4054 44.9167C97.1615 44.3222 96.6369 42.8334 97.2314 41.5844C97.8309 40.3405 99.3147 39.8159 100.564 40.4104C109.102 44.492 119.343 42.7285 126.043 36.029L145.636 16.3204C146.61 15.3462 148.189 15.3362 149.168 16.3104C150.148 17.2846 150.153 18.8633 149.178 19.8425L129.575 39.5511C124.324 44.8068 117.29 47.5795 110.171 47.5795Z" fill="#4C0B84"/>
<path d="M40.9525 43.9425C36.0366 43.9425 32.6894 41.1848 31.1007 38.2023C29.3871 34.965 29.6469 31.6827 31.7352 30.2239L54.1616 17.7592C54.3314 17.6643 54.5063 17.5943 54.6911 17.5394L76.9577 11.2046C79.8853 10.3853 82.8978 9.97066 85.9303 9.97066H106.583C108.651 9.97066 110.61 9.17632 112.094 7.72752L119.298 0.708336C120.282 -0.250869 121.87 -0.235881 122.83 0.753299C123.794 1.74248 123.774 3.32617 122.785 4.28537L115.576 11.3046C113.153 13.6676 109.955 14.9615 106.578 14.9615H85.9253C83.3524 14.9615 80.7895 15.3112 78.3116 16.0057L56.3398 22.2655L34.9775 34.1256C35.0124 34.8151 35.4671 36.2839 36.761 37.4479C38.7094 39.2114 41.572 39.4263 45.0441 38.0974C46.453 37.5578 47.9667 36.9983 49.5004 36.4387C54.1066 34.7451 59.3323 32.8317 61.6554 31.2181C61.9501 31.0132 62.2799 30.8733 62.6346 30.8084L67.4955 29.9291C68.8544 29.6893 70.1483 30.5836 70.3981 31.9425C70.6429 33.3013 69.7437 34.6003 68.3848 34.8451L64.0284 35.6294C61.0908 37.5028 56.075 39.3413 51.219 41.1248C49.7103 41.6794 48.2215 42.2239 46.8326 42.7585C44.6794 43.5878 42.7161 43.9425 40.9525 43.9425Z" fill="#4C0B84"/>
<path d="M39.3976 96.1344C38.5933 96.1344 37.804 95.7447 37.3194 95.0303C32.3335 87.6115 29.7007 78.9487 29.7007 69.9761C29.7007 63.5264 31.0396 57.2966 33.6774 51.4564C34.2469 50.2025 35.7257 49.638 36.9847 50.2075C38.2386 50.777 38.7981 52.2558 38.2336 53.5147C35.8856 58.7054 34.6965 64.2409 34.6965 69.9761C34.6965 77.9545 37.0396 85.6531 41.4659 92.2477C42.2353 93.3917 41.9306 94.9454 40.7865 95.7148C40.3619 95.9995 39.8773 96.1344 39.3976 96.1344Z" fill="#4C0B84"/>
<path d="M107.015 99.9563C106.446 99.9563 105.871 99.7614 105.402 99.3618C104.353 98.4675 104.223 96.8938 105.117 95.8397C111.242 88.6357 114.614 79.4483 114.614 69.9761C114.614 65.6047 113.915 61.3133 112.531 57.2117C112.091 55.9028 112.791 54.489 114.099 54.0493C115.423 53.6097 116.822 54.3141 117.262 55.618C118.821 60.2342 119.61 65.0652 119.61 69.9761C119.61 80.6323 115.813 90.9687 108.919 99.077C108.429 99.6565 107.725 99.9563 107.015 99.9563Z" fill="#4C0B84"/>
</svg>
