<svg width="125" height="150" viewBox="0 0 125 150" fill="none" xmlns="http://www.w3.org/2000/svg">
<path d="M34.2402 24.834C34.2785 24.8445 34.3134 24.8549 34.3517 24.8654C34.39 24.8793 34.4283 24.8898 34.4667 24.9002L34.5712 24.9316C34.6688 24.9594 34.7594 24.9873 34.85 25.0082C34.9196 25.0222 34.9893 25.0361 35.059 25.0465C35.1705 25.0675 35.2646 25.0849 35.3587 25.0953C35.4284 25.1058 35.5015 25.1128 35.5747 25.1162C35.6723 25.1267 35.7698 25.1302 35.8639 25.1337C35.9301 25.1337 35.9963 25.1371 36.0625 25.1337C36.174 25.1337 36.2751 25.1267 36.3726 25.1197C36.4528 25.1128 36.5085 25.1093 36.5643 25.1023C36.6688 25.0884 36.7768 25.0709 36.8813 25.0535L37.0556 25.0222C37.1706 24.9978 37.2855 24.9664 37.397 24.9316C37.4423 24.9211 37.4911 24.9072 37.5434 24.8932C37.7037 24.841 37.8465 24.7887 37.9754 24.733C37.9894 24.7295 37.9998 24.7225 38.0138 24.719C38.1427 24.6633 38.2751 24.5971 38.4214 24.5169C38.4807 24.4821 38.5225 24.4577 38.5608 24.4333C38.6653 24.3741 38.7664 24.3113 38.864 24.2451L39.0068 24.1406C39.0904 24.0779 39.1776 24.0152 39.2577 23.9455C39.296 23.9141 39.3344 23.8793 39.3727 23.8444L39.4006 23.82C39.4772 23.7504 39.5504 23.6842 39.6166 23.6145C39.6723 23.5587 39.7176 23.5099 39.7664 23.4577C39.8291 23.388 39.8884 23.3148 39.9511 23.2382C39.9964 23.1824 40.0417 23.1232 40.087 23.0639C40.1392 22.9908 40.1915 22.9141 40.2438 22.834C40.2995 22.7503 40.3379 22.6946 40.3727 22.6354C40.418 22.5587 40.4598 22.4716 40.5051 22.388L40.5574 22.2869C40.5748 22.2521 40.5957 22.2172 40.6131 22.1824C40.6271 22.1475 40.6445 22.1127 40.6619 22.0744C43.4076 15.9767 44.1533 11.0951 42.8083 7.96958C41.7003 5.38416 38.6932 4.18205 36.1043 5.29008C34.6618 5.9103 33.5991 7.14029 33.1914 8.66994C32.9997 9.39121 32.4841 9.98355 31.7976 10.2797C31.1112 10.5724 30.3272 10.5376 29.6687 10.1822C28.2819 9.42605 26.6547 9.34591 25.2121 9.96613C22.6267 11.0776 21.4246 14.0847 22.5361 16.6701C23.8776 19.7956 27.923 22.6179 34.2402 24.834Z" fill="#F59FD2"/>
<path d="M83.7246 22.1928C83.735 22.2172 83.756 22.2521 83.7734 22.2869L83.8256 22.388C83.8709 22.4716 83.9127 22.5587 83.9615 22.6388C83.9929 22.6946 84.0312 22.7503 84.0695 22.8096C84.1392 22.9141 84.1915 22.9908 84.2438 23.0674C84.2891 23.1232 84.3344 23.1824 84.3797 23.2416C84.4424 23.3148 84.5016 23.388 84.5678 23.4577C84.6131 23.5099 84.6584 23.5587 84.7107 23.611C84.7804 23.6842 84.8535 23.7504 84.9267 23.8166L84.9581 23.8444C84.9964 23.8793 85.0347 23.9141 85.073 23.949C85.1532 24.0152 85.2403 24.0779 85.3274 24.1406L85.4703 24.2486C85.5644 24.3113 85.6654 24.3741 85.7664 24.4333C85.8083 24.4577 85.8501 24.4821 85.8884 24.5065C86.0417 24.5901 86.1811 24.6598 86.317 24.719C86.3309 24.7225 86.3414 24.7295 86.3553 24.733C86.4842 24.7887 86.6236 24.841 86.7769 24.8898C86.8431 24.9072 86.8919 24.9211 86.9372 24.935C87.0452 24.9664 87.1602 24.9978 87.2752 25.0222L87.4424 25.0535C87.5539 25.0709 87.6619 25.0884 87.7665 25.1023C87.8222 25.1093 87.878 25.1128 87.9302 25.1162C88.0557 25.1267 88.1567 25.1337 88.2578 25.1337H88.4668C88.5609 25.1302 88.6585 25.1267 88.756 25.1162C88.8292 25.1128 88.9024 25.1058 88.9791 25.0953C89.0662 25.0849 89.1602 25.0675 89.2543 25.05C89.3414 25.0361 89.4111 25.0222 89.4808 25.0082C89.5714 24.9873 89.662 24.9594 89.7561 24.9316L89.8641 24.9002C89.9024 24.8898 89.9407 24.8793 89.9791 24.8688C90.0174 24.8549 90.0557 24.841 90.094 24.8305C96.3973 22.6249 100.453 19.7991 101.795 16.6701C102.906 14.0847 101.704 11.0776 99.1186 9.96613C97.6726 9.34591 96.0489 9.42605 94.6621 10.1822C94.0035 10.5376 93.2195 10.5759 92.5331 10.2797C91.8467 9.98355 91.331 9.39121 91.1394 8.66994C90.7317 7.14029 89.669 5.9103 88.2264 5.29008C85.6375 4.18205 82.6305 5.38416 81.5225 7.96958C80.181 11.0951 80.9231 15.9732 83.6688 22.0779C83.6863 22.1162 83.7072 22.1545 83.7246 22.1928Z" fill="#F59FD2"/>
<path d="M98.5963 52.0436C99.1678 50.824 98.6416 49.371 97.4221 48.7996C96.2026 48.2282 94.7496 48.7543 94.1781 49.9738L81.934 76.0928L65.9999 42.0991H100.168L118.015 79.3995H85.7703L98.5963 52.0436Z" fill="#B698F9"/>
<path d="M106.974 98.3684C107.019 98.4068 107.072 98.4346 107.117 98.4695L105.542 100.184C105.514 100.152 105.486 100.121 105.455 100.09C105.444 100.079 105.434 100.069 105.42 100.058C105.378 100.017 105.333 99.9817 105.291 99.9434C104.856 99.581 104.298 99.3754 103.73 99.3754C103.089 99.3754 102.462 99.6368 102.005 100.09C101.552 100.543 101.295 101.173 101.295 101.814C101.295 102.452 101.549 103.076 101.995 103.529C101.998 103.532 102.002 103.536 102.005 103.539C102.044 103.578 102.082 103.612 102.124 103.647C102.169 103.686 102.214 103.72 102.26 103.755L100.148 106.055C100.106 106.013 100.068 105.968 100.026 105.93C100.023 105.923 100.016 105.919 100.009 105.912C99.9705 105.877 99.9322 105.849 99.8904 105.818C98.8903 105.017 97.4339 105.121 96.5628 106.079L67.6006 137.951L83.7437 84.2776H116.371L106.748 94.8701C105.863 95.8423 105.915 97.3371 106.845 98.25C106.87 98.2709 106.887 98.2953 106.911 98.3162C106.932 98.3336 106.953 98.351 106.974 98.3684Z" fill="#F59FD2"/>
<path d="M78.1008 79.3994H46.2326L62.1667 45.4092L78.1008 79.3994Z" fill="#F59FD2"/>
<path d="M58.3256 42.0991L42.3916 76.0928L26.4575 42.0991H58.3256Z" fill="#B698F9"/>
<path d="M56.7268 137.951L13.6842 90.5843C12.9141 89.7376 11.6911 89.5669 10.7294 90.0826C10.6771 90.1105 10.6214 90.1348 10.5691 90.1662C10.5203 90.1976 10.4785 90.2359 10.4297 90.2707L4.94183 84.2776H40.5836L56.7268 137.951Z" fill="#F59FD2"/>
<path d="M78.6485 84.2776L62.1569 139.094L45.6653 84.2776H78.6485Z" fill="#B698F9"/>
<path d="M38.5539 79.3993H6.30939L22.5954 45.3604L38.5539 79.3993Z" fill="#B698F9"/>
<path d="M106.17 101.815C106.17 102.459 105.909 103.086 105.452 103.539C104.999 103.992 104.372 104.254 103.728 104.254C103.198 104.254 102.679 104.072 102.257 103.755C102.212 103.721 102.167 103.686 102.121 103.647C102.08 103.613 102.041 103.578 102.003 103.539C101.999 103.536 101.996 103.532 101.992 103.529C101.546 103.076 101.292 102.452 101.292 101.815C101.292 101.173 101.55 100.543 102.003 100.09C102.459 99.6368 103.087 99.3755 103.728 99.3755C104.296 99.3755 104.853 99.5811 105.289 99.9434C105.33 99.9818 105.376 100.017 105.418 100.058C105.432 100.069 105.442 100.079 105.452 100.09C105.484 100.121 105.512 100.153 105.54 100.184C105.94 100.63 106.17 101.215 106.17 101.815Z" fill="#48446D"/>
<path d="M124.302 81.5179C124.298 81.4935 124.295 81.4657 124.288 81.4413C124.271 81.3368 124.25 81.2322 124.222 81.1347C124.218 81.1312 124.218 81.1277 124.218 81.1277C124.187 81.0197 124.142 80.9151 124.096 80.8141C124.093 80.8036 124.089 80.7932 124.086 80.7862L103.904 38.6077C103.497 37.761 102.643 37.2209 101.702 37.2209H22.6206C22.6102 37.2209 22.5997 37.2244 22.5893 37.2244C22.4847 37.2244 22.3802 37.2314 22.2722 37.2488H22.2687C22.1677 37.2628 22.0701 37.2871 21.9725 37.3115C21.9481 37.3185 21.9238 37.3255 21.8994 37.3324C21.8157 37.3603 21.7321 37.3917 21.6485 37.4265C21.6345 37.4335 21.6206 37.437 21.6102 37.4439C21.5997 37.4474 21.5927 37.4509 21.5823 37.4544C21.4952 37.4962 21.4115 37.5415 21.3279 37.5938C21.321 37.6007 21.3105 37.6042 21.3 37.6112C21.2164 37.6635 21.1398 37.7227 21.0631 37.7854C21.0561 37.7924 21.0457 37.7994 21.0352 37.8098C20.868 37.9527 20.7216 38.1164 20.6032 38.2941C20.5962 38.3011 20.5892 38.3116 20.5823 38.322C20.5161 38.4231 20.4533 38.5311 20.4046 38.6426L0.236938 80.7862C0.22997 80.8002 0.226487 80.8141 0.219518 80.8245C0.198612 80.8733 0.181188 80.9186 0.160281 80.9674C0.149828 80.9953 0.139376 81.0266 0.128923 81.058C0.114986 81.0998 0.101048 81.1451 0.0905948 81.1869C0.0801416 81.2253 0.0696871 81.2636 0.0592339 81.2984C0.0522651 81.3368 0.0452972 81.3751 0.0383285 81.4099C0.0313597 81.4552 0.0243918 81.5005 0.017423 81.5458C0.0139386 81.5772 0.0104546 81.612 0.00697026 81.6434C0.00348587 81.6922 0 81.7444 0 81.7932V81.8873C0.00348439 81.9361 0.00348587 81.9848 0.00697026 82.0336C0.0104546 82.0685 0.0139386 82.1033 0.017423 82.1382C0.0243918 82.18 0.0313597 82.2218 0.0383285 82.2601C0.0452972 82.3019 0.0522659 82.3437 0.062719 82.3821C0.0696878 82.4169 0.0766565 82.4518 0.0871096 82.4831C0.101047 82.5284 0.111501 82.5737 0.128923 82.6155C0.135892 82.6469 0.149828 82.6748 0.160281 82.7026C0.177703 82.7479 0.195126 82.7932 0.212548 82.835C0.226485 82.8629 0.240424 82.8943 0.254361 82.9221C0.275268 82.964 0.296174 83.0023 0.31708 83.0406C0.334502 83.072 0.355408 83.1033 0.376314 83.1347C0.397221 83.1695 0.418127 83.2009 0.439033 83.2323C0.463424 83.2706 0.487815 83.3019 0.51569 83.3368C0.536597 83.3647 0.557503 83.3891 0.578409 83.4169C0.609769 83.4518 0.641127 83.4866 0.672486 83.518C0.693393 83.5424 0.717784 83.5668 0.738691 83.5877C0.773534 83.619 0.804894 83.6504 0.839738 83.6783C0.867613 83.7027 0.892002 83.7236 0.919878 83.7479C0.954721 83.7723 0.986081 83.7967 1.02093 83.8211C1.05228 83.8455 1.08713 83.8699 1.12197 83.8908C1.15333 83.9082 1.18121 83.9291 1.21257 83.9466C1.25438 83.9709 1.29968 83.9919 1.34149 84.0162C1.35543 84.0232 1.36936 84.0302 1.3833 84.0372C1.39724 84.0441 1.41118 84.0511 1.42511 84.0546C1.47041 84.0755 1.51919 84.0964 1.56449 84.1138C1.59585 84.1243 1.62721 84.1382 1.65857 84.1487C1.70038 84.1626 1.74219 84.173 1.78401 84.187C1.82233 84.1974 1.86066 84.2079 1.89899 84.2149C1.93384 84.2253 1.97216 84.2323 2.00701 84.2358C2.05579 84.2462 2.10109 84.2532 2.14638 84.2601C2.17774 84.2636 2.2091 84.2636 2.24046 84.2671C2.29273 84.2706 2.34499 84.2741 2.39377 84.2741C2.40771 84.2741 2.42165 84.2776 2.43907 84.2776H40.5792L56.7223 137.951L13.6797 90.5843C12.9096 89.7376 11.6866 89.5669 10.7249 90.0826C10.6727 90.1104 10.6169 90.1348 10.5647 90.1662C10.5159 90.1975 10.4741 90.2359 10.4253 90.2707C10.3626 90.3195 10.2929 90.3613 10.2336 90.4171C9.23711 91.3265 9.16393 92.8666 10.0699 93.8631L60.3565 149.202C60.3705 149.216 60.3844 149.227 60.3983 149.24C60.4158 149.261 60.4332 149.279 60.4541 149.296C60.5238 149.366 60.6004 149.432 60.6771 149.495C60.691 149.505 60.705 149.516 60.7189 149.526C60.8095 149.592 60.9036 149.652 61.0046 149.704C61.0255 149.718 61.0499 149.728 61.0743 149.739C61.1649 149.784 61.259 149.826 61.3531 149.861C61.367 149.864 61.3809 149.871 61.3949 149.875C61.5029 149.913 61.6144 149.937 61.7259 149.958C61.7538 149.962 61.7816 149.969 61.8095 149.972C61.9245 149.99 62.043 150 62.1614 150C62.2799 150 62.3984 149.99 62.5134 149.972C62.5412 149.969 62.5691 149.962 62.597 149.958C62.7085 149.937 62.82 149.913 62.928 149.875C62.9419 149.871 62.9559 149.864 62.9698 149.861C63.0639 149.826 63.158 149.784 63.2486 149.739C63.2729 149.728 63.2973 149.718 63.3182 149.704C63.4193 149.652 63.5134 149.592 63.604 149.526C63.6179 149.516 63.6318 149.505 63.6458 149.495C63.7224 149.432 63.7991 149.366 63.8688 149.296C63.8897 149.279 63.9071 149.261 63.9245 149.24C63.9385 149.227 63.9524 149.216 63.9663 149.202L100.173 109.358C101.033 108.41 101.005 106.975 100.148 106.055C100.106 106.013 100.068 105.968 100.026 105.93C100.023 105.923 100.016 105.919 100.009 105.912C99.9705 105.877 99.9322 105.849 99.8904 105.818C98.8903 105.017 97.4339 105.121 96.5628 106.079L67.6006 137.951L83.7437 84.2776H116.371L106.748 94.8701C105.863 95.8423 105.915 97.3371 106.845 98.25C106.87 98.2709 106.887 98.2953 106.911 98.3162C106.932 98.3336 106.953 98.351 106.974 98.3684C107.019 98.4068 107.072 98.4346 107.117 98.4695C107.546 98.7866 108.044 98.9503 108.549 98.9503C109.215 98.9503 109.877 98.682 110.357 98.1524L123.689 83.4796C123.699 83.4692 123.706 83.4587 123.713 83.4483C123.786 83.3681 123.852 83.2845 123.912 83.1939C123.919 83.187 123.922 83.18 123.926 83.173C123.981 83.0894 124.03 82.9988 124.075 82.9082C124.086 82.8873 124.096 82.8664 124.103 82.849C124.149 82.7514 124.187 82.6504 124.218 82.5458C124.222 82.5389 124.222 82.5319 124.225 82.5249C124.253 82.4274 124.274 82.3333 124.288 82.2322C124.295 82.2079 124.298 82.1835 124.302 82.1591C124.316 82.0545 124.323 81.9465 124.323 81.8385C124.323 81.835 124.323 81.835 124.323 81.8315C124.323 81.7235 124.316 81.619 124.302 81.5179ZM6.31022 79.3994L22.5962 45.3605L38.5547 79.3994H6.31022ZM26.4569 42.0991H58.3251L42.391 76.0928L26.4569 42.0991ZM62.1614 45.4093L78.0955 79.3994H46.2273L62.1614 45.4093ZM62.1614 139.094L45.6698 84.2776H78.653L62.1614 139.094ZM85.7681 79.3994L98.5942 52.0435C99.1656 50.824 98.6395 49.371 97.4199 48.7996C96.2004 48.2281 94.7474 48.7543 94.176 49.9738L81.9318 76.0928L65.9977 42.0991H100.166L118.013 79.3994H85.7681Z" fill="#4C0B84"/>
<path d="M32.7127 29.4682C32.758 29.4821 32.7998 29.496 32.8451 29.5065C32.9427 29.5378 33.0437 29.5692 33.1448 29.5971L33.2075 29.6145C33.3887 29.6668 33.5699 29.719 33.7545 29.7608C33.9009 29.7957 34.0437 29.8201 34.204 29.8514C34.3852 29.8828 34.5629 29.9142 34.7476 29.9351C34.8904 29.956 35.0368 29.9664 35.1796 29.9804C35.3713 29.9943 35.5594 30.0047 35.7476 30.0082C35.8347 30.0117 35.9183 30.0117 36.002 30.0117H36.1518C36.3504 30.0082 36.549 29.9978 36.765 29.9804C36.887 29.9699 37.0055 29.9629 37.1239 29.949C37.333 29.9246 37.5421 29.8898 37.7442 29.8549L37.7999 29.8445C37.894 29.827 37.9881 29.8096 38.0787 29.7922C38.34 29.7364 38.5769 29.6702 38.7755 29.611C38.8592 29.5901 38.9393 29.5692 39.0125 29.5448C39.3296 29.4438 39.6327 29.3323 39.9184 29.2103C39.9254 29.2068 39.9324 29.2033 39.9393 29.1999C40.2181 29.0779 40.4968 28.942 40.786 28.7852C40.8592 28.7434 40.9324 28.7016 41.0195 28.6458C41.1798 28.5518 41.3888 28.4263 41.6083 28.28C41.685 28.2242 41.7617 28.1685 41.8348 28.1127L41.8871 28.0779C42.0543 27.9524 42.2181 27.827 42.3819 27.6911C42.4725 27.6179 42.5561 27.5413 42.6641 27.4437C42.8139 27.3113 42.9568 27.1754 43.0927 27.036C43.1903 26.9385 43.2808 26.8374 43.3784 26.7329C43.5004 26.597 43.6223 26.4542 43.7408 26.3078C43.8349 26.1928 43.9255 26.0778 44.0161 25.9559C44.1206 25.8095 44.2216 25.6597 44.3366 25.489C44.4168 25.367 44.4934 25.2486 44.5701 25.1196C44.6641 24.9594 44.7513 24.7956 44.8349 24.6283L44.8732 24.5621C44.9185 24.4715 44.9638 24.3844 45.0091 24.2869C45.0335 24.2416 45.0579 24.1928 45.0823 24.1405C48.4761 16.6212 49.2182 10.534 47.2914 6.04611C45.1206 0.986787 39.239 -1.36169 34.1796 0.809084C32.1866 1.66276 30.5663 3.11226 29.5036 4.93808C27.4478 4.45027 25.2805 4.62797 23.2874 5.48164C19.5104 7.10188 17.242 10.7953 17.242 14.6665C17.242 15.9801 17.5034 17.3146 18.0539 18.5934C19.9773 23.0848 24.9042 26.7399 32.7127 29.4682ZM25.2108 9.96605C26.6534 9.34583 28.2806 9.42597 29.6674 10.1821C30.3259 10.5375 31.1099 10.5723 31.7963 10.2796C32.4827 9.98347 32.9984 9.39112 33.1901 8.66986C33.5977 7.14021 34.6605 5.91022 36.103 5.29C38.6919 4.18197 41.6989 5.38408 42.807 7.9695C44.1519 11.095 43.4063 15.9766 40.6606 22.0743C40.6432 22.1126 40.6257 22.1475 40.6118 22.1823C40.5944 22.2171 40.5735 22.252 40.5561 22.2868L40.5038 22.3879C40.4585 22.4715 40.4167 22.5586 40.3714 22.6353C40.3365 22.6945 40.2982 22.7503 40.2425 22.8339C40.1902 22.914 40.1379 22.9907 40.0857 23.0639C40.0404 23.1231 39.9951 23.1823 39.9498 23.2381C39.8871 23.3147 39.8278 23.3879 39.7651 23.4576C39.7163 23.5099 39.671 23.5586 39.6153 23.6144C39.5491 23.6841 39.4759 23.7503 39.3992 23.82L39.3714 23.8444C39.333 23.8792 39.2947 23.914 39.2564 23.9454C39.1762 24.0151 39.0891 24.0778 39.0055 24.1405L38.8626 24.2451C38.7651 24.3113 38.664 24.374 38.5595 24.4332C38.5212 24.4576 38.4794 24.482 38.4201 24.5168C38.2738 24.597 38.1414 24.6632 38.0125 24.7189C37.9985 24.7224 37.9881 24.7294 37.9741 24.7329C37.8452 24.7886 37.7023 24.8409 37.5421 24.8932C37.4898 24.9071 37.441 24.921 37.3957 24.9315C37.2842 24.9663 37.1692 24.9977 37.0543 25.0221L36.88 25.0534C36.7755 25.0709 36.6675 25.0883 36.563 25.1022C36.5072 25.1092 36.4514 25.1127 36.3713 25.1196C36.2737 25.1266 36.1727 25.1336 36.0612 25.1336C35.995 25.1371 35.9288 25.1336 35.8626 25.1336C35.7685 25.1301 35.6709 25.1266 35.5734 25.1162C35.5002 25.1127 35.427 25.1057 35.3574 25.0952C35.2633 25.0848 35.1692 25.0674 35.0577 25.0465C34.988 25.036 34.9183 25.0221 34.8486 25.0081C34.758 24.9872 34.6674 24.9594 34.5699 24.9315L34.4653 24.9001C34.427 24.8897 34.3887 24.8792 34.3504 24.8653C34.312 24.8548 34.2772 24.8444 34.2389 24.8339C27.9217 22.6178 23.8763 19.7955 22.5348 16.67C21.4233 14.0846 22.6254 11.0776 25.2108 9.96605Z" fill="#4C0B84"/>
<path d="M79.4545 24.5621L79.4928 24.6283C79.5764 24.7956 79.6636 24.9594 79.7611 25.1231C79.8343 25.2486 79.911 25.367 80.005 25.5099C80.1061 25.6597 80.2071 25.8095 80.3151 25.9594C80.4022 26.0778 80.4928 26.1928 80.5869 26.3078C80.7054 26.4542 80.8273 26.597 80.9528 26.7364C81.0469 26.8374 81.1375 26.9385 81.2315 27.0326C81.3709 27.1754 81.5138 27.3113 81.6845 27.4646C81.7716 27.5413 81.8552 27.6179 81.9458 27.6946C82.1096 27.827 82.2734 27.9524 82.4441 28.0779L82.4929 28.1127C82.566 28.1685 82.6427 28.2242 82.7194 28.2765C82.9389 28.4263 83.1479 28.5518 83.3256 28.6563C83.3953 28.7016 83.4685 28.7434 83.5417 28.7817C83.8309 28.942 84.1096 29.0779 84.3884 29.1999C84.3953 29.2033 84.4023 29.2068 84.4093 29.2103C84.695 29.3323 84.9982 29.4438 85.3083 29.5413C85.3884 29.5692 85.4685 29.5901 85.5696 29.618C85.7508 29.6702 85.9877 29.7364 86.2456 29.7922C86.3396 29.8096 86.4337 29.827 86.5278 29.8445L86.5801 29.8514C86.7856 29.8898 86.9947 29.9246 87.2038 29.949C87.3222 29.9629 87.4407 29.9699 87.5801 29.9804C87.7787 29.9978 87.9773 30.0082 88.1655 30.0117H88.3292C88.4128 30.0117 88.4965 30.0117 88.5801 30.0082C88.7683 30.0047 88.9564 29.9943 89.1481 29.9804C89.2909 29.9664 89.4373 29.956 89.5836 29.9351C89.7648 29.9142 89.9425 29.8828 90.1376 29.8479C90.284 29.8201 90.4268 29.7957 90.5732 29.7608C90.7578 29.719 90.939 29.6668 91.1132 29.618L91.1829 29.5971C91.284 29.5692 91.385 29.5378 91.4861 29.5065C91.5279 29.4925 91.5767 29.4786 91.6359 29.4577C99.4235 26.7399 104.35 23.0848 106.274 18.5934C108.448 13.5341 106.096 7.65242 101.04 5.48164C99.7719 4.94156 98.4374 4.66978 97.1064 4.66978C96.3398 4.66978 95.5767 4.76038 94.8241 4.93808C93.7614 3.11226 92.1411 1.66276 90.1481 0.809084C85.0887 -1.36169 79.2071 0.986787 77.0363 6.04611C75.1095 10.534 75.8516 16.6212 79.2489 24.1475C79.2698 24.1963 79.2907 24.2381 79.3151 24.2834C79.3604 24.3775 79.4092 24.4681 79.4545 24.5621ZM81.5207 7.9695C82.6288 5.38408 85.6358 4.18197 88.2247 5.29C89.6672 5.91022 90.73 7.14021 91.1376 8.66986C91.3293 9.39112 91.845 9.98347 92.5314 10.2796C93.2178 10.5758 94.0018 10.5375 94.6604 10.1821C96.0471 9.42597 97.6709 9.34583 99.1169 9.96605C101.702 11.0776 102.904 14.0846 101.793 16.67C100.451 19.799 96.3956 22.6248 90.0923 24.8304C90.054 24.8409 90.0157 24.8548 89.9773 24.8688C89.939 24.8792 89.9007 24.8897 89.8623 24.9001L89.7543 24.9315C89.6603 24.9594 89.5697 24.9872 89.4791 25.0081C89.4094 25.0221 89.3397 25.036 89.2526 25.05C89.1585 25.0674 89.0644 25.0848 88.9773 25.0952C88.9007 25.1057 88.8275 25.1127 88.7543 25.1162C88.6568 25.1266 88.5592 25.1301 88.4651 25.1336H88.2561C88.155 25.1336 88.054 25.1266 87.9285 25.1162C87.8763 25.1127 87.8205 25.1092 87.7648 25.1022C87.6602 25.0883 87.5522 25.0709 87.4407 25.0534L87.2735 25.0221C87.1585 24.9977 87.0435 24.9663 86.9355 24.935C86.8902 24.921 86.8414 24.9071 86.7752 24.8897C86.6219 24.8409 86.4825 24.7886 86.3536 24.7329C86.3396 24.7294 86.3292 24.7224 86.3152 24.7189C86.1794 24.6597 86.04 24.59 85.8867 24.5064C85.8483 24.482 85.8065 24.4576 85.7647 24.4332C85.6637 24.374 85.5626 24.3113 85.4685 24.2485L85.3257 24.1405C85.2386 24.0778 85.1515 24.0151 85.0713 23.9489C85.033 23.914 84.9947 23.8792 84.9563 23.8444L84.925 23.8165C84.8518 23.7503 84.7786 23.6841 84.7089 23.6109C84.6567 23.5586 84.6114 23.5099 84.5661 23.4576C84.4999 23.3879 84.4406 23.3147 84.3779 23.2416C84.3326 23.1823 84.2873 23.1231 84.242 23.0673C84.1898 22.9907 84.1375 22.914 84.0678 22.8095C84.0295 22.7503 83.9912 22.6945 83.9598 22.6388C83.911 22.5586 83.8692 22.4715 83.8239 22.3879L83.7716 22.2868C83.7542 22.252 83.7333 22.2171 83.7229 22.1928C83.7054 22.1544 83.6845 22.1161 83.6671 22.0778C80.9214 15.9731 80.1792 11.095 81.5207 7.9695Z" fill="#4C0B84"/>
<path d="M11.3112 35.9144C11.4576 35.9736 11.6109 36.0224 11.7677 36.0538C11.9245 36.0851 12.0848 36.1025 12.245 36.1025C12.4018 36.1025 12.5621 36.0851 12.7189 36.0538C12.8757 36.0224 13.029 35.9736 13.1754 35.9144C13.3217 35.8517 13.4646 35.7785 13.597 35.6914C13.7294 35.6008 13.8548 35.4997 13.9698 35.3882C14.4228 34.9318 14.6806 34.3046 14.6806 33.6635C14.6806 33.0189 14.4228 32.3917 13.9698 31.9387C13.8548 31.8237 13.7294 31.7227 13.597 31.6356C13.4646 31.545 13.3217 31.4718 13.1754 31.4091C13.029 31.3498 12.8757 31.3011 12.7189 31.2697C12.4053 31.207 12.0813 31.207 11.7677 31.2697C11.6109 31.3011 11.4576 31.3498 11.3112 31.4091C11.1649 31.4718 11.022 31.545 10.8896 31.6356C10.7572 31.7227 10.6318 31.8237 10.5168 31.9387C10.4053 32.0502 10.3042 32.1756 10.2136 32.308C10.1265 32.4404 10.0534 32.5833 9.99064 32.7297C9.93141 32.876 9.88262 33.0293 9.85127 33.1861C9.81991 33.3429 9.80597 33.5032 9.80597 33.6635C9.80597 34.3046 10.0638 34.9318 10.5168 35.3882C10.6318 35.4997 10.7572 35.6008 10.8896 35.6914C11.022 35.7785 11.1649 35.8517 11.3112 35.9144Z" fill="#4C0B84"/>
<path d="M112.968 35.9144C113.115 35.9736 113.272 36.0224 113.425 36.0538C113.582 36.0851 113.742 36.1025 113.902 36.1025C114.063 36.1025 114.223 36.0851 114.38 36.0538C114.533 36.0224 114.686 35.9736 114.836 35.9144C114.982 35.8517 115.125 35.7785 115.258 35.6914C115.39 35.6008 115.516 35.4997 115.627 35.3882C116.08 34.9318 116.341 34.3046 116.341 33.6635C116.341 33.0189 116.08 32.3917 115.627 31.9387C115.516 31.8237 115.39 31.7227 115.258 31.6356C115.125 31.545 114.982 31.4718 114.836 31.4091C114.686 31.3498 114.533 31.3011 114.38 31.2697C114.063 31.207 113.739 31.207 113.425 31.2697C113.272 31.3011 113.115 31.3498 112.968 31.4091C112.822 31.4718 112.679 31.545 112.547 31.6356C112.414 31.7227 112.289 31.8237 112.178 31.9387C112.066 32.0502 111.962 32.1756 111.874 32.308C111.787 32.4404 111.711 32.5833 111.651 32.7297C111.589 32.876 111.543 33.0293 111.512 33.1861C111.481 33.3429 111.463 33.5032 111.463 33.6635C111.463 34.3046 111.725 34.9318 112.178 35.3882C112.289 35.4997 112.414 35.6008 112.547 35.6914C112.679 35.7785 112.822 35.8517 112.968 35.9144Z" fill="#4C0B84"/>
<path d="M58.672 23.9837C58.7591 24.1196 58.8636 24.2415 58.9751 24.3565C59.0866 24.468 59.212 24.569 59.3444 24.6596C59.4769 24.7468 59.6197 24.8234 59.7661 24.8826C59.9124 24.9454 60.0657 24.9907 60.2225 25.022C60.3793 25.0534 60.5396 25.0708 60.6999 25.0708C60.8567 25.0708 61.017 25.0534 61.1772 25.022C61.3305 24.9907 61.4839 24.9454 61.6337 24.8826C61.78 24.8234 61.9194 24.7468 62.0518 24.6596C62.1877 24.569 62.3097 24.468 62.4246 24.3565C62.5361 24.2415 62.6372 24.1196 62.7278 23.9837C62.8149 23.8513 62.8915 23.7119 62.9508 23.5621C63.0135 23.4157 63.0588 23.2624 63.0902 23.1056C63.1215 22.9488 63.1389 22.7885 63.1389 22.6317C63.1389 22.4714 63.1215 22.3112 63.0902 22.1544C63.0588 21.9976 63.0135 21.8443 62.9508 21.6979C62.8915 21.5516 62.8149 21.4087 62.7278 21.2763C62.6372 21.1439 62.5361 21.0185 62.4246 20.907C62.3131 20.792 62.1877 20.6909 62.0518 20.6038C61.9194 20.5132 61.78 20.4401 61.6337 20.3773C61.4839 20.3181 61.3305 20.2693 61.1772 20.238C60.8602 20.1752 60.5361 20.1752 60.2225 20.238C60.0657 20.2693 59.9124 20.3181 59.7661 20.3773C59.6197 20.4401 59.4769 20.5132 59.3444 20.6038C59.212 20.6909 59.0866 20.792 58.9751 20.907C58.8636 21.0185 58.7591 21.1439 58.672 21.2763C58.5849 21.4087 58.5082 21.5516 58.4455 21.6979C58.3862 21.8443 58.3409 21.9976 58.3096 22.1544C58.2747 22.3112 58.2608 22.4714 58.2608 22.6317C58.2608 22.7885 58.2747 22.9488 58.3096 23.1056C58.3409 23.2624 58.3862 23.4157 58.4455 23.5621C58.5082 23.7119 58.5849 23.8513 58.672 23.9837Z" fill="#4C0B84"/>
</svg>
