<svg width="124" height="151" viewBox="0 0 124 151" fill="none" xmlns="http://www.w3.org/2000/svg">
<path d="M121.448 49.3973L49.3945 121.451L13.3678 85.424L2.55469 74.6109L24.1707 24.1735L74.6182 2.54224L85.4211 13.3451L121.448 49.3973Z" fill="#F4D5E7"/>
<path d="M13.3652 85.4187L2.55469 74.6106L51.2009 69.2041L54.8036 72.8068L13.3652 85.4187Z" fill="#FFBAE3"/>
<path d="M85.4255 13.3604L74.62 2.54224L69.2109 51.1935L72.8136 54.7962L85.4255 13.3604Z" fill="#FFBAE3"/>
<path d="M78.2115 42.1797L42.1797 78.2114L45.7829 81.8146L81.8146 45.7828L78.2115 42.1797Z" fill="#ECECD8"/>
<path d="M69.2137 40.3803V69.2067H40.3898C32.4303 69.2067 25.9766 62.753 25.9766 54.7935C25.9766 46.834 32.4303 40.3803 40.3898 40.3803C40.3898 32.4208 46.8435 25.967 54.803 25.967C62.7625 25.9696 69.2137 32.4208 69.2137 40.3803Z" fill="#FF7BAC"/>
<path d="M40.3906 69.2042C48.3578 61.2371 48.3578 48.345 40.3906 40.3778C40.3906 32.4183 46.8443 25.9646 54.8038 25.9646C62.7633 25.9646 69.2171 32.4183 69.2171 40.3778V69.2042H40.3906Z" fill="#FD58A1"/>
<path d="M121.432 49.3971L49.3782 121.45L13.3516 85.4238L54.7797 72.8119L72.7956 54.796L85.4049 13.345L121.432 49.3971Z" fill="#F4D5E8"/>
<path d="M121.443 49.3894L78.2031 63.8026L96.219 74.6106L107.03 92.629L121.443 49.3894Z" fill="#B698F9"/>
<path d="M121.443 49.3894L96.2188 74.6106L107.029 92.629L121.443 49.3894Z" fill="#6E3FAB"/>
<path d="M42.1783 125.056L27.7656 139.469L31.3688 143.072L45.7815 128.659L42.1783 125.056Z" fill="#4C0B84"/>
<path d="M92.6241 89.0245L42.1797 139.469L45.7829 143.072L96.2273 92.6277L92.6241 89.0245Z" fill="#4C0B84"/>
<path d="M34.9736 117.852L24.1641 128.661L27.7672 132.265L38.5768 121.455L34.9736 117.852Z" fill="#4C0B84"/>
<path d="M99.8286 96.2324L63.7969 132.264L67.4001 135.867L103.432 99.8356L99.8286 96.2324Z" fill="#4C0B84"/>
<path d="M123.252 47.5859L76.4123 0.746086C75.676 0.00975615 74.5651 -0.204263 73.6071 0.205941L23.1621 21.8245C22.5634 22.0844 22.0844 22.5608 21.8245 23.1621L0.205941 73.6071C-0.204263 74.5651 0.00975609 75.676 0.746086 76.4123L47.5884 123.255C48.5821 124.248 50.1949 124.251 51.1911 123.255L92.6268 81.8188L89.0242 78.2162L52.7223 114.515L57.2269 73.9791L73.9791 57.2269L97.827 54.5772L77.4085 61.3825C76.4658 61.6959 75.7906 62.5341 75.681 63.5201C75.5715 64.5113 76.0581 65.4794 76.9015 65.9839L94.3721 76.4658L104.854 93.9364C105.361 94.7772 106.327 95.2664 107.318 95.1569C108.306 95.0499 109.142 94.3747 109.455 93.4294L123.869 50.1898C124.174 49.2776 123.937 48.2712 123.252 47.5859C123.255 47.5884 123.252 47.5884 123.252 47.5859ZM26.1074 26.1074L74.03 5.56918L82.5373 14.0765L71.7523 49.5095V40.378C71.7523 31.0248 64.1444 23.4169 54.7912 23.4169C46.2482 23.4169 39.1601 29.7713 37.9983 37.9957C29.7687 39.1601 23.4194 46.2457 23.4194 54.7886C23.4194 64.1418 31.0273 71.7497 40.3805 71.7497H49.512L14.079 82.5348L5.57172 74.0275L26.1074 26.1074ZM66.6591 57.3416L57.3416 66.6591H40.3805C33.8376 66.6591 28.5152 61.3366 28.5152 54.7937C28.5177 48.2509 33.8376 42.9309 40.3805 42.9284C41.7869 42.9284 42.9284 41.7895 42.9284 40.3805C42.9309 33.8376 48.2508 28.5177 54.7937 28.5152C61.3366 28.5152 66.6591 33.8376 66.6591 40.3805V57.3416ZM47.4406 115.904L18.1607 86.6241L51.8331 76.3766L47.4406 115.904ZM86.6215 18.1632L115.901 47.4432L76.3741 51.8357L86.6215 18.1632ZM106.373 86.5655L99.4372 75.0059L105.236 69.207L101.633 65.6043L95.8346 71.4032L84.275 64.4679L117.423 53.4179L106.373 86.5655Z" fill="#4C0B84"/>
<path d="M60.1891 135.866L56.5859 139.469L60.1891 143.072L63.7923 139.469L60.1891 135.866Z" fill="#4C0B84"/>
<path d="M24.1657 143.073L20.5625 146.676L24.1657 150.279L27.7689 146.676L24.1657 143.073Z" fill="#4C0B84"/>
</svg>
