<svg width="40" height="40" viewBox="0 0 40 40" fill="none" xmlns="http://www.w3.org/2000/svg">
<path d="M20.0039 3.60227C25.3487 3.60227 25.9816 3.62571 28.0836 3.71948C30.0371 3.80543 31.092 4.13362 31.7953 4.40711C32.7251 4.76656 33.3972 5.20414 34.0926 5.89959C34.7959 6.60285 35.2256 7.26705 35.5851 8.19691C35.8586 8.90018 36.1868 9.96288 36.2727 11.9086C36.3665 14.0184 36.3899 14.6513 36.3899 19.9883C36.3899 25.3331 36.3665 25.966 36.2727 28.068C36.1868 30.0215 35.8586 31.0764 35.5851 31.7796C35.2256 32.7095 34.788 33.3815 34.0926 34.077C33.3893 34.7802 32.7251 35.21 31.7953 35.5695C31.092 35.8429 30.0293 36.1711 28.0836 36.2571C25.9738 36.3508 25.3409 36.3743 20.0039 36.3743C14.6591 36.3743 14.0262 36.3508 11.9242 36.2571C9.9707 36.1711 8.9158 35.8429 8.21254 35.5695C7.28267 35.21 6.61067 34.7724 5.91522 34.077C5.21196 33.3737 4.78218 32.7095 4.42274 31.7796C4.14925 31.0764 3.82106 30.0137 3.73511 28.068C3.64134 25.9582 3.61789 25.3253 3.61789 19.9883C3.61789 14.6435 3.64134 14.0105 3.73511 11.9086C3.82106 9.95507 4.14925 8.90018 4.42274 8.19691C4.78218 7.26705 5.21977 6.59504 5.91522 5.89959C6.61848 5.19633 7.28267 4.76656 8.21254 4.40711C8.9158 4.13362 9.97851 3.80543 11.9242 3.71948C14.0262 3.62571 14.6591 3.60227 20.0039 3.60227ZM20.0039 0C14.5732 0 13.8933 0.0234421 11.7601 0.11721C9.6347 0.210979 8.17347 0.554796 6.9076 1.04708C5.58703 1.56281 4.46962 2.24263 3.36003 3.36003C2.24263 4.46962 1.56281 5.58703 1.04708 6.89979C0.554796 8.17347 0.210979 9.62688 0.11721 11.7523C0.0234421 13.8933 0 14.5732 0 20.0039C0 25.4347 0.0234421 26.1145 0.11721 28.2477C0.210979 30.3731 0.554796 31.8343 1.04708 33.1002C1.56281 34.4208 2.24263 35.5382 3.36003 36.6478C4.46962 37.7574 5.58703 38.445 6.89979 38.9529C8.17347 39.4452 9.62688 39.789 11.7523 39.8828C13.8855 39.9766 14.5653 40 19.9961 40C25.4268 40 26.1067 39.9766 28.2399 39.8828C30.3653 39.789 31.8265 39.4452 33.0924 38.9529C34.4052 38.445 35.5226 37.7574 36.6322 36.6478C37.7418 35.5382 38.4294 34.4208 38.9373 33.108C39.4296 31.8343 39.7734 30.3809 39.8672 28.2555C39.9609 26.1223 39.9844 25.4425 39.9844 20.0117C39.9844 14.581 39.9609 13.9012 39.8672 11.7679C39.7734 9.64251 39.4296 8.18129 38.9373 6.91541C38.445 5.58703 37.7652 4.46962 36.6478 3.36003C35.5382 2.25044 34.4208 1.56281 33.108 1.05489C31.8343 0.56261 30.3809 0.218793 28.2555 0.125024C26.1145 0.0234421 25.4347 0 20.0039 0Z" fill="white"/>
<path d="M20.0005 9.72852C14.3275 9.72852 9.72505 14.331 9.72505 20.004C9.72505 25.6769 14.3275 30.2794 20.0005 30.2794C25.6735 30.2794 30.2759 25.6769 30.2759 20.004C30.2759 14.331 25.6735 9.72852 20.0005 9.72852ZM20.0005 26.6693C16.3201 26.6693 13.3351 23.6844 13.3351 20.004C13.3351 16.3236 16.3201 13.3386 20.0005 13.3386C23.6809 13.3386 26.6659 16.3236 26.6659 20.004C26.6659 23.6844 23.6809 26.6693 20.0005 26.6693Z" fill="white"/>
<path d="M33.0846 9.32225C33.0846 10.6506 32.0063 11.7212 30.6857 11.7212C29.3573 11.7212 28.2868 10.6428 28.2868 9.32225C28.2868 7.99386 29.3652 6.92334 30.6857 6.92334C32.0063 6.92334 33.0846 8.00168 33.0846 9.32225Z" fill="white"/>
</svg>
