<svg width="180" height="52" viewBox="0 0 180 52" fill="none" xmlns="http://www.w3.org/2000/svg">
<path d="M179 46.0029C179 48.774 176.709 51.0187 173.874 51.0187H6.13243C3.2995 51.0187 1 48.774 1 46.0029V6.00333C1 3.23349 3.2995 0.980957 6.13243 0.980957H173.873C176.709 0.980957 178.999 3.23349 178.999 6.00333L179 46.0029Z" fill="black"/>
<path d="M173.333 1.04162C176.42 1.04162 178.932 3.4905 178.932 6.5V45.5C178.932 48.5095 176.42 50.9584 173.333 50.9584H6.66667C3.58 50.9584 1.06833 48.5095 1.06833 45.5V6.5C1.06833 3.4905 3.58 1.04162 6.66667 1.04162H173.333ZM173.333 2.74817e-06H6.66667C3.00167 2.74817e-06 0 2.92663 0 6.5V45.5C0 49.0734 3.00167 52 6.66667 52H173.333C176.998 52 180 49.0734 180 45.5V6.5C180 2.92663 176.998 2.74817e-06 173.333 2.74817e-06Z" fill="#A6A6A6"/>
<path d="M40.1695 25.7191C40.1308 21.5292 43.6881 19.4908 43.8508 19.3959C41.8361 16.532 38.7135 16.1407 37.6161 16.1095C34.9935 15.8404 32.4495 17.6396 31.1135 17.6396C29.7508 17.6396 27.6935 16.1355 25.4761 16.1797C22.6228 16.2226 19.9535 17.8333 18.4895 20.3345C15.4681 25.4344 17.7215 32.9289 20.6161 37.0512C22.0641 39.0701 23.7561 41.3243 25.9708 41.245C28.1375 41.1579 28.9468 39.8982 31.5615 39.8982C34.1521 39.8982 34.9121 41.245 37.1708 41.1943C39.4961 41.1579 40.9601 39.1663 42.3575 37.1292C44.0308 34.8152 44.7028 32.5363 44.7295 32.4193C44.6748 32.4011 40.2135 30.741 40.1695 25.7191Z" fill="white"/>
<path d="M35.9028 13.3977C37.0681 11.9768 37.8655 10.0437 37.6441 8.08203C35.9575 8.15483 33.8481 9.21953 32.6335 10.6092C31.5588 11.8338 30.5988 13.841 30.8468 15.7286C32.7415 15.8664 34.6868 14.7965 35.9028 13.3977Z" fill="white"/>
<path d="M65.3997 13.0113C65.3997 14.5414 64.9291 15.6932 63.989 16.4667C63.1184 17.1804 61.881 17.5379 60.2784 17.5379C59.4837 17.5379 58.8037 17.5041 58.2344 17.4365V9.07621C58.977 8.95921 59.777 8.89941 60.641 8.89941C62.1677 8.89941 63.3184 9.22311 64.0944 9.87051C64.9637 10.6024 65.3997 11.6489 65.3997 13.0113ZM63.9264 13.049C63.9264 12.0571 63.657 11.2966 63.1184 10.7662C62.5797 10.2371 61.793 9.97191 60.757 9.97191C60.317 9.97191 59.9424 10.0005 59.6317 10.0603V16.416C59.8037 16.442 60.1184 16.4537 60.5757 16.4537C61.645 16.4537 62.4704 16.1638 63.0517 15.584C63.6331 15.0042 63.9264 14.1592 63.9264 13.049Z" fill="white"/>
<path d="M73.2107 14.3477C73.2107 15.2902 72.9347 16.0624 72.3827 16.6682C71.804 17.2909 71.0374 17.6016 70.08 17.6016C69.1574 17.6016 68.4227 17.3039 67.8747 16.7059C67.328 16.1092 67.0547 15.3565 67.0547 14.4491C67.0547 13.5001 67.336 12.7214 67.9014 12.1169C68.4667 11.5124 69.2267 11.2095 70.184 11.2095C71.1067 11.2095 71.848 11.5072 72.4094 12.1039C72.9427 12.6837 73.2107 13.4325 73.2107 14.3477ZM71.7614 14.3919C71.7614 13.8264 71.636 13.3415 71.3867 12.9372C71.0934 12.4484 70.676 12.204 70.1334 12.204C69.572 12.204 69.1454 12.4484 68.852 12.9372C68.6014 13.3415 68.4774 13.8342 68.4774 14.4166C68.4774 14.9821 68.6027 15.467 68.852 15.8713C69.1547 16.3601 69.576 16.6045 70.12 16.6045C70.6534 16.6045 71.072 16.3562 71.3734 15.8583C71.632 15.4462 71.7614 14.9574 71.7614 14.3919Z" fill="white"/>
<path d="M83.6848 11.3345L81.7181 17.4627H80.4381L79.6235 14.8016C79.4168 14.1373 79.2488 13.4769 79.1181 12.8217H79.0928C78.9715 13.4951 78.8035 14.1542 78.5875 14.8016L77.7221 17.4627H76.4275L74.5781 11.3345H76.0141L76.7248 14.2478C76.8968 14.9368 77.0381 15.5933 77.1515 16.2147H77.1768C77.2808 15.7025 77.4528 15.0499 77.6955 14.2608L78.5875 11.3358H79.7261L80.5808 14.1984C80.7875 14.8965 80.9555 15.5686 81.0848 16.216H81.1235C81.2181 15.5855 81.3608 14.9134 81.5501 14.1984L82.3128 11.3358H83.6848V11.3345Z" fill="white"/>
<path d="M90.9312 17.4625H89.5339V13.9525C89.5339 12.8709 89.1125 12.3301 88.2672 12.3301C87.8525 12.3301 87.5179 12.4783 87.2579 12.776C87.0005 13.0737 86.8699 13.4247 86.8699 13.8264V17.4612H85.4725V13.0854C85.4725 12.5472 85.4552 11.9635 85.4219 11.3317H86.6499L86.7152 12.2898H86.7539C86.9165 11.9921 87.1592 11.7464 87.4779 11.5501C87.8565 11.3213 88.2805 11.2056 88.7445 11.2056C89.3312 11.2056 89.8192 11.3902 90.2072 11.7607C90.6899 12.2144 90.9312 12.8917 90.9312 13.7913V17.4625Z" fill="white"/>
<path d="M94.7866 17.4626H93.3906V8.52246H94.7866V17.4626Z" fill="white"/>
<path d="M103.008 14.3477C103.008 15.2902 102.732 16.0624 102.18 16.6682C101.601 17.2909 100.833 17.6016 99.8769 17.6016C98.9529 17.6016 98.2182 17.3039 97.6716 16.7059C97.1249 16.1092 96.8516 15.3565 96.8516 14.4491C96.8516 13.5001 97.1329 12.7214 97.6982 12.1169C98.2636 11.5124 99.0236 11.2095 99.9796 11.2095C100.904 11.2095 101.644 11.5072 102.206 12.1039C102.74 12.6837 103.008 13.4325 103.008 14.3477ZM101.557 14.3919C101.557 13.8264 101.432 13.3415 101.182 12.9372C100.89 12.4484 100.472 12.204 99.9302 12.204C99.3676 12.204 98.9409 12.4484 98.6489 12.9372C98.3982 13.3415 98.2742 13.8342 98.2742 14.4166C98.2742 14.9821 98.3996 15.467 98.6489 15.8713C98.9516 16.3601 99.3729 16.6045 99.9169 16.6045C100.45 16.6045 100.868 16.3562 101.169 15.8583C101.429 15.4462 101.557 14.9574 101.557 14.3919Z" fill="white"/>
<path d="M109.769 17.4625H108.515L108.411 16.7566H108.372C107.943 17.3195 107.331 17.6016 106.536 17.6016C105.943 17.6016 105.463 17.4157 105.101 17.0465C104.773 16.7111 104.609 16.2938 104.609 15.7985C104.609 15.0497 104.929 14.479 105.573 14.0838C106.216 13.6886 107.12 13.4949 108.284 13.504V13.3896C108.284 12.5823 107.849 12.1793 106.979 12.1793C106.359 12.1793 105.812 12.3314 105.34 12.633L105.056 11.7386C105.64 11.3863 106.361 11.2095 107.212 11.2095C108.855 11.2095 109.679 12.0545 109.679 13.7445V16.0013C109.679 16.6136 109.709 17.1011 109.769 17.4625ZM108.319 15.3565V14.4114C106.777 14.3854 106.007 14.7975 106.007 15.6464C106.007 15.9662 106.095 16.2054 106.275 16.3653C106.455 16.5252 106.684 16.6045 106.957 16.6045C107.264 16.6045 107.551 16.5096 107.812 16.3211C108.075 16.1313 108.236 15.8908 108.296 15.5957C108.311 15.5294 108.319 15.4488 108.319 15.3565Z" fill="white"/>
<path d="M117.711 17.4626H116.471L116.406 16.4785H116.367C115.971 17.2273 115.296 17.6017 114.348 17.6017C113.591 17.6017 112.96 17.3118 112.46 16.732C111.96 16.1522 111.711 15.3995 111.711 14.4752C111.711 13.4833 111.982 12.6799 112.526 12.0663C113.052 11.4943 113.698 11.2083 114.466 11.2083C115.31 11.2083 115.9 11.4852 116.236 12.0403H116.263V8.52246H117.662V15.8116C117.662 16.4083 117.678 16.9582 117.711 17.4626ZM116.263 14.8782V13.8564C116.263 13.6796 116.25 13.5366 116.224 13.4274C116.146 13.0998 115.976 12.8242 115.719 12.6019C115.459 12.3796 115.146 12.2678 114.784 12.2678C114.263 12.2678 113.855 12.4693 113.555 12.8736C113.258 13.2779 113.107 13.794 113.107 14.4245C113.107 15.0303 113.25 15.5217 113.536 15.9C113.839 16.303 114.247 16.5045 114.758 16.5045C115.216 16.5045 115.583 16.3368 115.862 16.0001C116.131 15.6894 116.263 15.315 116.263 14.8782Z" fill="white"/>
<path d="M129.664 14.3477C129.664 15.2902 129.388 16.0624 128.836 16.6682C128.257 17.2909 127.492 17.6016 126.533 17.6016C125.612 17.6016 124.877 17.3039 124.328 16.7059C123.781 16.1092 123.508 15.3565 123.508 14.4491C123.508 13.5001 123.789 12.7214 124.354 12.1169C124.92 11.5124 125.68 11.2095 126.638 11.2095C127.56 11.2095 128.302 11.5072 128.862 12.1039C129.396 12.6837 129.664 13.4325 129.664 14.3477ZM128.216 14.3919C128.216 13.8264 128.09 13.3415 127.841 12.9372C127.546 12.4484 127.13 12.204 126.586 12.204C126.026 12.204 125.6 12.4484 125.305 12.9372C125.054 13.3415 124.93 13.8342 124.93 14.4166C124.93 14.9821 125.056 15.467 125.305 15.8713C125.608 16.3601 126.029 16.6045 126.573 16.6045C127.106 16.6045 127.526 16.3562 127.828 15.8583C128.085 15.4462 128.216 14.9574 128.216 14.3919Z" fill="white"/>
<path d="M137.18 17.4625H135.784V13.9525C135.784 12.8709 135.363 12.3301 134.516 12.3301C134.101 12.3301 133.767 12.4783 133.508 12.776C133.249 13.0737 133.12 13.4247 133.12 13.8264V17.4612H131.721V13.0854C131.721 12.5472 131.705 11.9635 131.672 11.3317H132.899L132.964 12.2898H133.003C133.167 11.9921 133.409 11.7464 133.727 11.5501C134.107 11.3213 134.529 11.2056 134.995 11.2056C135.58 11.2056 136.068 11.3902 136.456 11.7607C136.94 12.2144 137.18 12.8917 137.18 13.7913V17.4625Z" fill="white"/>
<path d="M146.578 12.3548H145.039V15.3318C145.039 16.0884 145.313 16.4667 145.854 16.4667C146.105 16.4667 146.313 16.4459 146.477 16.403L146.513 17.4365C146.237 17.5379 145.874 17.5886 145.427 17.5886C144.875 17.5886 144.446 17.4248 144.135 17.0972C143.823 16.7696 143.669 16.2184 143.669 15.4449V12.3548H142.75V11.3343H143.669V10.2111L145.038 9.80811V11.333H146.577V12.3548H146.578Z" fill="white"/>
<path d="M153.982 17.4626H152.583V13.9786C152.583 12.8801 152.162 12.3302 151.318 12.3302C150.67 12.3302 150.227 12.6487 149.985 13.2857C149.943 13.4196 149.919 13.5834 149.919 13.7758V17.4613H148.523V8.52246H149.919V12.2158H149.946C150.386 11.5437 151.017 11.2083 151.834 11.2083C152.413 11.2083 152.891 11.3929 153.271 11.7634C153.745 12.2249 153.982 12.9113 153.982 13.8187V17.4626Z" fill="white"/>
<path d="M161.611 14.1085C161.611 14.3529 161.593 14.5583 161.559 14.726H157.369C157.387 15.3318 157.587 15.7933 157.975 16.1131C158.33 16.3991 158.787 16.5421 159.347 16.5421C159.967 16.5421 160.533 16.4459 161.042 16.2522L161.261 17.1986C160.665 17.4508 159.963 17.5769 159.151 17.5769C158.178 17.5769 157.411 17.2974 156.857 16.7384C156.299 16.1794 156.023 15.4293 156.023 14.4881C156.023 13.5638 156.281 12.7942 156.799 12.1806C157.341 11.5254 158.073 11.1978 158.997 11.1978C159.901 11.1978 160.587 11.5254 161.051 12.1806C161.426 12.7006 161.611 13.3441 161.611 14.1085ZM160.278 13.7562C160.289 13.3519 160.197 13.0035 160.007 12.7097C159.765 12.3314 159.395 12.1416 158.895 12.1416C158.439 12.1416 158.067 12.3262 157.783 12.6967C157.551 12.9918 157.414 13.3441 157.369 13.7562H160.278Z" fill="white"/>
<path d="M71.5267 40.9547H68.4987L66.84 35.873H61.0747L59.4947 40.9547H56.5467L62.2587 23.6543H65.7867L71.5267 40.9547ZM66.34 33.741L64.84 29.2235C64.6813 28.762 64.384 27.6752 63.9453 25.9644H63.892C63.7173 26.7002 63.436 27.787 63.0493 29.2235L61.576 33.741H66.34Z" fill="white"/>
<path d="M86.2196 34.5642C86.2196 36.6858 85.6316 38.3628 84.4556 39.5939C83.4022 40.6898 82.0942 41.2371 80.5329 41.2371C78.8476 41.2371 77.6369 40.6469 76.8996 39.4665H76.8462V46.038H74.0036V32.5869C74.0036 31.2531 73.9676 29.8842 73.8982 28.4802H76.3982L76.5569 30.4575H76.6102C77.5582 28.9677 78.9969 28.2241 80.9276 28.2241C82.4369 28.2241 83.6969 28.8052 84.7049 29.9687C85.7156 31.1335 86.2196 32.6649 86.2196 34.5642ZM83.3236 34.6656C83.3236 33.4514 83.0436 32.4504 82.4809 31.6626C81.8662 30.841 81.0409 30.4302 80.0062 30.4302C79.3049 30.4302 78.6676 30.659 78.0982 31.1101C77.5276 31.5651 77.1542 32.1592 76.9796 32.895C76.8916 33.2382 76.8476 33.519 76.8476 33.74V35.82C76.8476 36.7274 77.1329 37.4931 77.7036 38.1184C78.2742 38.7437 79.0156 39.0557 79.9276 39.0557C80.9982 39.0557 81.8316 38.6527 82.4276 37.8493C83.0249 37.0446 83.3236 35.9838 83.3236 34.6656Z" fill="white"/>
<path d="M100.929 34.5642C100.929 36.6858 100.341 38.3628 99.1638 39.5939C98.1118 40.6898 96.8038 41.2371 95.2425 41.2371C93.5572 41.2371 92.3465 40.6469 91.6105 39.4665H91.5572V46.038H88.7145V32.5869C88.7145 31.2531 88.6785 29.8842 88.6092 28.4802H91.1092L91.2678 30.4575H91.3212C92.2678 28.9677 93.7065 28.2241 95.6385 28.2241C97.1465 28.2241 98.4065 28.8052 99.4172 29.9687C100.424 31.1335 100.929 32.6649 100.929 34.5642ZM98.0332 34.6656C98.0332 33.4514 97.7518 32.4504 97.1892 31.6626C96.5745 30.841 95.7518 30.4302 94.7158 30.4302C94.0132 30.4302 93.3772 30.659 92.8065 31.1101C92.2358 31.5651 91.8638 32.1592 91.6892 32.895C91.6025 33.2382 91.5572 33.519 91.5572 33.74V35.82C91.5572 36.7274 91.8425 37.4931 92.4105 38.1184C92.9812 38.7424 93.7225 39.0557 94.6372 39.0557C95.7078 39.0557 96.5412 38.6527 97.1372 37.8493C97.7345 37.0446 98.0332 35.9838 98.0332 34.6656Z" fill="white"/>
<path d="M117.383 36.1032C117.383 37.5748 116.859 38.7721 115.807 39.6964C114.651 40.7065 113.041 41.2109 110.973 41.2109C109.064 41.2109 107.533 40.8521 106.375 40.1332L107.033 37.8231C108.281 38.5589 109.651 38.9281 111.143 38.9281C112.213 38.9281 113.047 38.6915 113.645 38.2209C114.241 37.7503 114.539 37.1185 114.539 36.3307C114.539 35.6287 114.293 35.0372 113.801 34.5575C113.312 34.0778 112.495 33.6319 111.353 33.2198C108.247 32.0901 106.695 30.4352 106.695 28.259C106.695 26.8368 107.239 25.6707 108.328 24.7633C109.413 23.8546 110.861 23.4009 112.672 23.4009C114.287 23.4009 115.628 23.6752 116.699 24.2225L115.988 26.4819C114.988 25.9515 113.857 25.6863 112.592 25.6863C111.592 25.6863 110.811 25.9268 110.251 26.4052C109.777 26.8329 109.54 27.3542 109.54 27.9717C109.54 28.6555 109.811 29.221 110.355 29.6656C110.828 30.0764 111.688 30.521 112.936 31.0007C114.463 31.6 115.584 32.3007 116.305 33.1041C117.024 33.9049 117.383 34.9072 117.383 36.1032Z" fill="white"/>
<path d="M126.784 30.5599H123.651V36.6166C123.651 38.1571 124.203 38.9267 125.309 38.9267C125.817 38.9267 126.239 38.8838 126.572 38.798L126.651 40.9027C126.091 41.1068 125.353 41.2095 124.44 41.2095C123.317 41.2095 122.44 40.8754 121.807 40.2085C121.176 39.5403 120.859 38.4197 120.859 36.8454V30.5573H118.992V28.4773H120.859V26.1932L123.651 25.3716V28.4773H126.784V30.5599Z" fill="white"/>
<path d="M140.922 34.6146C140.922 36.5321 140.36 38.1064 139.237 39.3375C138.06 40.605 136.497 41.2368 134.549 41.2368C132.672 41.2368 131.177 40.6297 130.062 39.4155C128.948 38.2013 128.39 36.6686 128.39 34.8213C128.39 32.8882 128.964 31.3048 130.114 30.0737C131.262 28.8413 132.812 28.2251 134.76 28.2251C136.637 28.2251 138.148 28.8322 139.288 30.0477C140.378 31.2268 140.922 32.7491 140.922 34.6146ZM137.973 34.7043C137.973 33.5538 137.721 32.5671 137.21 31.7442C136.614 30.7484 135.762 30.2518 134.658 30.2518C133.516 30.2518 132.648 30.7497 132.052 31.7442C131.541 32.5684 131.289 33.5707 131.289 34.7563C131.289 35.9068 131.541 36.8935 132.052 37.7151C132.666 38.7109 133.525 39.2075 134.633 39.2075C135.718 39.2075 136.57 38.7005 137.185 37.6891C137.709 36.8506 137.973 35.8535 137.973 34.7043Z" fill="white"/>
<path d="M150.158 30.9177C149.876 30.867 149.576 30.841 149.262 30.841C148.262 30.841 147.488 31.2089 146.944 31.946C146.471 32.596 146.234 33.4176 146.234 34.4095V40.955H143.392L143.419 32.4088C143.419 30.971 143.383 29.6619 143.312 28.4815H145.788L145.892 30.8683H145.971C146.271 30.048 146.744 29.3876 147.392 28.8923C148.026 28.4464 148.71 28.2241 149.447 28.2241C149.71 28.2241 149.947 28.2423 150.158 28.2748V30.9177Z" fill="white"/>
<path d="M162.878 34.1274C162.878 34.624 162.845 35.0426 162.774 35.3845H154.246C154.28 36.6169 154.692 37.5594 155.484 38.2094C156.202 38.7905 157.132 39.0817 158.273 39.0817C159.536 39.0817 160.688 38.8854 161.724 38.4915L162.169 40.4155C160.958 40.9303 159.529 41.1864 157.88 41.1864C155.896 41.1864 154.338 40.617 153.205 39.4795C152.074 38.342 151.508 36.8145 151.508 34.8983C151.508 33.0172 152.034 31.4507 153.089 30.2014C154.193 28.8676 155.685 28.2007 157.562 28.2007C159.406 28.2007 160.802 28.8676 161.75 30.2014C162.501 31.2609 162.878 32.5713 162.878 34.1274ZM160.168 33.4085C160.186 32.5869 160.001 31.8771 159.616 31.2778C159.124 30.5069 158.368 30.1221 157.35 30.1221C156.421 30.1221 155.665 30.4978 155.088 31.2518C154.614 31.8511 154.333 32.57 154.246 33.4072H160.168V33.4085Z" fill="white"/>
</svg>
