<svg width="41" height="40" viewBox="0 0 41 40" fill="none" xmlns="http://www.w3.org/2000/svg">
<path d="M37.2812 0H3.19531C1.5625 0 0.242188 1.28906 0.242188 2.88281V37.1094C0.242188 38.7031 1.5625 40 3.19531 40H37.2812C38.9141 40 40.2422 38.7031 40.2422 37.1172V2.88281C40.2422 1.28906 38.9141 0 37.2812 0ZM12.1094 34.0859H6.17188V14.9922H12.1094V34.0859ZM9.14062 12.3906C7.23438 12.3906 5.69531 10.8516 5.69531 8.95312C5.69531 7.05469 7.23438 5.51562 9.14062 5.51562C11.0391 5.51562 12.5781 7.05469 12.5781 8.95312C12.5781 10.8438 11.0391 12.3906 9.14062 12.3906ZM34.3281 34.0859H28.3984V24.8047C28.3984 22.5938 28.3594 19.7422 25.3125 19.7422C22.2266 19.7422 21.7578 22.1562 21.7578 24.6484V34.0859H15.8359V14.9922H21.5234V17.6016H21.6016C22.3906 16.1016 24.3281 14.5156 27.2109 14.5156C33.2188 14.5156 34.3281 18.4688 34.3281 23.6094V34.0859Z" fill="white"/>
</svg>
