<svg width="160" height="160" viewBox="0 0 160 160" fill="none" xmlns="http://www.w3.org/2000/svg">
<path d="M97.329 53.5939L71.665 84.375L62.6807 73.6035C61.8407 72.5955 60.8104 71.7629 59.6486 71.153C58.4868 70.5432 57.2162 70.1682 55.9095 70.0494C54.6027 69.9306 53.2854 70.0703 52.0327 70.4607C50.78 70.851 49.6164 71.4842 48.6084 72.3242C47.6004 73.1642 46.7677 74.1945 46.1579 75.3563C45.548 76.5181 45.173 77.7887 45.0542 79.0954C44.9354 80.4022 45.0752 81.7195 45.4655 82.9722C45.8558 84.225 46.489 85.3885 47.329 86.3965L63.9892 106.397C64.9256 107.523 66.0984 108.43 67.4246 109.053C68.7507 109.676 70.1976 109.999 71.6627 110C73.1278 110.001 74.5751 109.68 75.9021 109.058C77.229 108.437 78.403 107.532 79.3409 106.406L112.681 66.4064C113.528 65.3991 114.168 64.2345 114.564 62.9793C114.961 61.7241 115.105 60.403 114.989 59.0918C114.874 57.7806 114.5 56.5052 113.891 55.3386C113.281 54.1721 112.447 53.1374 111.436 52.294C110.426 51.4506 109.259 50.8151 108.002 50.4238C106.745 50.0326 105.423 49.8933 104.113 50.0141C102.802 50.1349 101.528 50.5133 100.364 51.1276C99.1998 51.7419 98.1685 52.58 97.329 53.5939Z" fill="#4C0B84"/>
<path d="M80 0C64.1775 0 48.7103 4.69192 35.5544 13.4824C22.3985 22.2729 12.1447 34.7672 6.08967 49.3853C0.0346629 64.0034 -1.5496 80.0887 1.53721 95.6072C4.62403 111.126 12.2433 125.38 23.4315 136.569C34.6197 147.757 48.8743 155.376 64.3928 158.463C79.9113 161.55 95.9966 159.965 110.615 153.91C125.233 147.855 137.727 137.602 146.518 124.446C155.308 111.29 160 95.8225 160 80C159.977 58.7896 151.542 38.4544 136.544 23.4564C121.546 8.45839 101.21 0.0225883 80 0ZM80 140C68.1332 140 56.5328 136.481 46.6658 129.888C36.7989 123.295 29.1085 113.925 24.5673 102.961C20.026 91.9974 18.8378 79.9334 21.1529 68.2946C23.468 56.6557 29.1825 45.9647 37.5736 37.5736C45.9648 29.1824 56.6558 23.468 68.2946 21.1529C79.9335 18.8378 91.9975 20.026 102.961 24.5672C113.925 29.1085 123.295 36.7988 129.888 46.6658C136.481 56.5327 140 68.1331 140 80C139.983 95.9077 133.656 111.159 122.407 122.407C111.159 133.656 95.9077 139.983 80 140Z" fill="#4C0B84"/>
</svg>
