<svg width="20" height="20" viewBox="0 0 20 20" fill="none" xmlns="http://www.w3.org/2000/svg">
<path d="M11.825 0.825C12.825 1.825 12.825 3.525 11.825 4.525C10.825 5.525 9.125 5.525 8.125 4.525C7.125 3.525 7.125 1.825 8.125 0.825C9.125 -0.275 10.825 -0.275 11.825 0.825Z" fill="#4C0B84"/>
<path d="M11.725 15.125C12.725 16.125 12.725 17.825 11.725 18.825C10.725 19.825 9.02499 19.825 8.02499 18.825C7.02499 17.825 7.02499 16.125 8.02499 15.125C9.02499 14.125 10.725 14.125 11.725 15.125Z" fill="#4C0B84"/>
<path d="M18.925 8.02499C19.925 9.02499 19.925 10.725 18.925 11.725C17.925 12.725 16.225 12.725 15.225 11.725C14.225 10.725 14.225 9.02499 15.225 8.02499C16.325 7.02499 17.925 7.02499 18.925 8.02499Z" fill="#F77BAD"/>
<path d="M4.825 7.825C5.925 8.925 5.925 10.725 4.825 11.825C3.725 12.925 1.925 12.925 0.825 11.825C-0.275 10.725 -0.275 8.925 0.825 7.825C1.925 6.625 3.725 6.625 4.825 7.825Z" fill="#4C0B84"/>
</svg>
